<svg width="693" height="494" viewBox="0 0 693 494" fill="none" xmlns="http://www.w3.org/2000/svg">
<path d="M-444.603 27.8902L-444.602 27.8937C-443.751 51.865 -430.635 77.9082 -414.131 103.079C-405.903 115.626 -396.892 127.874 -388.249 139.459C-387.007 141.123 -385.772 142.774 -384.548 144.411C-377.269 154.145 -370.371 163.371 -364.635 171.79C-356.874 183.185 -349.311 194.655 -341.773 206.088C-308.592 256.408 -275.875 306.026 -228.781 345.454C-161.295 386.129 -72.5651 431.217 97.1763 435.296C161.157 436.834 211.523 450.62 260.619 464.059C270.558 466.777 280.445 469.482 290.382 472.073C349.402 487.436 410.543 498.745 495.931 484.559C579.801 470.609 636.578 421.767 666.227 363.744C695.915 305.649 698.341 238.495 673.659 188.078V188.077C650.847 141.449 594.032 91.9709 522.296 85.88C439.44 78.8595 378.613 82.9927 320.655 86.9309C318.337 87.0886 316.025 87.2454 313.715 87.4018C253.616 91.4645 195.787 94.825 118.938 84.605C42.6636 74.4645 -7.21961 51.1518 -42.8357 27.161C-60.6233 15.1794 -74.8199 3.05009 -86.9122 -7.61273C-88.5797 -9.08282 -90.2036 -10.5221 -91.7892 -11.9273C-101.765 -20.7676 -110.217 -28.2578 -118.278 -33.5722C-132.57 -42.9824 -146.16 -53.5732 -159.659 -64.1223L-160.349 -64.6623C-173.642 -75.05 -186.857 -85.3777 -200.707 -94.6114C-228.848 -113.374 -259.426 -127.494 -297.918 -128.086C-297.919 -128.086 -297.921 -128.086 -297.922 -128.086L-297.884 -130.359C-299.302 -130.375 -300.993 -130.419 -302.923 -130.469C-329.049 -131.148 -399.016 -132.966 -430.63 -81.3405L-444.603 27.8902ZM-444.603 27.8902C-444.819 22.0561 -445.088 16.5491 -445.343 11.3029C-447.081 -24.3162 -448.232 -47.9118 -428.555 -80.2023L-444.603 27.8902Z" stroke="#8DC63F" stroke-width="4"/>
</svg>
