<svg width="224" height="105" viewBox="0 0 224 105" fill="none" xmlns="http://www.w3.org/2000/svg">
<path d="M189.042 17.0653C154.03 13.9362 138.363 21.15 107.321 16.7956C76.5651 12.4826 67.1756 -3.01666 59.4568 -8.38438C47.947 -16.378 38.6507 -28.4182 22.7804 -28.6752C18.6015 -28.7241 2.75803 -30.0477 -4.12206 -18.1967C-8.78229 -10.1302 -7.77949 -4.49333 -7.43925 5.17011C-7.08517 15.6911 3.44116 27.8123 8.84436 36.1775C17.317 49.2987 24.6971 63.0224 36.492 73.4267C50.2259 82.1608 68.2943 91.8526 102.831 92.728C133.863 93.5148 148.934 109.351 183.739 103.252C218.07 97.2277 230.26 61.0483 220.114 39.1911C215.433 29.0958 203.783 18.3856 189.042 17.0653Z" fill="#8DC63F"/>
</svg>
