<svg width="675" height="288" viewBox="0 0 675 288" fill="none" xmlns="http://www.w3.org/2000/svg">
<path d="M568.537 23.5891C463.699 14.2193 416.788 35.8202 323.836 22.7813C231.74 9.86658 203.624 -36.5439 180.511 -52.6169C146.047 -76.5528 118.21 -112.606 70.6886 -113.375C58.1755 -113.522 10.7341 -117.485 -9.86748 -81.9987C-23.822 -57.8446 -20.8192 -40.9656 -19.8004 -12.0296C-18.7402 19.4741 12.7796 55.7696 28.9589 80.8181C54.3291 120.108 76.4278 161.202 111.746 192.356C152.871 218.509 206.974 247.53 310.391 250.152C403.31 252.508 448.441 299.927 552.659 281.663C655.46 263.625 691.959 155.291 661.581 89.8419C647.562 59.6129 612.678 27.5425 568.537 23.5891Z" fill="url(#paint0_linear)"/>
<defs>
<linearGradient id="paint0_linear" x1="495" y1="258" x2="137.89" y2="-79.9184" gradientUnits="userSpaceOnUse">
<stop stop-color="#8DC63F"/>
<stop offset="0.708333" stop-color="#00A651"/>
<stop offset="1" stop-color="#8DC63F"/>
</linearGradient>
</defs>
</svg>
