<svg width="437" height="265" viewBox="0 0 437 265" fill="none" xmlns="http://www.w3.org/2000/svg">
<g clip-path="url(#clip0)">
<path d="M292.1 0.330078H28.2399C13.5547 0.330078 1.6499 12.2348 1.6499 26.9201V236.03C1.6499 250.715 13.5547 262.62 28.2399 262.62H292.1C306.785 262.62 318.69 250.715 318.69 236.03V26.9201C318.69 12.2348 306.785 0.330078 292.1 0.330078Z" fill="white"/>
<path d="M292.1 0.330078H28.2399C13.5547 0.330078 1.6499 12.2348 1.6499 26.9201V236.03C1.6499 250.715 13.5547 262.62 28.2399 262.62H292.1C306.785 262.62 318.69 250.715 318.69 236.03V26.9201C318.69 12.2348 306.785 0.330078 292.1 0.330078Z" fill="white" stroke="#8DC63F" stroke-width="0.66" stroke-miterlimit="10"/>
<path d="M282.9 223.56C275.84 220.483 268.165 219.077 260.473 219.454C252.781 219.831 245.28 221.979 238.555 225.732C231.83 229.484 226.062 234.74 221.702 241.088C217.342 247.436 214.508 254.706 213.42 262.33H219.07C220.628 252.719 225.3 243.886 232.368 237.188C239.435 230.49 248.506 226.299 258.188 225.258C267.869 224.218 277.623 226.386 285.952 231.428C294.282 236.471 300.724 244.11 304.29 253.17C305.445 256.127 306.286 259.197 306.8 262.33H312.47C311.9 258.491 310.894 254.73 309.47 251.12C307.083 244.998 303.506 239.409 298.946 234.679C294.385 229.948 288.931 226.169 282.9 223.56Z" fill="#DAEAC1"/>
<path d="M194.39 262.33H200.96L201.04 261.6L189.63 247.78L197.13 230.37L214.8 229.77L215.6 228.83C218.124 225.872 220.924 223.16 223.96 220.73L224.88 219.99L226.66 202.16L244.34 195.27L257.21 207.37L258.43 207.28C261.987 207.017 265.561 207.064 269.11 207.42L270.28 207.53L284.01 196.01L301.48 203.36L302.24 221.01L303.18 221.8C306.299 224.428 309.153 227.355 311.7 230.54L312.44 231.46L330.26 233.24L337.2 250.87L326.34 262.33H334.02L341.64 254.23C342.244 253.583 342.652 252.779 342.819 251.911C342.985 251.042 342.902 250.144 342.58 249.32L335.22 230.61C334.908 229.809 334.38 229.111 333.695 228.592C333.01 228.073 332.195 227.754 331.34 227.67L315.28 226.07C312.958 223.275 310.417 220.67 307.68 218.28L307.01 202.49C306.969 201.605 306.679 200.75 306.173 200.022C305.667 199.295 304.965 198.726 304.15 198.38L285.64 190.59C284.847 190.25 283.976 190.138 283.123 190.265C282.27 190.392 281.469 190.754 280.81 191.31L268.44 201.69C265.373 201.44 262.292 201.4 259.22 201.57L247.7 190.73C247.055 190.128 246.251 189.721 245.384 189.556C244.517 189.391 243.621 189.476 242.8 189.8L224.09 197.16C223.29 197.473 222.592 198.001 222.073 198.685C221.554 199.37 221.235 200.185 221.15 201.04L219.55 217.11C216.911 219.302 214.444 221.692 212.17 224.26L196.37 224.8C195.485 224.832 194.628 225.115 193.898 225.614C193.167 226.113 192.592 226.808 192.24 227.62L184.24 246.08C183.897 246.868 183.779 247.735 183.899 248.586C184.019 249.437 184.372 250.238 184.92 250.9L194.39 262.33Z" fill="#DAEAC1"/>
<path d="M212.73 137.37C212.083 136.632 211.286 136.04 210.393 135.633C209.5 135.227 208.531 135.014 207.55 135.01C205.618 135.065 203.787 135.885 202.459 137.289C201.131 138.694 200.416 140.568 200.47 142.5C200.469 143.175 200.557 143.847 200.73 144.5L193.05 150.25C192.417 149.556 191.648 149 190.79 148.618C189.932 148.235 189.004 148.035 188.065 148.028C187.126 148.022 186.196 148.209 185.332 148.58C184.469 148.95 183.692 149.495 183.05 150.18C182.08 151.219 181.412 152.502 181.118 153.893C180.823 155.283 180.914 156.727 181.38 158.07L174.3 164.38C173.799 163.582 173.138 162.897 172.36 162.366C171.581 161.836 170.701 161.472 169.776 161.297C168.85 161.122 167.898 161.141 166.98 161.351C166.062 161.562 165.197 161.959 164.44 162.52C163.207 163.437 162.291 164.717 161.82 166.18L155.94 163.65C155.82 162.705 155.512 161.794 155.034 160.971C154.556 160.147 153.918 159.428 153.157 158.856C152.396 158.283 151.529 157.869 150.605 157.638C149.681 157.407 148.72 157.363 147.78 157.51C145.876 157.911 144.204 159.039 143.121 160.655C142.037 162.271 141.628 164.246 141.98 166.16C142.1 167.104 142.41 168.015 142.889 168.838C143.368 169.661 144.007 170.38 144.769 170.952C145.531 171.523 146.4 171.936 147.324 172.166C148.248 172.396 149.209 172.438 150.15 172.29C151.423 172.044 152.606 171.459 153.574 170.596C154.542 169.734 155.259 168.626 155.65 167.39L161.53 169.92C161.651 170.864 161.96 171.774 162.438 172.597C162.916 173.42 163.554 174.138 164.315 174.711C165.075 175.283 165.943 175.697 166.866 175.929C167.789 176.16 168.749 176.205 169.69 176.06C171.383 175.714 172.901 174.784 173.979 173.434C175.057 172.083 175.627 170.397 175.59 168.67C175.59 168.43 175.59 168.18 175.59 167.95L183.31 161.05C183.981 161.709 184.782 162.222 185.662 162.557C186.542 162.891 187.482 163.038 188.422 162.99C189.362 162.942 190.282 162.7 191.123 162.278C191.964 161.856 192.709 161.264 193.31 160.54C194.136 159.557 194.708 158.387 194.976 157.131C195.245 155.876 195.201 154.574 194.85 153.34L202.44 147.63C203.051 148.344 203.804 148.924 204.652 149.332C205.499 149.741 206.421 149.969 207.361 150.003C208.301 150.037 209.237 149.876 210.111 149.529C210.986 149.182 211.778 148.658 212.44 147.99C213.819 146.583 214.615 144.706 214.669 142.737C214.722 140.767 214.03 138.85 212.73 137.37ZM148.95 168.81C148.166 168.856 147.386 168.665 146.712 168.263C146.037 167.861 145.499 167.265 145.167 166.554C144.835 165.842 144.725 165.047 144.85 164.272C144.975 163.497 145.33 162.777 145.869 162.206C146.408 161.635 147.106 161.239 147.872 161.069C148.639 160.899 149.439 160.964 150.169 161.254C150.898 161.544 151.524 162.047 151.965 162.697C152.405 163.347 152.64 164.115 152.64 164.9C152.664 165.906 152.29 166.882 151.599 167.614C150.908 168.346 149.956 168.776 148.95 168.81ZM168.48 172.57C167.698 172.614 166.921 172.422 166.25 172.02C165.578 171.617 165.043 171.023 164.713 170.312C164.384 169.602 164.275 168.81 164.401 168.037C164.526 167.264 164.882 166.547 165.42 165.979C165.958 165.41 166.654 165.016 167.419 164.848C168.183 164.679 168.98 164.744 169.708 165.034C170.435 165.324 171.058 165.825 171.497 166.474C171.936 167.122 172.171 167.887 172.17 168.67C172.194 169.675 171.82 170.65 171.128 171.38C170.437 172.111 169.485 172.538 168.48 172.57ZM188.02 159.41C187.236 159.454 186.457 159.262 185.784 158.858C185.111 158.455 184.574 157.858 184.244 157.146C183.914 156.434 183.805 155.64 183.931 154.865C184.057 154.09 184.413 153.372 184.953 152.802C185.492 152.232 186.19 151.837 186.956 151.668C187.723 151.499 188.523 151.564 189.252 151.855C189.981 152.145 190.606 152.648 191.046 153.298C191.486 153.948 191.72 154.715 191.72 155.5C191.747 156.509 191.372 157.487 190.678 158.22C189.985 158.953 189.029 159.381 188.02 159.41ZM207.55 146.41C206.766 146.456 205.986 146.265 205.312 145.863C204.637 145.461 204.099 144.865 203.767 144.154C203.435 143.442 203.325 142.647 203.45 141.872C203.575 141.097 203.93 140.377 204.469 139.806C205.008 139.235 205.706 138.839 206.473 138.669C207.239 138.499 208.039 138.564 208.769 138.854C209.498 139.145 210.124 139.647 210.565 140.297C211.005 140.947 211.24 141.715 211.24 142.5C211.267 143.507 210.894 144.484 210.202 145.217C209.51 145.949 208.557 146.378 207.55 146.41Z" fill="#888281"/>
<path d="M212.34 155.95H202.86C202.398 155.966 201.96 156.164 201.644 156.501C201.327 156.839 201.157 157.288 201.17 157.75V200.42C201.157 200.883 201.327 201.332 201.644 201.669C201.96 202.006 202.398 202.204 202.86 202.22H212.34C212.803 202.204 213.242 202.007 213.56 201.67C213.878 201.333 214.051 200.884 214.04 200.42V157.75C214.051 157.287 213.878 156.838 213.56 156.501C213.242 156.164 212.803 155.966 212.34 155.95ZM210.65 198.81H204.55V159.54H210.65V198.81Z" fill="#888281"/>
<path d="M192.82 168.86H183.34C182.878 168.876 182.44 169.074 182.124 169.411C181.807 169.748 181.637 170.197 181.65 170.66V200.42C181.637 200.882 181.807 201.331 182.124 201.669C182.44 202.006 182.878 202.204 183.34 202.22H192.83C193.293 202.204 193.73 202.006 194.047 201.669C194.363 201.331 194.534 200.882 194.52 200.42V170.66C194.527 170.43 194.488 170.201 194.406 169.986C194.324 169.771 194.201 169.575 194.043 169.408C193.885 169.24 193.696 169.106 193.486 169.012C193.276 168.918 193.05 168.866 192.82 168.86ZM191.12 198.86H185.03V172.5H191.12V198.86Z" fill="#888281"/>
<path d="M173.17 182.27H163.69C163.228 182.283 162.789 182.479 162.471 182.814C162.152 183.15 161.979 183.598 161.99 184.06V200.56C161.983 200.79 162.022 201.019 162.104 201.234C162.186 201.449 162.309 201.645 162.467 201.812C162.625 201.979 162.814 202.114 163.024 202.208C163.234 202.302 163.46 202.354 163.69 202.36H173.17C173.633 202.344 174.07 202.146 174.387 201.809C174.703 201.472 174.874 201.023 174.86 200.56V184.06C174.871 183.599 174.699 183.153 174.383 182.818C174.067 182.482 173.631 182.286 173.17 182.27ZM171.48 198.77H165.34V185.86H171.44L171.48 198.77Z" fill="#888281"/>
<path d="M153.69 178.55H144.21C143.981 178.556 143.756 178.608 143.548 178.701C143.339 178.795 143.151 178.928 142.994 179.095C142.837 179.261 142.714 179.456 142.633 179.67C142.552 179.884 142.513 180.111 142.52 180.34V200.6C142.506 201.062 142.677 201.511 142.993 201.849C143.31 202.186 143.748 202.384 144.21 202.4H153.69C154.153 202.384 154.592 202.186 154.91 201.849C155.228 201.512 155.401 201.063 155.39 200.6V180.34C155.401 179.877 155.228 179.429 154.909 179.094C154.591 178.759 154.152 178.563 153.69 178.55ZM152 198.81H145.9V182.13H152V198.81Z" fill="#888281"/>
<path d="M231.33 28.1401H103.16C99.5867 28.1401 96.6899 31.0369 96.6899 34.6101V215.24C96.6899 218.813 99.5867 221.71 103.16 221.71H231.33C234.903 221.71 237.8 218.813 237.8 215.24V34.6101C237.8 31.0369 234.903 28.1401 231.33 28.1401Z" stroke="#8DC63F" stroke-width="3.21" stroke-miterlimit="10" stroke-linecap="round"/>
<path d="M141.03 43.3999H114.14C113.334 43.3999 112.68 44.0536 112.68 44.8599V71.7499C112.68 72.5562 113.334 73.2099 114.14 73.2099H141.03C141.837 73.2099 142.49 72.5562 142.49 71.7499V44.8599C142.49 44.0536 141.837 43.3999 141.03 43.3999Z" stroke="#8DC63F" stroke-width="3.3" stroke-miterlimit="10" stroke-linecap="round"/>
<path d="M154.92 50.9302H215.16" stroke="#8DC63F" stroke-width="3.3" stroke-miterlimit="10" stroke-linecap="round"/>
<path d="M154.92 68.7402H215.16" stroke="#8DC63F" stroke-width="3.3" stroke-miterlimit="10" stroke-linecap="round"/>
<path d="M125.63 86.54H215.16" stroke="#8DC63F" stroke-width="3.3" stroke-miterlimit="10" stroke-linecap="round"/>
<path d="M125.63 104.34H215.16" stroke="#8DC63F" stroke-width="3.3" stroke-miterlimit="10" stroke-linecap="round"/>
<path d="M125.63 122.14H215.16" stroke="#8DC63F" stroke-width="3.3" stroke-miterlimit="10" stroke-linecap="round"/>
<path d="M1.6499 77.7201L33.6299 57.9601L66.6599 78.6701L96.9399 56.3701" stroke="#8DC63F" stroke-width="3.3" stroke-miterlimit="10" stroke-linecap="round"/>
<path d="M57.76 54.7402C62.7361 54.7402 66.77 50.7063 66.77 45.7302C66.77 40.7541 62.7361 36.7202 57.76 36.7202C52.7839 36.7202 48.75 40.7541 48.75 45.7302C48.75 50.7063 52.7839 54.7402 57.76 54.7402Z" stroke="#8DC63F" stroke-width="3.3" stroke-miterlimit="10" stroke-linecap="round"/>
<path d="M280.76 10.1602L277.48 38.6102" stroke="#8DC63F" stroke-width="3.3" stroke-miterlimit="10" stroke-linecap="round"/>
<path d="M271.69 12.1099L260.35 23.1099C260.196 23.2632 260.073 23.4456 259.99 23.6464C259.906 23.8472 259.863 24.0624 259.863 24.2799C259.863 24.4974 259.906 24.7127 259.99 24.9135C260.073 25.1142 260.196 25.2966 260.35 25.45L271.69 36.45" stroke="#8DC63F" stroke-width="3.3" stroke-miterlimit="10" stroke-linecap="round"/>
<path d="M287.45 36.45L298.79 25.45C298.947 25.298 299.071 25.1161 299.156 24.9152C299.241 24.7142 299.285 24.4981 299.285 24.2799C299.285 24.0617 299.241 23.8456 299.156 23.6447C299.071 23.4437 298.947 23.2618 298.79 23.1099L287.45 12.1099" stroke="#8DC63F" stroke-width="3.3" stroke-miterlimit="10" stroke-linecap="round"/>
<path d="M18.3902 230.58C19.9603 233.088 22.2809 235.037 25.0223 236.15C27.7637 237.263 30.7863 237.483 33.6602 236.78C34.4423 238.263 35.5555 239.545 36.9136 240.528C38.2717 241.511 39.838 242.168 41.491 242.448C43.144 242.727 44.8394 242.622 46.4451 242.14C48.0509 241.659 49.5239 240.813 50.7501 239.67C51.9317 240.024 53.1494 240.246 54.3802 240.33C55.2202 243.52 57.6501 245.45 62.7601 247.16C64.1343 247.596 65.3601 248.407 66.3001 249.5C66.8158 250.118 67.4591 250.616 68.1859 250.962C68.9126 251.307 69.7055 251.49 70.5101 251.5C71.2213 251.501 71.9255 251.358 72.5801 251.08C73.8106 250.558 74.8008 249.594 75.356 248.378C75.9113 247.162 75.9913 245.782 75.5801 244.51C75.1828 243.28 74.667 242.091 74.0401 240.96C76.9996 238.835 79.0605 235.683 79.8201 232.12C80.1893 231.676 80.5236 231.205 80.8201 230.71C81.4695 229.694 81.9082 228.558 82.1102 227.37C82.2802 226.13 82.2101 221.93 80.7901 219.6C81.1578 218.638 81.3131 217.608 81.2452 216.58C81.1773 215.552 80.8879 214.551 80.3968 213.646C79.9057 212.741 79.2245 211.952 78.4 211.335C77.5755 210.718 76.6272 210.286 75.6202 210.07C74.9901 206.687 73.2006 203.629 70.5596 201.422C67.9187 199.216 64.5916 197.998 61.1502 197.98C60.9802 197.98 60.8202 197.98 60.6602 197.98C60.1006 197.099 59.353 196.352 58.471 195.794C57.589 195.235 56.5944 194.879 55.5584 194.75C54.5225 194.621 53.4709 194.722 52.4788 195.047C51.4868 195.372 50.5788 195.913 49.8201 196.63C47.8867 195.369 45.6282 194.699 43.3201 194.7C41.4849 194.706 39.6752 195.13 38.0289 195.941C36.3826 196.752 34.9432 197.928 33.8201 199.38C32.5707 199.016 31.2555 198.938 29.9717 199.151C28.688 199.364 27.4687 199.863 26.4039 200.611C25.339 201.359 24.456 202.337 23.8201 203.472C23.1842 204.607 22.8116 205.871 22.73 207.17C21.4297 207.716 20.3194 208.633 19.5384 209.807C18.7574 210.981 18.3406 212.36 18.3402 213.77C18.3501 214.271 18.4104 214.771 18.5201 215.26C16.1701 218.8 16.1402 225.26 16.8502 227.26C17.242 228.419 17.7583 229.532 18.3902 230.58ZM23.6002 216.93C22.9137 216.515 22.3813 215.888 22.0843 215.143C21.7873 214.398 21.7418 213.576 21.9547 212.803C22.1675 212.03 22.6271 211.348 23.2635 210.86C23.8999 210.372 24.6781 210.105 25.48 210.1C26.0484 210.096 26.6096 210.228 27.1173 210.483C27.6249 210.739 28.0646 211.111 28.4002 211.57C28.5361 211.754 28.707 211.909 28.9029 212.027C29.0988 212.145 29.316 212.223 29.5421 212.257C29.7682 212.291 29.9987 212.28 30.2205 212.224C30.4424 212.169 30.6514 212.071 30.8353 211.935C31.0191 211.799 31.1742 211.628 31.2921 211.432C31.4099 211.236 31.4881 211.019 31.522 210.793C31.5559 210.567 31.5448 210.336 31.4896 210.114C31.4344 209.893 31.3362 209.684 31.2003 209.5C30.6141 208.719 29.8725 208.068 29.0223 207.588C28.1721 207.108 27.2315 206.809 26.2601 206.71C26.5116 205.527 27.161 204.466 28.0999 203.703C29.0389 202.941 30.2107 202.523 31.4202 202.52C31.6302 202.52 31.8501 202.52 32.0601 202.59C31.9174 202.946 31.7941 203.31 31.6903 203.68C31.6331 203.901 31.62 204.132 31.6519 204.358C31.6838 204.584 31.76 204.802 31.876 204.999C31.9921 205.196 32.1459 205.368 32.3284 205.505C32.511 205.643 32.719 205.743 32.9403 205.8C33.1615 205.857 33.3917 205.87 33.618 205.838C33.8443 205.806 34.0622 205.73 34.2591 205.614C34.456 205.498 34.628 205.344 34.7654 205.162C34.9029 204.979 35.003 204.771 35.0601 204.55C35.2582 203.784 35.5646 203.05 35.97 202.37C36.7278 201.097 37.8022 200.043 39.0884 199.309C40.3747 198.574 41.8291 198.186 43.3101 198.18C44.9488 198.188 46.5502 198.671 47.9202 199.57C47.6598 200.306 47.5212 201.079 47.5101 201.86C47.5101 202.321 47.6935 202.764 48.0198 203.09C48.3462 203.417 48.7886 203.6 49.2501 203.6C49.7115 203.6 50.1542 203.417 50.4805 203.09C50.8069 202.764 50.9901 202.321 50.9901 201.86C50.9641 201.363 51.0398 200.865 51.2122 200.398C51.3847 199.931 51.6504 199.503 51.9932 199.142C52.3361 198.781 52.749 198.493 53.2066 198.296C53.6642 198.1 54.157 197.998 54.6551 197.998C55.1532 197.998 55.6462 198.1 56.1038 198.296C56.5615 198.493 56.9743 198.781 57.3172 199.142C57.6601 199.503 57.9258 199.931 58.0982 200.398C58.2707 200.865 58.3461 201.363 58.3201 201.86C58.3201 202.321 58.5036 202.764 58.8299 203.09C59.1562 203.417 59.5987 203.6 60.0601 203.6C60.5216 203.6 60.9643 203.417 61.2906 203.09C61.6169 202.764 61.8001 202.321 61.8001 201.86C61.8001 201.72 61.8001 201.59 61.8001 201.46C64.2288 201.608 66.5446 202.537 68.4024 204.109C70.2603 205.68 71.5608 207.81 72.1102 210.18C71.2978 210.412 70.535 210.792 69.8602 211.3C69.6139 211.483 69.4202 211.727 69.2989 212.009C69.1776 212.291 69.1332 212.6 69.1697 212.904C69.2063 213.209 69.3227 213.499 69.5071 213.744C69.6916 213.989 69.9375 214.181 70.22 214.3C70.5006 214.422 70.8082 214.467 71.1119 214.432C71.4156 214.397 71.7049 214.282 71.9503 214.1C72.362 213.789 72.8347 213.568 73.3375 213.453C73.8403 213.337 74.3617 213.328 74.868 213.428C75.3743 213.527 75.854 213.732 76.2757 214.029C76.6974 214.326 77.052 214.709 77.3157 215.153C77.5795 215.596 77.7468 216.09 77.8067 216.602C77.8667 217.115 77.818 217.634 77.6636 218.127C77.5093 218.619 77.2527 219.073 76.911 219.46C76.5692 219.846 76.15 220.156 75.6802 220.37C75.3242 220.54 75.0364 220.826 74.8643 221.181C74.6923 221.537 74.646 221.94 74.7332 222.325C74.8204 222.709 75.036 223.053 75.3443 223.3C75.6526 223.546 76.0356 223.68 76.4302 223.68C76.6832 223.678 76.9326 223.62 77.1602 223.51C77.6242 223.293 78.0607 223.021 78.4603 222.7C78.9032 223.955 79.0004 225.306 78.7418 226.611C78.4831 227.917 77.878 229.129 76.9901 230.12V230.17C75.8858 231.366 74.4234 232.172 72.8221 232.466C71.2208 232.76 69.5673 232.526 68.1102 231.8C67.8186 231.642 67.5379 231.465 67.2701 231.27C67.8986 230.387 68.2737 229.35 68.3548 228.269C68.4359 227.189 68.2198 226.107 67.73 225.14C67.5219 224.728 67.1584 224.415 66.7196 224.27C66.2807 224.126 65.8026 224.162 65.3902 224.37C64.9778 224.578 64.665 224.942 64.5206 225.38C64.3762 225.819 64.412 226.298 64.6202 226.71C64.895 227.267 64.9613 227.904 64.8072 228.505C64.6531 229.107 64.2888 229.634 63.7801 229.99C63.4708 230.192 63.1226 230.327 62.7579 230.386C62.3932 230.445 62.0201 230.427 61.6629 230.332C61.3057 230.238 60.9723 230.07 60.6842 229.839C60.396 229.607 60.1594 229.318 59.9901 228.99C59.8601 228.709 59.657 228.467 59.4019 228.292C59.1469 228.116 58.8492 228.012 58.5401 227.99C58.2346 227.971 57.9296 228.033 57.6558 228.17C57.382 228.307 57.1492 228.514 56.9808 228.77C56.8124 229.025 56.7145 229.321 56.6968 229.626C56.6792 229.932 56.7424 230.237 56.8802 230.51C57.3779 231.521 58.1502 232.371 59.1087 232.964C60.0673 233.556 61.1733 233.867 62.3001 233.86C63.0509 233.858 63.7944 233.713 64.4901 233.43C65.0978 233.976 65.7693 234.446 66.4901 234.83C68.9609 236.101 71.828 236.367 74.4901 235.57C72.7707 237.921 70.1952 239.502 67.3201 239.97C66.885 240.036 66.4912 240.265 66.2181 240.611C65.945 240.956 65.8127 241.392 65.8482 241.83C65.8837 242.269 66.0844 242.678 66.4095 242.975C66.7346 243.272 67.16 243.434 67.6002 243.43H67.8702C68.9316 243.251 69.9687 242.949 70.9603 242.53C71.4978 243.482 71.9334 244.487 72.2601 245.53C72.32 245.711 72.3505 245.9 72.3502 246.09C72.3518 246.459 72.2444 246.819 72.0416 247.127C71.8387 247.435 71.5497 247.676 71.2103 247.82C70.8195 247.967 70.3924 247.989 69.9888 247.881C69.5853 247.774 69.2257 247.542 68.9603 247.22C67.6156 245.634 65.8515 244.46 63.8702 243.83C60.1002 242.57 58.6501 241.44 58.0301 240.22C58.9344 240.11 59.8278 239.922 60.7003 239.66C60.9927 239.571 61.2565 239.407 61.4654 239.184C61.6743 238.961 61.8208 238.687 61.8902 238.39C61.9604 238.091 61.9505 237.78 61.8614 237.486C61.7723 237.193 61.6072 236.928 61.3829 236.719C61.1585 236.51 60.8828 236.364 60.5838 236.295C60.2848 236.227 59.9731 236.239 59.6802 236.33C56.7994 237.202 53.71 237.09 50.9002 236.01C50.5644 235.88 50.1965 235.857 49.8472 235.945C49.498 236.033 49.1846 236.227 48.9503 236.5C47.7237 237.891 46.0224 238.774 44.1793 238.977C42.3361 239.18 40.4836 238.689 38.9835 237.599C37.4834 236.509 36.4437 234.899 36.0677 233.083C35.6917 231.267 36.0064 229.376 36.9503 227.78C37.109 227.517 37.1953 227.218 37.2008 226.911C37.2062 226.604 37.1305 226.301 36.9813 226.033C36.832 225.765 36.6145 225.541 36.3509 225.385C36.0873 225.228 35.7868 225.143 35.48 225.14C35.1727 225.134 34.8692 225.209 34.6004 225.359C34.3317 225.508 34.1075 225.726 33.9503 225.99C33.5302 226.695 33.1946 227.447 32.9503 228.23C32.2885 228.195 31.6646 227.91 31.2044 227.433C30.7442 226.956 30.4817 226.323 30.47 225.66C30.4705 225.431 30.4257 225.205 30.3382 224.994C30.2507 224.783 30.1223 224.591 29.9603 224.43C29.7981 224.271 29.6058 224.145 29.3946 224.061C29.1834 223.977 28.9573 223.936 28.73 223.94C28.5002 223.941 28.2729 223.988 28.0611 224.077C27.8493 224.166 27.6572 224.296 27.4957 224.46C27.3341 224.623 27.2062 224.817 27.1195 225.029C27.0327 225.242 26.9887 225.47 26.9901 225.7C26.9962 227.19 27.5514 228.626 28.5494 229.733C29.5474 230.84 30.9185 231.54 32.4002 231.7C32.4001 232.283 32.4502 232.865 32.5501 233.44C30.6453 233.848 28.6653 233.724 26.826 233.083C24.9867 232.441 23.3588 231.307 22.1204 229.803C20.8821 228.3 20.0807 226.485 19.8038 224.557C19.5268 222.628 19.785 220.661 20.5501 218.87C20.9404 219.252 21.3732 219.587 21.8402 219.87C22.238 220.109 22.7143 220.179 23.1644 220.067C23.6145 219.954 24.0014 219.668 24.2401 219.27C24.4788 218.872 24.5498 218.396 24.4373 217.946C24.3248 217.496 24.038 217.109 23.6402 216.87L23.6002 216.93Z" fill="#888281"/>
<path d="M43.4796 220.27C43.1395 220.581 42.9362 221.015 42.9137 221.475C42.8912 221.936 43.0515 222.387 43.3597 222.73C44.8378 224.358 46.7896 225.481 48.9398 225.94C48.461 226.619 47.8256 227.172 47.0875 227.553C46.3495 227.935 45.5305 228.132 44.6998 228.13C44.2384 228.13 43.7957 228.313 43.4694 228.639C43.1431 228.966 42.9598 229.408 42.9598 229.87C42.9598 230.331 43.1431 230.774 43.4694 231.1C43.7957 231.426 44.2384 231.61 44.6998 231.61C46.4593 231.617 48.1788 231.087 49.6283 230.09C51.0778 229.092 52.1879 227.676 52.8097 226.03C54.9242 225.678 56.8809 224.69 58.4179 223.196C59.9548 221.701 60.9987 219.774 61.4098 217.67C61.4756 217.367 61.4583 217.052 61.3597 216.758C61.2612 216.464 61.0849 216.202 60.8497 216C60.6181 215.797 60.3366 215.659 60.0341 215.6C59.7315 215.541 59.419 215.564 59.1281 215.665C58.8372 215.767 58.5783 215.944 58.3783 216.179C58.1783 216.413 58.0442 216.697 57.9896 217C57.6452 218.796 56.6116 220.386 55.1097 221.43C53.7056 222.372 52.0116 222.784 50.3314 222.592C48.6512 222.4 47.0946 221.615 45.9398 220.38C45.7863 220.21 45.6007 220.073 45.3939 219.975C45.1871 219.877 44.963 219.821 44.7345 219.81C44.506 219.799 44.2777 219.833 44.0624 219.91C43.8471 219.987 43.6489 220.106 43.4796 220.26V220.27Z" fill="#888281"/>
<path d="M37.4102 218.38C37.639 218.381 37.8659 218.337 38.0776 218.25C38.2893 218.163 38.4815 218.035 38.6433 217.873C38.8051 217.711 38.9333 217.519 39.0203 217.307C39.1072 217.096 39.1515 216.869 39.1501 216.64C39.1528 215.439 39.6308 214.289 40.4797 213.44C41.3287 212.591 42.4796 212.113 43.6802 212.11C44.1417 212.11 44.5841 211.927 44.9104 211.6C45.2367 211.274 45.4202 210.831 45.4202 210.37C45.4202 209.908 45.2367 209.466 44.9104 209.14C44.5841 208.813 44.1417 208.63 43.6802 208.63C41.5584 208.63 39.5235 209.473 38.0232 210.973C36.5229 212.473 35.6802 214.508 35.6802 216.63C35.6802 217.091 35.8634 217.534 36.1897 217.86C36.516 218.187 36.9587 218.37 37.4202 218.37L37.4102 218.38Z" fill="#888281"/>
<path d="M14.0201 163.28C16.8534 163.28 19.1501 160.983 19.1501 158.15C19.1501 155.317 16.8534 153.02 14.0201 153.02C11.1869 153.02 8.89014 155.317 8.89014 158.15C8.89014 160.983 11.1869 163.28 14.0201 163.28Z" fill="#8DC63F"/>
<path d="M13.4801 127.89C16.3133 127.89 18.6101 125.593 18.6101 122.76C18.6101 119.927 16.3133 117.63 13.4801 117.63C10.6469 117.63 8.3501 119.927 8.3501 122.76C8.3501 125.593 10.6469 127.89 13.4801 127.89Z" fill="#8DC63F"/>
<path d="M84.0201 127.89C86.8534 127.89 89.1501 125.593 89.1501 122.76C89.1501 119.927 86.8534 117.63 84.0201 117.63C81.1869 117.63 78.8901 119.927 78.8901 122.76C78.8901 125.593 81.1869 127.89 84.0201 127.89Z" fill="#8DC63F"/>
<path d="M81.88 163.28C84.7132 163.28 87.01 160.983 87.01 158.15C87.01 155.317 84.7132 153.02 81.88 153.02C79.0468 153.02 76.75 155.317 76.75 158.15C76.75 160.983 79.0468 163.28 81.88 163.28Z" fill="#8DC63F"/>
<path d="M13.9797 156.83C13.7871 152.249 14.5232 147.676 16.1435 143.387C17.7639 139.097 20.235 135.18 23.4084 131.87C26.5818 128.561 30.3919 125.927 34.6093 124.128C38.8268 122.329 43.3648 121.402 47.9499 121.402C52.5351 121.402 57.0728 122.329 61.2903 124.128C65.5077 125.927 69.3178 128.561 72.4912 131.87C75.6646 135.18 78.1357 139.097 79.7561 143.387C81.3764 147.676 82.1125 152.249 81.9199 156.83" stroke="#8DC63F" stroke-width="2.95" stroke-miterlimit="10" stroke-linecap="round"/>
<path d="M14.52 122.86H82.86" stroke="#8DC63F" stroke-width="2.95" stroke-miterlimit="10" stroke-linecap="round"/>
<path d="M53.8999 117.11H42.6099V128.4H53.8999V117.11Z" fill="white" stroke="#8DC63F" stroke-width="2.95" stroke-miterlimit="10" stroke-linecap="round"/>
<path d="M424.05 26.21H394.34C390.927 26.2073 387.655 24.8505 385.242 22.4375C382.829 20.0245 381.472 16.7525 381.47 13.34V13.21C381.472 9.79652 382.829 6.52349 385.242 4.10889C387.654 1.69428 390.926 0.335373 394.34 0.330078H424.06C427.472 0.33801 430.743 1.69778 433.155 4.11182C435.567 6.52585 436.925 9.79733 436.93 13.21V13.34C436.925 16.7534 435.565 20.0254 433.151 22.4381C430.736 24.8508 427.463 26.2073 424.05 26.21ZM394.34 4.03003C391.907 4.03268 389.574 5.00099 387.855 6.72229C386.136 8.44359 385.17 10.777 385.17 13.21V13.34C385.173 15.7712 386.14 18.1022 387.859 19.8213C389.578 21.5404 391.909 22.5074 394.34 22.51H424.06C426.491 22.5074 428.822 21.5404 430.541 19.8213C432.26 18.1022 433.227 15.7712 433.23 13.34V13.21C433.23 10.777 432.264 8.44359 430.545 6.72229C428.825 5.00099 426.493 4.03268 424.06 4.03003H394.34Z" fill="#DAEAC1"/>
<path d="M424.73 193.8H398.85V197.5H424.73V193.8Z" fill="#DAEAC1"/>
<path d="M402.13 232.16L404.8 238.72L389.49 244.8L386.74 240.14L402.13 232.16Z" fill="white" stroke="#231F20" stroke-width="0.57" stroke-miterlimit="10"/>
<path d="M241.42 248.46L243.85 249.21L259.63 233.63L276.56 243.41L271.77 258.35L271.26 262.64C271.248 262.738 271.215 262.833 271.163 262.917C271.111 263.001 271.041 263.073 270.958 263.127C270.875 263.181 270.781 263.217 270.683 263.231C270.585 263.246 270.485 263.238 270.39 263.21L236.34 252.62C236.214 252.579 236.104 252.502 236.021 252.399C235.938 252.296 235.887 252.171 235.875 252.039C235.862 251.908 235.888 251.775 235.949 251.658C236.011 251.541 236.105 251.444 236.22 251.38L241.42 248.46Z" fill="#888281" stroke="#231F20" stroke-width="0.66" stroke-miterlimit="10"/>
<path d="M263.39 248.54L273.55 251.64" stroke="#8DC63F" stroke-width="0.67" stroke-miterlimit="10" stroke-linecap="round"/>
<path d="M271.63 258.36L250.43 251.77C249.989 251.642 249.57 251.447 249.19 251.19" stroke="#8DC63F" stroke-width="0.67" stroke-miterlimit="10" stroke-linecap="round"/>
<path d="M378.69 258.51L381.17 257.96L384.59 244.96L405 237.17C405.168 237.107 405.355 237.113 405.519 237.186C405.684 237.259 405.813 237.393 405.88 237.56L411.4 251.97L413.14 256.05C413.176 256.134 413.194 256.224 413.194 256.315C413.194 256.406 413.176 256.496 413.141 256.58C413.105 256.664 413.053 256.74 412.988 256.804C412.923 256.867 412.845 256.917 412.76 256.95L394.87 263.87C394.787 263.884 394.703 263.884 394.62 263.87H377.42C377.308 263.87 377.198 263.843 377.099 263.79C377 263.738 376.916 263.661 376.853 263.568C376.791 263.475 376.753 263.369 376.742 263.257C376.731 263.146 376.747 263.033 376.79 262.93L378.69 258.51Z" fill="#888281" stroke="#231F20" stroke-width="0.66" stroke-miterlimit="10"/>
<path d="M397.85 249.14L408.21 245.4" stroke="#8DC63F" stroke-width="0.67" stroke-miterlimit="10" stroke-linecap="round"/>
<path d="M410.48 251.32L390.35 259.53C389.905 259.636 389.446 259.673 388.99 259.64" stroke="#8DC63F" stroke-width="0.67" stroke-miterlimit="10" stroke-linecap="round"/>
<path d="M382.34 187.59C377.72 175.59 376.17 137.37 376.17 137.37L333.77 135.95L316.4 130.18L311.84 133.89L249.17 234.67L279.65 245.33L335.31 173.81C339.241 184.628 343.846 195.189 349.1 205.43C359.46 225 377.81 249.55 377.81 249.55L409.17 232.3C409.17 232.3 386.98 199.59 382.34 187.59Z" fill="#C4DF9B" stroke="#231F20" stroke-width="0.66" stroke-miterlimit="10"/>
<path d="M310.21 59.04C329.93 62.21 339.6 62.81 351.84 62.76C357.74 62.76 366.2 62.3 374.84 63.98C379.3 64.84 385.2 66.0401 391.32 70.3301C395.472 73.0618 398.903 76.7566 401.32 81.1C404.6 87.26 404.6 93.15 404.32 99.23C403.32 122.41 402.87 134 398.99 136.34C392.52 140.27 368.15 128.5 310.21 59.04Z" fill="#CFD2D3" stroke="#231F20" stroke-width="0.66" stroke-miterlimit="10"/>
<path d="M379.87 65.3601L380.55 62.1802C379.71 61.7262 378.98 61.0931 378.411 60.3259C377.843 59.5587 377.45 58.676 377.26 57.7401C377.07 56.8301 377.68 54.4302 378.45 51.9502C379.11 49.8402 379.89 47.6702 380.4 46.3102L380.45 46.1602L380.55 45.9102V45.8202C380.55 45.7302 380.62 45.6402 380.65 45.5602V45.4502L380.71 45.3002V45.2401V45.1501V45.0901V45.0302V44.9502H380.78C381.016 44.9794 381.25 45.0228 381.48 45.0802L381.8 45.1501H381.92L382.2 45.2201H382.33L382.73 45.3302L383.18 45.4701H383.31L383.66 45.6001L383.8 45.6602L384.27 45.8601L384.73 46.1001L384.87 46.1702L385.2 46.3701L385.34 46.4601L385.76 46.7601C385.89 46.8701 386.02 46.9801 386.14 47.1001L386.25 47.2002L386.51 47.4801L386.6 47.6001C386.708 47.732 386.805 47.8725 386.89 48.0201C386.914 48.4768 386.988 48.9295 387.11 49.3701C387.181 49.6442 387.274 49.9119 387.39 50.1702L387.57 50.5402C387.756 50.8947 387.977 51.2297 388.23 51.5402C388.804 52.2167 389.499 52.7798 390.28 53.2002C390.376 53.1085 390.48 53.0249 390.59 52.9502L390.76 52.8501L390.99 52.7401H391.08H391.19L391.51 52.6401H391.65C391.813 52.6298 391.977 52.6298 392.14 52.6401H392.3H392.68H392.82C392.99 52.6401 393.17 52.7202 393.35 52.7802C393.513 52.8391 393.67 52.9127 393.82 53.0001L394.03 53.1301L394.13 53.2002C394.614 53.5445 394.988 54.0198 395.21 54.5702C395.206 54.6067 395.206 54.6436 395.21 54.6802C395.395 55.2112 395.395 55.7892 395.21 56.3202C395.069 56.6815 394.847 57.0055 394.561 57.2673C394.275 57.5292 393.933 57.7218 393.56 57.8302C393.383 59.1612 393.085 60.4732 392.67 61.7501L392.31 62.7501C392.584 62.8499 392.87 62.9105 393.16 62.9302L390.56 69.6902C390.511 69.83 390.516 69.983 390.573 70.1196C390.631 70.2562 390.736 70.3668 390.87 70.4302L389.87 70.5901C389.414 70.6601 388.946 70.5904 388.53 70.3901L380.88 67.2301C380.63 67.1261 380.403 66.9723 380.214 66.7781C380.025 66.5838 379.877 66.3532 379.78 66.1001L379.87 65.3601Z" fill="#F2F1F2" stroke="#231F20" stroke-width="0.66" stroke-miterlimit="10"/>
<path d="M384.86 36.6698C387.27 38.8398 393.06 40.8898 393.06 40.8898C402.3 44.3098 401.14 50.3498 399.42 54.4198L397.42 58.5398L396.72 60.1398C396.16 61.6398 394.72 63.4797 392.72 62.7097L393.08 61.7097C393.495 60.4328 393.793 59.1208 393.97 57.7898C394.342 57.6814 394.685 57.4889 394.971 57.2271C395.257 56.9652 395.479 56.6411 395.62 56.2798C395.801 55.7099 395.79 55.0964 395.59 54.5331C395.389 53.9698 395.01 53.4875 394.51 53.1598L394.41 53.0897L394.2 52.9597C394.05 52.8723 393.893 52.7987 393.73 52.7398C393.55 52.6798 393.37 52.6397 393.2 52.5997H393.04H392.66H392.5C392.337 52.5894 392.173 52.5894 392.01 52.5997H391.87L391.55 52.6998L391.35 52.7798L391.12 52.8898L390.92 53.0098C390.808 53.082 390.704 53.1658 390.61 53.2598C389.638 52.7782 388.811 52.0463 388.215 51.1394C387.619 50.2325 387.276 49.1834 387.22 48.0997C386.09 46.1597 383.16 45.3198 381.75 45.0298C381.28 44.9298 380.98 44.8898 380.98 44.8898V44.9498V45.0298V45.1398V45.2297L380.92 45.3898V45.4998C380.92 45.5798 380.85 45.6698 380.82 45.7598V45.8497L380.72 46.0997L380.67 46.2498C380.16 47.6098 379.38 49.7798 378.72 51.8898L378.18 51.0298C377.991 50.7369 377.863 50.4085 377.804 50.0647C377.746 49.7209 377.758 49.3688 377.84 49.0298L379.06 43.9597C375.22 40.5397 380.27 32.5698 384.86 36.6698Z" fill="#231F20"/>
<path d="M379.87 65.3599L377.87 69.4299C377.854 69.465 377.848 69.5035 377.852 69.5417C377.855 69.58 377.869 69.6167 377.891 69.6481C377.913 69.6794 377.943 69.7045 377.978 69.7206C378.013 69.7367 378.052 69.7433 378.09 69.7399L383.39 69.2699C383.496 69.2603 383.602 69.2752 383.701 69.3134C383.8 69.3515 383.889 69.4119 383.96 69.4899L388.96 74.8899C388.984 74.9162 389.014 74.9361 389.047 74.9478C389.081 74.9594 389.117 74.9623 389.152 74.9563C389.187 74.9503 389.219 74.9357 389.247 74.9136C389.275 74.8915 389.297 74.8627 389.31 74.83L391.31 70.3899" fill="#8DC63F"/>
<path d="M283.58 46.5898L266.58 48.4099L221.58 57.5099L244.5 95.4399L254.33 108.8C254.33 108.87 296.83 128.1 296.83 128.1L325.58 66.0999L283.58 46.5898Z" fill="white" stroke="#8DC63F" stroke-width="0.66" stroke-miterlimit="10" stroke-linecap="round"/>
<path d="M397.64 106.74L375.64 154.3C373.73 158.44 374.64 162.92 377.64 164.3L404.5 176.75C407.5 178.14 411.5 175.92 413.41 171.75L435.41 124.19C437.33 120.05 436.41 115.56 433.41 114.19L406.55 101.74C403.55 100.37 399.56 102.59 397.64 106.74Z" fill="#8DC63F" stroke="#231F20" stroke-width="0.66" stroke-miterlimit="10"/>
<path d="M284.74 47.27C288.3 48.92 289.37 54.2101 287.11 59.0701C284.85 63.9301 275.78 64.43 275.43 64.15C280.72 66.91 278.54 76.15 276.12 81.35C273.7 86.55 268.34 93.75 262.97 91.87C266.28 93.68 267.22 98.75 265.04 103.46C263.17 107.46 259.6 109.96 256.41 109.74C256.397 109.737 256.383 109.736 256.37 109.738C256.356 109.74 256.343 109.745 256.332 109.752C256.32 109.759 256.31 109.768 256.302 109.779C256.294 109.79 256.288 109.802 256.285 109.815C256.282 109.828 256.281 109.842 256.283 109.855C256.285 109.869 256.289 109.881 256.296 109.893C256.303 109.905 256.313 109.915 256.323 109.923C256.334 109.931 256.347 109.937 256.36 109.94L378.22 164.59L407.22 102.04L284.74 47.27Z" fill="#8DC63F" stroke="#231F20" stroke-width="0.66" stroke-miterlimit="10" stroke-linecap="round"/>
<path d="M242.22 53.2402L221.56 57.5102L232.1 75.0802L242.22 53.2402Z" fill="#8DC63F"/>
<path d="M390.04 170.09L419.01 107.54L406.11 101.55L377.12 164.1L390.04 170.09Z" fill="#CFD2D3" stroke="#231F20" stroke-width="0.66" stroke-miterlimit="10"/>
<path d="M390.04 170.09L419.01 107.54L406.11 101.55L377.12 164.1L390.04 170.09Z" stroke="#231F20" stroke-width="0.56" stroke-miterlimit="10"/>
<path d="M288.88 114.89C288.88 114.89 286.8 114.03 285.54 113.34C283.36 112.16 281.97 110.34 281.11 110.11C279.7 109.82 279.29 111.27 279.18 111.84C279.097 112.228 279.103 112.63 279.196 113.016C279.29 113.402 279.468 113.762 279.72 114.07C280.218 114.769 280.759 115.437 281.34 116.07C281.219 116.113 281.102 116.166 280.99 116.23C279.05 117.23 277.68 118.12 277.71 119.23C277.902 120.492 278.532 121.646 279.49 122.49C279.459 122.938 279.533 123.388 279.707 123.803C279.881 124.218 280.149 124.587 280.49 124.88C280.292 125.227 280.192 125.621 280.2 126.02C280.35 126.95 282.34 128.09 282.34 128.09C282.38 128.189 282.427 128.286 282.48 128.38C282.763 128.907 283.173 129.355 283.672 129.685C284.171 130.015 284.744 130.216 285.34 130.27C285.85 130.27 286.23 129.66 286.23 129.66V129.61C287.968 130.599 289.831 131.349 291.77 131.84C293.385 132.205 294.969 132.693 296.51 133.3L300.57 120.51C298.05 119 291.98 115.7 288.88 114.89Z" fill="#F2F1F2"/>
<path d="M279.49 122.53C278.532 121.686 277.902 120.532 277.71 119.27C277.71 118.12 279.05 117.27 280.99 116.27C282.93 115.27 286.36 115.82 286.36 115.82" stroke="#231F20" stroke-width="0.66" stroke-miterlimit="10" stroke-linecap="round"/>
<path d="M281.63 118.6C280.747 119.811 280.028 121.132 279.49 122.53C279.459 122.979 279.533 123.429 279.707 123.844C279.881 124.258 280.149 124.627 280.49 124.92" stroke="#231F20" stroke-width="0.66" stroke-miterlimit="10" stroke-linecap="round"/>
<path d="M281.92 122.51C281.92 122.51 280.03 125.12 280.18 126.06C280.33 127 282.32 128.13 282.32 128.13" stroke="#231F20" stroke-width="0.66" stroke-miterlimit="10" stroke-linecap="round"/>
<path d="M283.16 125.46C283.16 125.46 281.57 126.81 282.46 128.46C282.755 128.975 283.172 129.409 283.674 129.724C284.176 130.04 284.748 130.227 285.34 130.27C285.85 130.27 286.23 129.66 286.23 129.66" stroke="#231F20" stroke-width="0.66" stroke-miterlimit="10" stroke-linecap="round"/>
<path d="M300.61 120.53C298.05 119 291.98 115.7 288.88 114.89C288.88 114.89 286.8 114.03 285.54 113.34C283.36 112.16 281.97 110.34 281.11 110.11C279.7 109.82 279.29 111.27 279.18 111.84C279.097 112.228 279.103 112.63 279.196 113.016C279.289 113.402 279.468 113.762 279.72 114.07C280.218 114.769 280.759 115.437 281.34 116.07" stroke="#231F20" stroke-width="0.66" stroke-miterlimit="10" stroke-linecap="round"/>
<path d="M284.24 128.37C286.544 129.96 289.105 131.141 291.81 131.86C293.425 132.226 295.009 132.714 296.55 133.32" stroke="#231F20" stroke-width="0.66" stroke-miterlimit="10" stroke-linecap="round"/>
<path d="M403.34 96.6898L397.6 81.8497L377.16 79.7798C375.908 86.6552 373.453 93.2561 369.91 99.2798C369.72 99.6098 369.49 99.9697 369.25 100.35L369.11 100.56C368.87 100.93 368.62 101.32 368.34 101.72L368.18 101.95L367.3 103.21L367.24 103.29C366.92 103.75 366.57 104.22 366.24 104.7L366.04 104.97C365.69 105.45 365.32 105.97 364.94 106.44L364.81 106.62C364.43 107.13 364.04 107.62 363.64 108.15L363.58 108.23L362.32 109.86L362.16 110.06L360.87 111.71C357.19 116.35 353.47 120.84 351.54 123.16C351.106 123.675 350.572 124.098 349.971 124.402C349.369 124.706 348.713 124.886 348.04 124.93C344.39 125.16 336.49 125.56 327.57 125.48C317.21 125.38 306.43 122.19 301.57 120.68C301.187 120.569 300.776 120.612 300.423 120.798C300.071 120.985 299.804 121.301 299.68 121.68L295.33 131.96C295.213 132.294 295.214 132.659 295.334 132.992C295.455 133.326 295.686 133.607 295.99 133.79C300.87 136.71 316.63 145.89 327.57 147.58C340.07 149.5 348.57 148.86 361.17 144.48C370.74 141.14 377.75 135.41 384.17 128.43L384.67 127.89L386 126.4C386.19 126.19 386.38 125.98 386.56 125.76C387 125.26 387.43 124.76 387.87 124.24L388.37 123.66C388.95 122.97 389.54 122.26 390.12 121.55C390.76 120.78 391.37 119.98 391.96 119.16L392.32 118.67C392.89 117.87 393.44 117.07 393.98 116.24L394.27 115.78C394.77 114.99 395.27 114.2 395.73 113.39L395.9 113.1C396.4 112.24 396.9 111.37 397.34 110.5L397.64 109.92C398.09 109.05 398.53 108.19 398.95 107.32L399.13 106.93C399.51 106.14 399.88 105.34 400.23 104.55C400.3 104.39 400.37 104.22 400.45 104.06C400.82 103.22 401.17 102.38 401.51 101.56C401.6 101.35 401.68 101.14 401.76 100.94C402.09 100.11 402.42 99.2998 402.76 98.5098C402.76 98.5098 402.76 98.5098 402.76 98.4498C402.92 97.8198 403.13 97.2698 403.34 96.6898Z" fill="#CFD2D3"/>
<path d="M375.93 85.1099C374.536 90.0673 372.52 94.8284 369.93 99.2799C369.74 99.6099 369.51 99.9699 369.27 100.35L369.13 100.56C368.89 100.93 368.64 101.32 368.36 101.72L368.2 101.95L367.32 103.21L367.26 103.29C366.94 103.75 366.59 104.22 366.26 104.7L366.06 104.97C365.71 105.45 365.34 105.97 364.96 106.44L364.83 106.62C364.45 107.13 364.06 107.62 363.66 108.15L363.6 108.23L362.34 109.86L362.18 110.06L360.89 111.71C357.21 116.35 353.49 120.84 351.56 123.16C351.126 123.676 350.592 124.098 349.991 124.402C349.389 124.707 348.733 124.886 348.06 124.93C344.41 125.16 336.51 125.56 327.59 125.48C317.23 125.38 306.45 122.19 301.59 120.68C301.207 120.569 300.796 120.612 300.443 120.798C300.091 120.985 299.824 121.301 299.7 121.68L295.35 131.96C295.233 132.294 295.234 132.659 295.354 132.992C295.475 133.326 295.706 133.607 296.01 133.79C300.89 136.71 316.65 145.89 327.59 147.58C340.09 149.5 348.59 148.86 361.19 144.48C370.76 141.14 377.77 135.41 384.19 128.43L384.69 127.89L386.02 126.4C386.21 126.19 386.4 125.98 386.58 125.76C387.02 125.26 387.45 124.76 387.89 124.24L388.39 123.66C388.97 122.97 389.56 122.26 390.14 121.55C390.78 120.78 391.39 119.98 391.98 119.16L392.34 118.67C392.91 117.87 393.46 117.07 394 116.24L394.29 115.78C394.79 114.99 395.29 114.2 395.75 113.39L395.92 113.1C396.42 112.24 396.92 111.37 397.36 110.5L397.66 109.92C398.11 109.05 398.55 108.19 398.97 107.32L399.15 106.93C399.53 106.14 399.9 105.34 400.25 104.55C400.32 104.39 400.39 104.22 400.47 104.06C400.84 103.22 401.19 102.38 401.53 101.56C401.62 101.35 401.7 101.14 401.78 100.94L402.35 99.4799L402.76 98.4799" stroke="#231F20" stroke-width="0.66" stroke-miterlimit="10" stroke-linecap="round"/>
<path d="M336.34 176.57C336.34 176.57 331.85 164.42 330.13 159.18C328.41 153.94 328.36 153.63 328.36 153.63" fill="white"/>
<path d="M336.34 176.57C336.34 176.57 331.85 164.42 330.13 159.18C328.41 153.94 328.36 153.63 328.36 153.63" stroke="#231F20" stroke-width="0.66" stroke-miterlimit="10"/>
<path d="M349.74 29.8101H344.7V47.4201H349.74V29.8101Z" fill="#DAEAC1"/>
<path d="M356.02 36.0898H338.41V41.1298H356.02V36.0898Z" fill="#DAEAC1"/>
</g>
<defs>
<clipPath id="clip0">
<rect width="436.92" height="264.19" fill="white"/>
</clipPath>
</defs>
</svg>
