<svg width="713" height="287" viewBox="0 0 713 287" fill="none" xmlns="http://www.w3.org/2000/svg">
<path d="M606.486 16.6387C498.624 6.99865 450.359 29.2227 354.726 15.8077C259.973 2.52036 231.046 -45.229 207.267 -61.7656C171.808 -86.392 143.168 -123.485 94.2757 -124.277C81.4016 -124.427 32.5916 -128.505 11.3957 -91.9951C-2.96135 -67.1441 0.128022 -49.7782 1.17624 -20.0075C2.26705 12.405 34.6961 49.7476 51.3421 75.5187C77.4442 115.942 100.18 158.222 136.518 190.274C178.829 217.182 234.493 247.04 340.893 249.737C436.493 252.161 482.925 300.948 590.15 282.158C695.916 263.6 733.469 152.14 702.214 84.8028C687.791 53.7018 651.901 20.7062 606.486 16.6387Z" fill="url(#paint0_linear)"/>
<defs>
<linearGradient id="paint0_linear" x1="530.828" y1="257.812" x2="163.416" y2="-89.8547" gradientUnits="userSpaceOnUse">
<stop stop-color="#8DC63F"/>
<stop offset="0.708333" stop-color="#00A651"/>
<stop offset="1" stop-color="#8DC63F"/>
</linearGradient>
</defs>
</svg>
