<svg width="15" height="12" viewBox="0 0 15 12" fill="none" xmlns="http://www.w3.org/2000/svg">
<path d="M14.5992 11.7202H12.0072C11.7849 11.7202 11.6081 11.6785 11.4767 11.5951C11.3554 11.5041 11.2544 11.4056 11.1735 11.2994L7.30827 6.78468C7.26785 6.89082 7.22238 6.99696 7.17185 7.1031C7.13143 7.20166 7.0708 7.29263 6.98995 7.37603L3.41269 11.2994C3.31164 11.4056 3.20048 11.5041 3.07922 11.5951C2.96806 11.6785 2.81143 11.7202 2.60932 11.7202H0.199219L5.58027 5.80667L0.411429 0.200195H3.00343C3.22574 0.200195 3.38743 0.22673 3.48848 0.2798C3.58953 0.33287 3.68048 0.408684 3.76132 0.507243L7.53564 4.82867C7.61648 4.6088 7.7428 4.39652 7.91459 4.19182L11.219 0.552731C11.31 0.446591 11.406 0.363196 11.507 0.302544C11.6182 0.234312 11.7495 0.200195 11.9011 0.200195H14.387L9.21817 5.70432L14.5992 11.7202Z" fill="#0B1836"/>
</svg>
