<svg width="165" height="45" viewBox="0 0 165 45" fill="none" xmlns="http://www.w3.org/2000/svg">
<path d="M16.5428 21.6927L13.7901 8.57437L10.8661 21.6927H5.41327L0 0.362244H5.33424L8.89043 15.3904L12.0712 0.362244H17.0696L20.3163 15.3904L23.8593 0.362244H27.4616L22.0614 21.6927H16.5428Z" fill="#8DC63F"/>
<path d="M29.4438 21.6927V0.362244H34.1656V21.6927H29.4438Z" fill="#8DC63F"/>
<path d="M42.4766 21.6927V4.75478H36.082V0.362244H53.7443V4.75478H47.4157V21.6927H42.4766Z" fill="#8DC63F"/>
<path d="M70.8864 21.6927V18.6897C70.0961 20.2636 67.7912 22.0812 64.1296 22.0812C58.8612 22.0812 54.4621 17.9916 54.4621 11.0241C54.4621 4.30034 58.7954 0 64.3404 0C70.2146 0 73.7576 3.39154 74.2186 8.96287H69.4639C69.1609 5.84793 67.3104 4.35302 64.4326 4.35302C60.7974 4.35302 59.1642 7.11235 59.1642 11.0176C59.1642 15.4101 61.6469 17.6557 64.314 17.6557C67.1326 17.6557 68.8251 16.2596 69.2795 13.5925H64.0111V10.7278H74.436V21.7256L70.8864 21.6927Z" fill="#00AEEF"/>
<path d="M90.8405 21.6927L86.3558 14.6791H82.2991V21.6927H77.6037V0.362244H87.4161C91.9337 0.362244 94.7787 2.39058 94.7787 7.6063C94.7787 10.9978 93.0203 12.934 90.9064 13.8164L96.2341 21.719L90.8405 21.6927ZM86.8431 10.9978C88.8188 10.9978 89.991 10.089 89.991 7.84338C89.991 5.59772 88.8451 4.75478 86.876 4.75478H82.2991V10.9978H86.8431Z" fill="#00AEEF"/>
<path d="M98.0252 21.6927V0.362244H102.754V21.6927H98.0252Z" fill="#00AEEF"/>
<path d="M111.058 21.6927V4.75478H104.67V0.362244H122.332V4.75478H115.997V21.6927H111.058Z" fill="#00AEEF"/>
<path d="M124.275 21.6927V0.362244H137.123V4.75478H128.971V9.26585H137.031V12.901H128.971V21.6927H124.275Z" fill="#EF60A2"/>
<path d="M139.791 21.6927V0.362244H144.552V21.6927H139.791Z" fill="#EF60A2"/>
<path d="M152.823 21.6927V4.75478H146.435V0.362244H164.098V4.75478H157.762V21.6927H152.823Z" fill="#EF60A2"/>
<path d="M69.2137 43.5302H66.9351L65.9473 41.3899H60.7513L59.7437 43.5302H57.4717L62.5294 32.8156H64.1494L69.2137 43.5302ZM65.1307 39.6579L63.346 35.8054L61.5745 39.6579H65.1307Z" fill="#888281"/>
<path d="M80.1126 38.1762C80.1173 38.8871 79.99 39.5927 79.7373 40.2572C79.4982 40.8844 79.143 41.4608 78.6902 41.9563C78.2399 42.4444 77.6955 42.8364 77.0899 43.1087C76.4523 43.3946 75.7602 43.5384 75.0615 43.5302H70.59V32.8156H75.0615C75.7607 32.8097 76.4527 32.9558 77.0899 33.2437C77.6952 33.52 78.2409 33.9114 78.6967 34.3961C79.1508 34.8906 79.5063 35.4673 79.7439 36.0952C79.9943 36.7601 80.1194 37.4657 80.1126 38.1762ZM78.0053 38.1169C78.0176 37.6353 77.9417 37.1554 77.7814 36.7011C77.6265 36.2689 77.3895 35.8709 77.0833 35.5288C76.7717 35.1875 76.3897 34.9179 75.9637 34.7386C75.4929 34.5403 74.9862 34.4416 74.4755 34.4488H72.6644V41.7653H74.4755C74.9765 41.7728 75.4738 41.6788 75.9374 41.4887C76.3558 41.3146 76.7327 41.0543 77.0438 40.7248C77.3516 40.3903 77.591 39.9988 77.7484 39.5723C77.9286 39.1077 78.0267 38.6152 78.0382 38.1169H78.0053Z" fill="#888281"/>
<path d="M90.228 32.8156L86.1713 43.5302H84.2681L80.1192 32.8156H82.4241L85.2098 40.3625L87.956 32.8353L90.228 32.8156Z" fill="#888281"/>
<path d="M98.4533 43.5302H91.3739V32.8287H98.4533V34.5476H93.422V37.1027H98.3875V38.7754H93.422V41.7192H98.4533V43.5302Z" fill="#888281"/>
<path d="M109.26 43.5302H107.225L102.405 36.0161V43.5302H100.363V32.8156H102.694L107.238 39.8094V32.8156H109.273L109.26 43.5302Z" fill="#888281"/>
<path d="M118.638 34.6793H115.681V43.5302H113.6V34.6793H110.636V32.8287H118.658L118.638 34.6793Z" fill="#888281"/>
<path d="M129.524 32.8156V38.6306C129.525 39.3023 129.416 39.9697 129.201 40.6062C128.996 41.1979 128.681 41.7454 128.272 42.2197C127.86 42.6825 127.352 43.0508 126.784 43.2997C125.517 43.8123 124.1 43.8123 122.833 43.2997C122.262 43.0542 121.749 42.6932 121.325 42.2394C120.904 41.7763 120.58 41.2347 120.37 40.6457C120.142 40.0121 120.029 39.3433 120.034 38.6701V32.8156H122.108V38.7096C122.106 39.1029 122.166 39.4941 122.286 39.8686C122.391 40.2131 122.563 40.5333 122.793 40.8104C123.019 41.0901 123.305 41.3152 123.63 41.4689C123.991 41.6267 124.382 41.7053 124.776 41.6994C125.181 41.7085 125.585 41.6346 125.961 41.4821C126.282 41.343 126.566 41.131 126.791 40.863C127.014 40.5885 127.182 40.2731 127.285 39.9345C127.399 39.5521 127.454 39.1547 127.449 38.7557V32.8287L129.524 32.8156Z" fill="#888281"/>
<path d="M139.626 43.5302H137.341L136.577 41.0935C136.504 40.837 136.402 40.5896 136.274 40.3559C136.163 40.1416 136.016 39.9479 135.839 39.783C135.668 39.6146 135.461 39.4864 135.233 39.4076C134.966 39.3099 134.682 39.263 134.397 39.2693H133.627V43.5302H131.578V32.8287H135.8C136.235 32.8253 136.666 32.9058 137.071 33.0658C137.449 33.2167 137.793 33.4404 138.085 33.7243C138.375 34.012 138.605 34.3547 138.761 34.7324C138.917 35.1102 138.996 35.5152 138.994 35.9239C138.995 36.2327 138.946 36.5396 138.849 36.8327C138.752 37.1241 138.612 37.3993 138.434 37.6493C138.248 37.8999 138.026 38.1218 137.775 38.3079C137.534 38.497 137.262 38.644 136.972 38.7425C137.287 38.8519 137.569 39.0374 137.795 39.2825C138.016 39.5311 138.188 39.8194 138.302 40.132C138.368 40.2901 138.421 40.4416 138.473 40.593L138.645 41.0672C138.697 41.2318 138.763 41.4096 138.829 41.6006L139.046 42.2592C139.145 42.5489 139.237 42.8058 139.323 43.0165C139.411 43.1951 139.512 43.3668 139.626 43.5302ZM136.919 36.0424C136.92 35.8157 136.873 35.5913 136.781 35.3839C136.689 35.1816 136.559 34.9984 136.399 34.8439C136.232 34.6908 136.038 34.5702 135.826 34.4883C135.601 34.4025 135.362 34.3601 135.121 34.3631H133.627V37.6954H135.121C135.361 37.6995 135.6 37.6616 135.826 37.5835C136.034 37.5158 136.227 37.4061 136.391 37.2611C136.555 37.1161 136.688 36.9389 136.781 36.7405C136.878 36.5209 136.925 36.2825 136.919 36.0424Z" fill="#888281"/>
<path d="M148.174 43.5302H141.101V32.8287H148.174V34.5476H143.136V37.1027H148.108V38.7754H143.136V41.7192H148.174V43.5302Z" fill="#888281"/>
<path d="M157.124 40.7182C157.126 41.1154 157.036 41.5077 156.86 41.8641C156.686 42.228 156.439 42.5529 156.136 42.819C155.807 43.1026 155.43 43.3256 155.023 43.4775C154.568 43.6454 154.085 43.728 153.6 43.7212C153.182 43.7241 152.764 43.6977 152.349 43.6422C151.649 43.549 150.976 43.3113 150.373 42.9441C150.052 42.7425 149.742 42.5226 149.445 42.2856L150.92 40.7972C151.291 41.1224 151.717 41.3788 152.178 41.5546C152.601 41.7034 153.046 41.7792 153.495 41.7785C153.683 41.779 153.87 41.7478 154.048 41.6863C154.214 41.6378 154.37 41.5597 154.509 41.4558C154.632 41.3607 154.735 41.2421 154.812 41.1068C154.891 40.9733 154.932 40.8207 154.931 40.6655C154.934 40.5084 154.9 40.3527 154.832 40.2111C154.756 40.0563 154.643 39.9228 154.502 39.8226C154.298 39.6708 154.077 39.5427 153.844 39.4406C153.554 39.3089 153.185 39.164 152.744 39.006C152.357 38.8641 151.979 38.6992 151.611 38.5121C151.264 38.3421 150.944 38.1201 150.663 37.8535C150.392 37.5916 150.169 37.2839 150.005 36.9447C149.833 36.5551 149.75 36.1323 149.761 35.7067C149.755 35.2812 149.843 34.8597 150.02 34.4725C150.196 34.0853 150.457 33.7421 150.782 33.4676C151.108 33.1796 151.485 32.9562 151.895 32.809C152.335 32.6559 152.798 32.5801 153.264 32.5851C153.971 32.5669 154.676 32.6739 155.345 32.9012C155.901 33.1131 156.409 33.4332 156.84 33.843L155.398 35.2983C155.137 35.046 154.831 34.845 154.496 34.7057C154.127 34.5591 153.733 34.4874 153.337 34.4949C153.141 34.4929 152.947 34.5264 152.764 34.5937C152.602 34.6494 152.451 34.7317 152.316 34.8374C152.194 34.9389 152.091 35.0616 152.013 35.1996C151.941 35.3331 151.902 35.4824 151.901 35.6342C151.898 35.7942 151.934 35.9526 152.007 36.0952C152.095 36.2551 152.219 36.3925 152.369 36.4969C152.572 36.6516 152.793 36.782 153.027 36.8855C153.31 37.0172 153.686 37.1555 154.074 37.3069C154.554 37.4695 155.017 37.6767 155.457 37.926C155.806 38.1207 156.122 38.3696 156.392 38.6635C156.631 38.9249 156.815 39.2318 156.933 39.5658C157.059 39.9368 157.124 40.3262 157.124 40.7182Z" fill="#888281"/>
<path d="M41.8707 43.8529C41.6902 43.9729 41.4783 44.037 41.2615 44.037C41.0447 44.037 40.8328 43.9729 40.6523 43.8529C40.4558 43.6053 40.3367 43.3052 40.3099 42.9902C40.2047 42.4141 40.1452 41.8305 40.1321 41.245C40.1321 40.5338 40.0926 39.5064 40.0926 38.1564C40.0926 36.8064 40.0926 35.7856 40.1321 35.081C40.1455 34.4977 40.205 33.9164 40.3099 33.3424C40.3382 33.0278 40.4571 32.7281 40.6523 32.4797C40.8328 32.3596 41.0447 32.2956 41.2615 32.2956C41.4783 32.2956 41.6902 32.3596 41.8707 32.4797C42.0633 32.7296 42.1819 33.0285 42.2131 33.3424C42.318 33.9164 42.3774 34.4977 42.3909 35.081C42.3909 35.7856 42.4304 36.813 42.4304 38.1564C42.4304 39.4999 42.4304 40.5338 42.3909 41.245C42.3778 41.8305 42.3183 42.4141 42.2131 42.9902C42.1833 43.3045 42.0645 43.6037 41.8707 43.8529Z" fill="#888281"/>
<path d="M31.6894 36.4772C32.1773 37.9036 32.749 39.3 33.4016 40.659C33.4543 40.659 34.0316 39.265 35.1336 36.4772C35.6275 35.2259 36.0161 34.3237 36.3059 33.7705C36.4971 33.3419 36.7674 32.9531 37.1027 32.6246C37.3696 32.4069 37.7069 32.2945 38.051 32.3085C38.1562 32.2966 38.2627 32.3069 38.3636 32.3386C38.4646 32.3704 38.5577 32.4229 38.6371 32.4929C38.7381 32.6159 38.7381 32.9056 38.6371 33.3622C38.5115 33.9543 38.3398 34.5356 38.1235 35.1008C37.8666 35.8054 37.4649 36.8262 36.9381 38.1762C36.2334 39.9345 35.6934 41.2121 35.3246 41.9958C35.0771 42.5767 34.749 43.1199 34.3499 43.6093C34.2337 43.7432 34.0901 43.8506 33.9288 43.9242C33.7674 43.9979 33.5921 44.036 33.4148 44.036C33.2375 44.036 33.0622 43.9979 32.9009 43.9242C32.7395 43.8506 32.5959 43.7432 32.4797 43.6093C32.0809 43.1209 31.7548 42.5775 31.5116 41.9958C31.1362 41.2121 30.5962 39.9345 29.8916 38.1762C29.3472 36.8196 28.9454 35.7901 28.6864 35.0876C28.4712 34.5271 28.3016 33.9501 28.1793 33.3622C28.0915 32.9232 28.0915 32.6334 28.1793 32.4929C28.2587 32.4229 28.3519 32.3704 28.4528 32.3386C28.5538 32.3069 28.6603 32.2966 28.7654 32.3085C29.0292 32.3075 29.2888 32.3741 29.5194 32.5021C29.75 32.6301 29.9439 32.8152 30.0825 33.0395C30.72 34.135 31.2578 35.2855 31.6894 36.4772Z" fill="#888281"/>
<path d="M38.6371 32.4929C38.5578 32.4229 38.4646 32.3704 38.3637 32.3386C38.2627 32.3069 38.1562 32.2966 38.0511 32.3085C37.707 32.2945 37.3696 32.4069 37.1028 32.6246C36.7668 32.9551 36.4964 33.3461 36.3059 33.7771C36.0161 34.3303 35.6473 35.2325 35.1337 36.4837C34.0317 39.2672 33.4543 40.6611 33.4017 40.6655C33.4017 40.6655 33.5598 41.0409 33.7705 41.5217C33.9904 42.0176 34.1069 42.5531 34.1129 43.0956C34.1233 43.3658 34.0395 43.6312 33.8758 43.8463C33.8093 43.9206 33.7287 43.9811 33.6388 44.0241C33.9204 43.9712 34.177 43.8278 34.3698 43.6158C34.7688 43.1265 35.0969 42.5833 35.3444 42.0024C35.7132 41.2187 36.2532 39.9411 36.9579 38.1828C37.4913 36.8328 37.8864 35.812 38.1432 35.1074C38.3596 34.5421 38.5314 33.9608 38.6569 33.3688C38.7447 32.9122 38.7381 32.6202 38.6371 32.4929Z" fill="#888281"/>
<path d="M21.7388 42.4041C21.5638 42.4581 21.4043 42.5532 21.2737 42.6816C21.1431 42.8099 21.0451 42.9676 20.988 43.1416C20.9019 43.437 20.7215 43.696 20.4744 43.8792C20.126 44.0116 19.7527 44.0656 19.3812 44.0373C19.277 44.0508 19.171 44.0413 19.0709 44.0095C18.9708 43.9776 18.8788 43.9241 18.8016 43.8529C18.6963 43.7343 18.6897 43.4446 18.8016 42.9902C18.921 42.3966 19.0929 41.8147 19.3153 41.2516C19.5722 40.5469 19.9739 39.5196 20.5073 38.1762C21.2097 36.42 21.7454 35.1468 22.1142 34.3566C22.3566 33.7759 22.6803 33.2327 23.0756 32.7431C23.1965 32.6091 23.3437 32.5014 23.508 32.4266C23.6722 32.3518 23.8501 32.3116 24.0305 32.3085C24.2085 32.3095 24.3841 32.3488 24.5455 32.4238C24.7069 32.4988 24.8502 32.6077 24.9657 32.7431C25.3633 33.2311 25.6872 33.7747 25.9272 34.3566C26.2959 35.138 26.8338 36.4112 27.5406 38.1762C28.0762 39.5328 28.4714 40.5601 28.726 41.2582C28.9431 41.8209 29.1148 42.4001 29.2397 42.9902C29.3253 43.4446 29.3187 43.7343 29.2397 43.8529C29.1657 43.9269 29.0751 43.9823 28.9755 44.0143C28.8758 44.0464 28.77 44.0543 28.6667 44.0373C28.293 44.0661 27.9174 44.0121 27.5669 43.8792C27.3243 43.6943 27.1486 43.4354 27.0664 43.1416C27.0077 42.9674 26.9085 42.8097 26.7768 42.6815C26.6451 42.5532 26.4848 42.4581 26.3091 42.4041C24.8106 42.1933 23.29 42.1933 21.7915 42.4041H21.7388ZM22.7398 39.4998C22.8452 39.7567 23.2732 39.8884 24.0569 39.8884C24.8406 39.8884 25.2489 39.7567 25.374 39.4998C25.4991 39.243 25.374 38.624 24.9722 37.6625C24.5705 36.701 24.3137 36.2203 24.103 36.2203C23.8922 36.2203 23.5959 36.701 23.2139 37.6625C22.832 38.624 22.641 39.2364 22.72 39.4998H22.7398Z" fill="#888281"/>
<path d="M29.2067 42.9968C29.0818 42.4067 28.9101 41.8275 28.693 41.2648C28.434 40.5667 28.0389 39.5394 27.5076 38.1828C26.8052 36.4266 26.2674 35.1534 25.8942 34.3632C25.6542 33.7813 25.3303 33.2377 24.9327 32.7497C24.8515 32.6606 24.7584 32.583 24.6561 32.5192C24.7732 32.7516 24.8397 33.0062 24.851 33.2662C24.8624 33.5262 24.8184 33.7856 24.7219 34.0273C24.5902 34.5212 23.8527 36.1347 23.4773 36.9381C23.7078 36.4639 23.8988 36.2203 24.0502 36.2203C24.2017 36.2203 24.5442 36.701 24.9195 37.6625C25.2949 38.624 25.4266 39.2364 25.3212 39.4999C25.2159 39.7633 24.7812 39.8884 24.0041 39.8884C23.227 39.8884 22.8187 39.7567 22.687 39.4999C22.6342 39.1214 22.6889 38.7357 22.8451 38.3869C22.4763 39.3945 21.9231 40.896 21.6794 41.4953C21.4358 42.0946 21.1789 42.6412 21.0209 42.9309C21.1633 42.6762 21.3996 42.4871 21.6794 42.4041C23.1779 42.1933 24.6986 42.1933 26.1971 42.4041C26.3728 42.4582 26.5331 42.5532 26.6647 42.6815C26.7964 42.8097 26.8957 42.9675 26.9544 43.1417C27.0366 43.4354 27.2123 43.6943 27.4549 43.8792C27.8054 44.0121 28.1809 44.0661 28.5547 44.0373C28.658 44.0543 28.7638 44.0464 28.8635 44.0144C28.9631 43.9823 29.0537 43.9269 29.1276 43.8529C29.3054 43.7343 29.3054 43.4446 29.2067 42.9968Z" fill="#888281"/>
<path d="M49.0225 44.0373H46.7637C46.4273 44.0482 46.0913 44.0037 45.7693 43.9056C45.5124 43.8138 45.2849 43.6546 45.1107 43.4446C44.8938 43.1395 44.7599 42.7832 44.7222 42.4107C44.6346 41.8565 44.5753 41.2982 44.5444 40.738C44.5049 40.0794 44.4917 39.2365 44.4917 38.1565C44.4917 37.0765 44.4917 36.2203 44.5444 35.5881C44.5756 35.0279 44.635 34.4697 44.7222 33.9154C44.7587 33.5426 44.8927 33.1861 45.1107 32.8815C45.2855 32.6752 45.5132 32.5204 45.7693 32.4337C46.0901 32.3297 46.4267 32.2829 46.7637 32.2954H49.0225C52.6709 32.2954 54.4973 34.2557 54.5017 38.1762C54.5061 42.0968 52.6797 44.0505 49.0225 44.0373ZM46.9349 35.7528C46.8822 36.2401 46.8559 37.0699 46.8559 38.1565C46.8559 39.2431 46.8559 40.0663 46.9349 40.5602C46.9457 40.9159 47.0477 41.2629 47.2312 41.5678C47.3217 41.6655 47.4336 41.7408 47.5582 41.7877C47.6828 41.8345 47.8167 41.8517 47.9491 41.8378H49.0225C49.4584 41.8631 49.8943 41.7897 50.2979 41.6233C50.7016 41.4568 51.0625 41.2015 51.3538 40.8763C51.8784 40.0625 52.1574 39.1148 52.1574 38.1466C52.1574 37.1784 51.8784 36.2307 51.3538 35.4169C51.0624 35.0926 50.7012 34.8387 50.2973 34.6744C49.8934 34.5101 49.4576 34.4398 49.0225 34.4686H47.9491C47.8162 34.4555 47.682 34.4737 47.5573 34.5217C47.4327 34.5698 47.321 34.6463 47.2312 34.7452C47.0454 35.0491 46.9432 35.3967 46.9349 35.7528Z" fill="#888281"/>
<path d="M49.0225 32.2953H46.7637C46.5049 32.2891 46.2463 32.3134 45.9932 32.3678C46.1493 32.3722 46.3015 32.4176 46.4344 32.4995C46.6714 32.7052 46.8239 32.9914 46.8625 33.3029C46.9351 33.8751 46.9703 34.4515 46.9679 35.0283C46.9779 35.2016 46.9779 35.3753 46.9679 35.5486C46.9901 35.2697 47.0805 35.0006 47.2313 34.7649C47.321 34.666 47.4327 34.5895 47.5574 34.5414C47.682 34.4934 47.8162 34.4752 47.9491 34.4883H49.0225C49.4576 34.4595 49.8935 34.5298 50.2973 34.6941C50.7012 34.8584 51.0624 35.1123 51.3538 35.4366C51.8784 36.2504 52.1574 37.1981 52.1574 38.1663C52.1574 39.1345 51.8784 40.0822 51.3538 40.896C51.0625 41.2212 50.7016 41.4765 50.298 41.643C49.8943 41.8094 49.4584 41.8828 49.0225 41.8575H47.9491C47.8167 41.8714 47.6828 41.8542 47.5582 41.8073C47.4336 41.7605 47.3217 41.6852 47.2313 41.5875C47.0797 41.3498 46.9893 41.0783 46.9679 40.7972C46.9679 40.9553 46.9679 41.1067 46.9679 41.245C46.9526 41.6857 46.9153 42.1252 46.8559 42.5621C46.8094 42.8767 46.7115 43.1815 46.5662 43.4643C46.4915 43.5707 46.3932 43.6582 46.2789 43.7199C46.1646 43.7817 46.0374 43.8159 45.9076 43.82C45.7676 43.8356 45.6259 43.8199 45.4927 43.7739C45.5726 43.8281 45.6588 43.8724 45.7495 43.9056C45.8765 43.9461 46.0064 43.9769 46.1381 43.9978H46.2434H46.4212H49.0028C52.6511 43.9978 54.4775 42.0441 54.4819 38.1367C54.4863 34.2293 52.6665 32.2822 49.0225 32.2953Z" fill="#888281"/>
<path d="M8.48875 36.9316C8.51201 37.1105 8.4898 37.2923 8.42419 37.4604C8.35859 37.6284 8.25169 37.7772 8.11337 37.8931C8.32921 38.0161 8.50945 38.193 8.63642 38.4066C8.7634 38.6201 8.83275 38.863 8.83776 39.1114C8.85492 39.3133 8.82855 39.5166 8.76038 39.7075C8.69221 39.8983 8.58385 40.0724 8.44264 40.2177C8.11283 40.4896 7.69777 40.6365 7.2704 40.6326H4.33989V35.4301H6.97409C7.37834 35.4123 7.77336 35.5542 8.07386 35.8252C8.21755 35.9696 8.32887 36.143 8.4004 36.3337C8.47193 36.5245 8.50205 36.7283 8.48875 36.9316ZM5.38696 36.3257V37.4518H6.84237C7.01336 37.459 7.18205 37.4105 7.3231 37.3135C7.38041 37.2546 7.42468 37.1843 7.45305 37.1071C7.48141 37.03 7.49323 36.9477 7.48774 36.8657C7.47848 36.7244 7.41472 36.5922 7.30992 36.4969C7.18413 36.3825 7.01897 36.3211 6.84896 36.3257H5.38696ZM5.38696 38.3738V39.7897H7.04652C7.56019 39.7897 7.82362 39.5394 7.83679 39.0719C7.82692 38.8887 7.74669 38.7165 7.61286 38.5911C7.46416 38.4489 7.26544 38.3708 7.05966 38.3738H5.38696Z" fill="#888281"/>
<path d="M11.4851 38.0313L9.54896 35.4301H10.7739L11.979 37.1291L13.2171 35.4301H14.4091L12.4993 38.0313V40.6655H11.4653L11.4851 38.0313Z" fill="#888281"/>
<path d="M4.32008 32.1833H14.4552V33.3687H4.32008V32.1833Z" fill="#888281"/>
<path d="M4.32008 42.7004H14.4552V43.8858H4.32008V42.7004Z" fill="#888281"/>
</svg>
