<svg width="168" height="143" viewBox="0 0 168 143" fill="none" xmlns="http://www.w3.org/2000/svg">
<path d="M89.5718 139.535H127.904C128.15 138.83 128.248 138.082 128.19 137.338C128.133 136.594 127.922 135.869 127.57 135.211C126.699 133.934 125.447 132.966 123.993 132.444C118.24 130.271 112.323 128.559 106.298 127.325C102.116 126.705 82.3219 117.912 82.3219 117.912C79.2558 116.082 76.0686 114.461 72.7825 113.063L72.6077 112.841C72.7985 109.915 73.005 107.276 73.2753 104.684L72.8619 104.51L50.3013 93.9209L50.1265 94.223C47.5283 99.0146 45.332 104.013 43.5602 109.168C42.0499 113.111 41.7836 117.422 42.7971 121.522C43.9577 126.148 47.5668 128.835 50.7466 131.061C57.8216 136.117 65.0556 137.309 72.544 138.438C78.1877 139.198 83.8773 139.565 89.5718 139.535Z" fill="white"/>
<path d="M160.673 83.6347C158.567 77.9293 155.011 72.8714 150.354 68.96C143.311 62.4573 133.66 59.6431 129.685 58.562L99.0162 55.4776C94.1511 55.0165 83.1171 55.3981 75.8194 59.9453C71.7752 62.4449 68.0855 65.4769 64.8493 68.96C58.2292 76.1245 52.7248 84.2444 48.521 93.0469L72.9737 104.526L71.8131 139.504H141.578C143.47 136.133 145.203 133.383 148.446 128.12C154.074 119.042 155.871 117.118 158.097 111.474C160.402 105.48 164.536 94.9866 160.673 83.6347Z" fill="white"/>
<path d="M102.116 55.5571C102.8 55.5571 103.595 55.8433 104.326 55.3504C104.675 55.0925 104.914 54.7119 104.994 54.2852L106.361 42.4245C104.958 41.8473 103.7 40.9683 102.675 39.85C101.65 38.7316 100.884 37.4013 100.431 35.9536C99.9699 34.5545 100.542 30.6593 101.353 26.6051C102.053 23.155 102.943 19.5936 103.5 17.3677V17.1134L103.595 16.7159V16.5569C103.623 16.4167 103.66 16.2786 103.706 16.1435V15.9527V15.6983V15.5393V15.3962V15.126H103.802C103.976 15.126 104.374 15.126 104.93 15.2214H105.455H105.646L106.091 15.3008H106.313L106.965 15.4121L107.697 15.5711H107.919L108.476 15.7142H108.714L109.493 15.9527L110.272 16.2389L110.495 16.3343L111.052 16.5887L111.274 16.7C111.52 16.8248 111.759 16.9628 111.99 17.1134C112.225 17.254 112.448 17.4135 112.657 17.5903L112.848 17.7334L113.293 18.1309L113.468 18.3058C113.656 18.4957 113.831 18.6974 113.993 18.9099C114.108 19.6331 114.3 20.3421 114.565 21.0245C114.72 21.4432 114.912 21.8475 115.138 22.2328C115.249 22.4236 115.36 22.6144 115.487 22.7893C115.832 23.3078 116.232 23.7876 116.68 24.2202C117.706 25.1966 118.902 25.9777 120.209 26.5255C120.351 26.3652 120.505 26.2163 120.67 26.0804L120.925 25.9055L121.275 25.6829H121.418L121.577 25.5875C121.735 25.5103 121.9 25.4465 122.069 25.3967L122.292 25.3172C122.54 25.2383 122.796 25.185 123.055 25.1582H124.168C124.459 25.1749 124.746 25.2228 125.027 25.3013C125.294 25.3675 125.555 25.4579 125.806 25.5716L126.171 25.7465L126.346 25.8419C127.17 26.2998 127.839 26.9913 128.27 27.8293C128.27 27.8293 128.27 27.9406 128.35 27.9883C128.727 28.798 128.816 29.7122 128.604 30.5798C128.44 31.1742 128.142 31.7235 127.735 32.1862C127.327 32.6489 126.82 33.0129 126.251 33.2508C126.199 35.3901 125.944 37.5197 125.488 39.6104L125.074 41.2003C125.525 41.3184 125.993 41.3613 126.458 41.3275L124.502 55.8115C124.453 56.0386 124.486 56.2759 124.597 56.4801C124.708 56.6844 124.889 56.8421 125.106 56.9244C125.917 57.2106 129.097 58.244 129.749 58.5143C129.749 58.5143 124.725 65.494 112.26 64.2539C99.7949 63.0137 99 55.4299 99 55.4299L102.116 55.5571Z" fill="white" stroke="#231F20" stroke-width="0.57" stroke-miterlimit="10"/>
<path d="M108.285 1.38914C112.467 4.40995 121.943 6.6994 121.943 6.6994C137.126 10.5788 136.252 20.3249 134.233 27.0501L131.752 33.8867L130.894 36.5259C130.274 38.9903 128.334 42.1383 124.932 41.2956L125.345 39.7057C125.801 37.615 126.057 35.4854 126.108 33.3461C126.677 33.1082 127.185 32.7442 127.592 32.2815C128 31.8188 128.297 31.2695 128.461 30.6751C128.667 29.7423 128.557 28.7676 128.148 27.9042C127.739 27.0408 127.055 26.3377 126.204 25.9054L126.029 25.81L125.663 25.6351C125.412 25.5214 125.151 25.431 124.884 25.3649C124.604 25.2864 124.316 25.2383 124.025 25.2217H122.913C122.653 25.2485 122.398 25.3018 122.149 25.3807L121.927 25.4602C121.757 25.51 121.593 25.5739 121.434 25.651L121.132 25.8259L120.782 26.0485L120.496 26.2552C120.334 26.3954 120.181 26.544 120.035 26.7004C118.417 26.0957 116.988 25.0719 115.896 23.7338C114.804 22.3956 114.087 20.7911 113.818 19.0847C111.72 16.207 106.934 15.3802 104.66 15.1418C103.913 15.0623 103.436 15.0464 103.436 15.0464V15.1418V15.2848V15.4598V15.6188V15.8732V16.0639C103.39 16.1991 103.353 16.3371 103.325 16.4773V16.6363L103.23 17.0337V17.2881C102.657 19.514 101.783 23.0754 101.083 26.5254L100.081 25.2535C99.7247 24.8126 99.464 24.302 99.3162 23.7544C99.1683 23.2068 99.1367 22.6343 99.223 22.0737L100.32 13.8699C93.6742 9.10016 100.352 -4.31859 108.285 1.38914Z" fill="#231F20"/>
<path d="M118.841 101.759L117.14 99.6607C119.884 97.2362 122.353 94.517 124.501 91.5522" stroke="#231F20" stroke-width="0.57" stroke-miterlimit="10"/>
<path d="M129.606 58.562C133.66 59.6431 143.311 62.4573 150.275 68.96C154.931 72.8714 158.488 77.9293 160.593 83.6348C164.457 94.9866 160.323 105.48 157.938 111.522C155.712 117.166 153.916 119.089 148.287 128.168C145.107 133.43 143.311 136.117 141.419 139.551" stroke="#231F20" stroke-width="0.57" stroke-miterlimit="10"/>
<path d="M98.9356 55.4776C94.0706 55.0165 83.0367 55.3981 75.7391 59.9453C71.6948 62.4449 68.0049 65.4769 64.7687 68.96C58.1486 76.1245 52.6442 84.2444 48.4404 93.0469L72.8931 104.526" stroke="#231F20" stroke-width="0.57" stroke-miterlimit="10"/>
<path d="M78.3148 82.9663C76.5581 87.8328 75.1866 92.8299 74.2129 97.9114C73.4196 102.931 72.8889 107.988 72.623 113.063" stroke="#231F20" stroke-width="0.57" stroke-miterlimit="10"/>
<path d="M50.4759 93.7305C47.7931 98.6934 45.507 103.861 43.6393 109.184C42.129 113.128 41.8627 117.439 42.8762 121.538C44.0368 126.164 47.6459 128.851 50.8257 131.077C57.9007 136.133 65.1349 137.325 72.6233 138.454C78.2324 139.177 83.8845 139.512 89.5397 139.456" stroke="#231F20" stroke-width="0.57" stroke-miterlimit="10"/>
<path d="M58.187 108.564C63.2021 109.603 68.1018 111.137 72.8142 113.143C76.1003 114.541 79.2874 116.161 82.3536 117.992" stroke="#231F20" stroke-width="0.57" stroke-miterlimit="10"/>
<path d="M127.936 139.567C128.178 138.858 128.27 138.106 128.207 137.359C128.144 136.612 127.927 135.886 127.57 135.227C126.699 133.951 125.447 132.982 123.993 132.46" stroke="#231F20" stroke-width="0.57" stroke-miterlimit="10"/>
<path d="M122.737 135.974C123.682 136.21 124.657 136.311 125.631 136.276L126.425 137.866" stroke="#231F20" stroke-width="0.57" stroke-miterlimit="10"/>
<path d="M147.317 120.234C147.317 120.234 154.297 115.575 156.3 113.063C157.838 111.013 159.064 108.747 159.941 106.338" stroke="#231F20" stroke-width="0.57" stroke-miterlimit="10"/>
<path d="M3 140L165 140" stroke="#888281" stroke-width="5" stroke-miterlimit="10" stroke-linecap="round"/>
<path d="M118.842 101.76L113.659 105.925C113.659 105.925 113.5 98.7549 113.309 95.2571C113.102 91.3936 112.689 83.5395 111.91 78.277C111.131 73.0144 111.21 67.3225 111.91 65.1285C112.991 61.6784 114.962 55.5891 115.09 51.6779C115.093 51.127 115.222 50.5841 115.467 50.0908C115.712 49.5975 116.067 49.1669 116.505 48.832C117.936 47.8622 120.607 45.6522 120.511 44.6347C120.416 43.6172 118.381 43.9828 118.381 43.9828C117.537 44.5015 116.648 44.9431 115.726 45.3024C114.869 45.5649 113.981 45.7094 113.086 45.7317H112.848C112.583 44.7783 112.123 43.8904 111.496 43.1243C109.748 41.1369 108.317 39.7537 106.997 40.1035C105.566 40.6901 104.385 41.7587 103.658 43.1243C103.122 43.2062 102.612 43.4129 102.17 43.7277C101.729 44.0425 101.367 44.4567 101.114 44.9368C100.65 44.8183 100.164 44.8183 99.6993 44.9368C98.6341 45.382 97.8551 48.0371 97.8551 48.0371C97.7507 48.1061 97.6498 48.1804 97.553 48.2597C97.0055 48.7481 96.5914 49.3676 96.3495 50.0602C96.1075 50.7528 96.0456 51.4955 96.1698 52.2185C96.2651 52.8386 97.1396 53.0929 97.1396 53.0929C96.4669 55.4142 96.1088 57.8151 96.0745 60.2316C96.0955 62.2368 95.9626 64.2406 95.677 66.2255C94.0871 70.7567 90.6211 79.1832 89.3174 84.5571C87.8706 90.6941 82.7986 108.755 82.4012 116.912C82.0037 125.068 82.4012 130.124 83.9911 133.653C85.8354 138.041 90.8753 140.601 93.9279 141.364C97.7523 142.261 101.718 142.382 105.59 141.721C109.462 141.061 113.162 139.631 116.473 137.517C123.378 133.461 129.74 128.546 135.409 122.89L118.842 101.76Z" fill="white"/>
<path d="M103.562 43.0603C104.289 41.6947 105.47 40.6261 106.901 40.0395C108.253 39.6897 109.652 41.0729 111.401 43.0603C113.149 45.0477 113.436 49.261 113.436 49.261" stroke="#231F20" stroke-width="0.57" stroke-miterlimit="10"/>
<path d="M108.794 44.4756C107.118 43.7807 105.36 43.3051 103.563 43.0605C103.027 43.1425 102.517 43.3492 102.075 43.664C101.633 43.9788 101.272 44.3929 101.019 44.8731" stroke="#231F20" stroke-width="0.57" stroke-miterlimit="10"/>
<path d="M104.262 45.9219C104.262 45.9219 100.653 44.332 99.6041 44.8567C98.5548 45.3814 97.7598 47.957 97.7598 47.957" stroke="#231F20" stroke-width="0.57" stroke-miterlimit="10"/>
<path d="M101.146 48.1482C100.618 47.7382 99.9695 47.5156 99.3015 47.5156C98.6335 47.5156 97.9847 47.7382 97.4573 48.1482C96.9099 48.6366 96.4956 49.2561 96.2537 49.9487C96.0117 50.6413 95.95 51.384 96.0741 52.107C96.1695 52.7271 97.0439 52.9815 97.0439 52.9815" stroke="#231F20" stroke-width="0.57" stroke-miterlimit="10"/>
<path d="M98.0133 50.2943C96.7842 53.451 96.1118 56.797 96.0259 60.1835C96.0469 62.1887 95.914 64.1925 95.6285 66.1774C94.0386 70.7086 90.5726 79.1351 89.2689 84.5089C87.822 90.6459 82.7503 108.707 82.3528 116.863C81.9554 125.02 82.3528 130.075 83.9427 133.605C85.787 137.993 90.827 140.553 93.8796 141.316C97.704 142.213 101.669 142.334 105.541 141.673C109.413 141.012 113.114 139.583 116.424 137.468C123.329 133.413 129.692 128.498 135.36 122.841L118.841 101.759L113.658 105.925C113.658 105.925 113.499 98.7544 113.308 95.2566C113.101 91.3932 112.688 83.5391 111.909 78.2765C111.13 73.014 111.209 67.3221 111.909 65.128C112.99 61.678 114.962 55.5887 115.089 51.6775C115.092 51.1266 115.221 50.5837 115.466 50.0904C115.711 49.5971 116.066 49.1665 116.504 48.8316C117.935 47.8617 120.606 45.6518 120.51 44.6343C120.415 43.6167 118.38 43.9824 118.38 43.9824C117.536 44.501 116.648 44.9427 115.725 45.302C114.869 45.5645 113.981 45.7089 113.086 45.7313" stroke="#231F20" stroke-width="0.57" stroke-miterlimit="10"/>
</svg>
