<svg width="181" height="143" viewBox="0 0 181 143" fill="none" xmlns="http://www.w3.org/2000/svg">
<path d="M97.5718 139.535H135.904C136.15 138.83 136.248 138.082 136.19 137.338C136.133 136.594 135.922 135.869 135.57 135.211C134.699 133.935 133.447 132.966 131.993 132.444C126.24 130.271 120.323 128.559 114.298 127.325C110.116 126.705 90.3219 117.913 90.3219 117.913C87.2558 116.082 84.0686 114.462 80.7825 113.063L80.6077 112.841C80.7985 109.915 81.005 107.276 81.2753 104.685L80.8619 104.51L58.3013 93.921L58.1265 94.2231C55.5283 99.0147 53.332 104.013 51.5602 109.168C50.0499 113.111 49.7836 117.423 50.7971 121.522C51.9577 126.148 55.5668 128.835 58.7466 131.061C65.8216 136.117 73.0556 137.309 80.544 138.438C86.1877 139.198 91.8773 139.565 97.5718 139.535Z" fill="white"/>
<path d="M168.673 83.6347C166.567 77.9293 163.011 72.8714 158.354 68.96C151.311 62.4573 141.66 59.6431 137.685 58.562L107.016 55.4776C102.151 55.0165 91.1171 55.3981 83.8194 59.9453C79.7752 62.4449 76.0855 65.4769 72.8493 68.96C66.2292 76.1245 60.7248 84.2444 56.521 93.0469L80.9737 104.526L79.8131 139.504H149.578C151.47 136.133 153.203 133.383 156.446 128.12C162.074 119.042 163.871 117.118 166.097 111.474C168.402 105.48 172.536 94.9866 168.673 83.6347Z" fill="white"/>
<path d="M110.116 55.5569C110.8 55.5569 111.595 55.843 112.326 55.3502C112.675 55.0923 112.914 54.7116 112.994 54.2849L114.361 42.4243C112.958 41.847 111.7 40.968 110.675 39.8497C109.65 38.7314 108.884 37.4011 108.431 35.9534C107.97 34.5543 108.542 30.659 109.353 26.6048C110.053 23.1547 110.943 19.5934 111.5 17.3675V17.1131L111.595 16.7156V16.5566C111.623 16.4165 111.66 16.2784 111.706 16.1432V15.9525V15.6981V15.5391V15.396V15.1257H111.802C111.976 15.1257 112.374 15.1257 112.93 15.2211H113.455H113.646L114.091 15.3006H114.313L114.965 15.4119L115.697 15.5709H115.919L116.476 15.714H116.714L117.493 15.9525L118.272 16.2386L118.495 16.334L119.052 16.5884L119.274 16.6997C119.52 16.8246 119.759 16.9626 119.99 17.1131C120.225 17.2538 120.448 17.4133 120.657 17.5901L120.848 17.7331L121.293 18.1306L121.468 18.3055C121.656 18.4954 121.831 18.6972 121.993 18.9097C122.108 19.6329 122.3 20.3418 122.565 21.0242C122.72 21.4429 122.912 21.8473 123.138 22.2326C123.249 22.4234 123.36 22.6141 123.487 22.789C123.832 23.3076 124.232 23.7874 124.68 24.22C125.706 25.1963 126.902 25.9775 128.209 26.5253C128.351 26.3649 128.505 26.2161 128.67 26.0801L128.925 25.9052L129.275 25.6826H129.418L129.577 25.5872C129.735 25.5101 129.9 25.4463 130.069 25.3965L130.292 25.317C130.54 25.2381 130.796 25.1848 131.055 25.158H132.168C132.459 25.1746 132.746 25.2226 133.027 25.3011C133.294 25.3672 133.555 25.4577 133.806 25.5713L134.171 25.7462L134.346 25.8416C135.17 26.2995 135.839 26.9911 136.27 27.829C136.27 27.829 136.27 27.9403 136.35 27.988C136.727 28.7978 136.816 29.7119 136.604 30.5796C136.44 31.1739 136.142 31.7232 135.735 32.186C135.327 32.6487 134.82 33.0127 134.251 33.2506C134.199 35.3899 133.944 37.5194 133.488 39.6102L133.074 41.2001C133.525 41.3181 133.993 41.3611 134.458 41.3272L132.502 55.8112C132.453 56.0384 132.486 56.2756 132.597 56.4799C132.708 56.6842 132.889 56.8418 133.106 56.9241C133.917 57.2103 137.097 58.2438 137.749 58.514C137.749 58.514 132.725 65.4937 120.26 64.2536C107.795 63.0135 107 55.4296 107 55.4296L110.116 55.5569Z" fill="white" stroke="#231F20" stroke-width="0.57" stroke-miterlimit="10"/>
<path d="M116.285 1.38914C120.467 4.40995 129.943 6.6994 129.943 6.6994C145.126 10.5788 144.252 20.3249 142.233 27.0501L139.752 33.8867L138.894 36.5259C138.274 38.9903 136.334 42.1383 132.932 41.2956L133.345 39.7057C133.801 37.615 134.057 35.4854 134.108 33.3461C134.677 33.1082 135.185 32.7442 135.592 32.2815C136 31.8188 136.297 31.2695 136.461 30.6751C136.667 29.7423 136.557 28.7676 136.148 27.9042C135.739 27.0408 135.055 26.3377 134.204 25.9054L134.029 25.81L133.663 25.6351C133.412 25.5214 133.151 25.431 132.884 25.3649C132.604 25.2864 132.316 25.2383 132.025 25.2217H130.913C130.653 25.2485 130.398 25.3018 130.149 25.3807L129.927 25.4602C129.757 25.51 129.593 25.5739 129.434 25.651L129.132 25.8259L128.782 26.0485L128.496 26.2552C128.334 26.3954 128.181 26.544 128.035 26.7004C126.417 26.0957 124.988 25.0719 123.896 23.7338C122.804 22.3956 122.087 20.7911 121.818 19.0847C119.72 16.207 114.934 15.3802 112.66 15.1418C111.913 15.0623 111.436 15.0464 111.436 15.0464V15.1418V15.2848V15.4598V15.6188V15.8732V16.0639C111.39 16.1991 111.353 16.3371 111.325 16.4773V16.6363L111.23 17.0337V17.2881C110.657 19.514 109.783 23.0754 109.083 26.5254L108.081 25.2535C107.725 24.8126 107.464 24.302 107.316 23.7544C107.168 23.2068 107.137 22.6343 107.223 22.0737L108.32 13.8699C101.674 9.10016 108.352 -4.31859 116.285 1.38914Z" fill="#231F20"/>
<path d="M126.841 101.76L125.14 99.661C127.884 97.2365 130.353 94.5173 132.501 91.5525" stroke="#231F20" stroke-width="0.57" stroke-miterlimit="10"/>
<path d="M137.606 58.562C141.66 59.6431 151.311 62.4573 158.275 68.96C162.931 72.8714 166.488 77.9293 168.593 83.6348C172.457 94.9866 168.323 105.48 165.938 111.522C163.712 117.166 161.916 119.089 156.287 128.168C153.107 133.43 151.311 136.117 149.419 139.551" stroke="#231F20" stroke-width="0.57" stroke-miterlimit="10"/>
<path d="M106.936 55.4776C102.071 55.0165 91.0367 55.3981 83.7391 59.9453C79.6948 62.4449 76.0049 65.4769 72.7687 68.96C66.1486 76.1245 60.6442 84.2444 56.4404 93.0469L80.8931 104.526" stroke="#231F20" stroke-width="0.57" stroke-miterlimit="10"/>
<path d="M86.3148 82.9666C84.5581 87.8331 83.1866 92.8301 82.2129 97.9116C81.4196 102.931 80.8889 107.989 80.623 113.063" stroke="#231F20" stroke-width="0.57" stroke-miterlimit="10"/>
<path d="M58.4759 93.7306C55.7931 98.6935 53.507 103.861 51.6393 109.184C50.129 113.128 49.8627 117.439 50.8762 121.538C52.0368 126.165 55.6459 128.851 58.8257 131.077C65.9007 136.133 73.1349 137.326 80.6233 138.454C86.2324 139.177 91.8845 139.512 97.5397 139.456" stroke="#231F20" stroke-width="0.57" stroke-miterlimit="10"/>
<path d="M66.187 108.564C71.2021 109.603 76.1018 111.137 80.8142 113.143C84.1003 114.541 87.2874 116.161 90.3536 117.992" stroke="#231F20" stroke-width="0.57" stroke-miterlimit="10"/>
<path d="M135.936 139.567C136.178 138.858 136.27 138.106 136.207 137.359C136.144 136.612 135.927 135.886 135.57 135.227C134.699 133.951 133.447 132.982 131.993 132.46" stroke="#231F20" stroke-width="0.57" stroke-miterlimit="10"/>
<path d="M130.737 135.974C131.682 136.21 132.657 136.311 133.631 136.276L134.425 137.866" stroke="#231F20" stroke-width="0.57" stroke-miterlimit="10"/>
<path d="M155.317 120.234C155.317 120.234 162.297 115.575 164.3 113.063C165.838 111.013 167.064 108.747 167.941 106.338" stroke="#231F20" stroke-width="0.57" stroke-miterlimit="10"/>
<path d="M3 139.551H178" stroke="#8DC63F" stroke-width="5" stroke-miterlimit="10" stroke-linecap="round"/>
<path d="M126.842 101.76L121.659 105.925C121.659 105.925 121.5 98.7548 121.309 95.257C121.102 91.3935 120.689 83.5394 119.91 78.2769C119.131 73.0143 119.21 67.3224 119.91 65.1284C120.991 61.6783 122.962 55.589 123.09 51.6778C123.093 51.1269 123.222 50.584 123.467 50.0907C123.712 49.5974 124.067 49.1668 124.505 48.8319C125.936 47.8621 128.607 45.6521 128.511 44.6346C128.416 43.6171 126.381 43.9827 126.381 43.9827C125.537 44.5014 124.648 44.943 123.726 45.3023C122.869 45.5648 121.981 45.7093 121.086 45.7316H120.848C120.583 44.7782 120.123 43.8903 119.496 43.1242C117.748 41.1368 116.317 39.7536 114.997 40.1034C113.566 40.69 112.385 41.7586 111.658 43.1242C111.122 43.2061 110.612 43.4128 110.17 43.7276C109.729 44.0424 109.367 44.4566 109.114 44.9367C108.65 44.8182 108.164 44.8182 107.699 44.9367C106.634 45.3818 105.855 48.0369 105.855 48.0369C105.751 48.1059 105.65 48.1803 105.553 48.2596C105.006 48.7479 104.591 49.3675 104.349 50.0601C104.107 50.7526 104.046 51.4954 104.17 52.2184C104.265 52.8384 105.14 53.0928 105.14 53.0928C104.467 55.414 104.109 57.815 104.074 60.2315C104.095 62.2367 103.963 64.2405 103.677 66.2254C102.087 70.7566 98.6211 79.1831 97.3174 84.5569C95.8706 90.6939 90.7986 108.755 90.4012 116.911C90.0037 125.068 90.4012 130.123 91.9911 133.653C93.8354 138.041 98.8753 140.601 101.928 141.364C105.752 142.261 109.718 142.382 113.59 141.721C117.462 141.06 121.162 139.631 124.473 137.516C131.378 133.461 137.74 128.546 143.409 122.889L126.842 101.76Z" fill="white"/>
<path d="M111.562 43.0604C112.289 41.6949 113.47 40.6263 114.901 40.0396C116.253 39.6899 117.652 41.0731 119.401 43.0604C121.149 45.0478 121.436 49.2611 121.436 49.2611" stroke="#231F20" stroke-width="0.57" stroke-miterlimit="10"/>
<path d="M116.794 44.4755C115.118 43.7806 113.36 43.3049 111.563 43.0604C111.027 43.1424 110.517 43.3491 110.075 43.6639C109.633 43.9787 109.272 44.3928 109.019 44.8729" stroke="#231F20" stroke-width="0.57" stroke-miterlimit="10"/>
<path d="M112.262 45.9218C112.262 45.9218 108.653 44.3319 107.604 44.8566C106.555 45.3812 105.76 47.9569 105.76 47.9569" stroke="#231F20" stroke-width="0.57" stroke-miterlimit="10"/>
<path d="M109.146 48.1481C108.618 47.7381 107.969 47.5155 107.301 47.5155C106.634 47.5155 105.985 47.7381 105.457 48.1481C104.91 48.6364 104.496 49.256 104.254 49.9486C104.012 50.6411 103.95 51.3839 104.074 52.1069C104.17 52.727 105.044 52.9814 105.044 52.9814" stroke="#231F20" stroke-width="0.57" stroke-miterlimit="10"/>
<path d="M106.013 50.2945C104.784 53.4513 104.112 56.7972 104.026 60.1837C104.047 62.1889 103.914 64.1928 103.628 66.1776C102.039 70.7088 98.5726 79.1353 97.2689 84.5092C95.822 90.6462 90.7503 108.707 90.3528 116.864C89.9554 125.02 90.3528 130.076 91.9427 133.605C93.787 137.993 98.827 140.553 101.88 141.316C105.704 142.213 109.669 142.334 113.541 141.673C117.413 141.013 121.114 139.583 124.424 137.469C131.329 133.413 137.692 128.498 143.36 122.842L126.841 101.76L121.658 105.925C121.658 105.925 121.499 98.7547 121.308 95.2569C121.101 91.3934 120.688 83.5394 119.909 78.2768C119.13 73.0142 119.209 67.3223 119.909 65.1283C120.99 61.6782 122.962 55.5889 123.089 51.6778C123.092 51.1268 123.221 50.5839 123.466 50.0906C123.711 49.5973 124.066 49.1667 124.504 48.8318C125.935 47.862 128.606 45.652 128.51 44.6345C128.415 43.617 126.38 43.9826 126.38 43.9826C125.536 44.5013 124.648 44.9429 123.725 45.3022C122.869 45.5647 121.981 45.7092 121.086 45.7315" stroke="#231F20" stroke-width="0.57" stroke-miterlimit="10"/>
</svg>
