<svg width="214" height="189" viewBox="0 0 214 189" fill="none" xmlns="http://www.w3.org/2000/svg">
<path d="M93.8987 151.262C86.661 151.119 62.9169 150.242 41.9328 133.075C36.3304 128.403 17.4317 115.108 18 87.8102C18.6412 58.0616 41.1063 46.7415 44.2373 45.0543C48.3767 42.8054 63.5857 34.5947 80.5643 38.8856C84.9976 40.004 85.0338 40.8417 96.5921 46.6482C109.637 53.5416 123.284 56.3104 134.284 58.3104C145.284 60.3104 167.634 58.3103 178.5 58.3103C193 58.3104 198.5 64.8101 201.5 68.8102C204.5 72.8103 204.636 80.1619 204.5 84.3103C204.408 99.34 193.61 107.942 185.771 114.87C167 128.81 151 134.81 134.284 142.31L134.203 142.338C116.598 148.404 107.507 151.536 93.8987 151.262Z" fill="#FFD530"/>
</svg>
