<svg width="168" height="147" viewBox="0 0 168 147" fill="none" xmlns="http://www.w3.org/2000/svg">
<path d="M118.282 17.1001C93.098 -1.04066 92.1917 25.924 92.3189 29.6444C92.9917 31.5348 94.0781 33.2513 95.4987 34.6685C95.4033 36.2584 95.2602 38.0231 95.1012 39.4381C94.656 43.2221 91.206 47.5466 91.206 47.5466C91.206 47.5466 90.8722 65.2422 102.765 63.4456C114.657 61.6491 109.935 51.426 109.935 51.426C109.935 51.426 109.188 48.6278 108.759 45.7977C114.132 48.6914 119.077 48.898 120.46 42.0138C123.878 25.2085 118.282 17.1001 118.282 17.1001Z" fill="white" stroke="#231F20" stroke-width="0.57" stroke-miterlimit="10"/>
<path d="M109.999 51.4419C109.999 51.4419 111.223 57.9605 107.868 59.0575C104.514 60.1546 98.9968 58.6124 96.0396 56.3388C92.2398 53.3816 91.2699 47.5308 91.2699 47.5308C91.2699 47.5308 71.2689 57.0702 65.2908 62.1579C59.3128 67.2455 56.4988 71.268 56.0377 79.3287C55.5766 87.3895 56.8486 106.357 56.8486 106.357L57.9773 137.01H138.697L134.849 90.5853C137.644 88.8448 140.796 87.7579 144.07 87.4055C148.84 87.1034 151.845 87.1034 151.845 87.1034C151.845 87.1034 142.306 69.4714 133.911 63.4934C125.516 57.5153 109.999 51.4419 109.999 51.4419Z" fill="white" stroke="#231F20" stroke-width="0.57" stroke-miterlimit="10"/>
<path d="M2.83594 138.33H164.836" stroke="#888281" stroke-width="5" stroke-miterlimit="10" stroke-linecap="round"/>
<path d="M94.2743 9.03923C97.9578 8.71657 101.519 7.55839 104.688 5.65274C105.205 4.71455 105.498 3.67004 105.547 2.60011C111.541 -3.6005 117.264 2.93401 118.886 5.35065L119.395 5.54143C128.139 8.94382 121.477 20.5024 121.477 20.5024C117.964 25.4788 102.796 21.1702 101.206 20.7568C99.6163 20.3434 99.3301 21.9015 99.3778 23.1257C99.4255 24.3499 99.9025 28.1975 98.0264 25.8286C96.1503 23.4596 92.9069 22.919 93.0023 25.8286C93.0977 28.7381 96.6908 29.8033 96.6908 29.8033V36.0516C83.431 29.3581 84.2261 10.2635 94.2743 9.03923Z" fill="#231F20"/>
<path d="M96.674 35.0817V35.4633V35.6382V35.0022V35.0817ZM86.9122 17.1317C87.723 12.4892 90.4736 9.43661 94.2734 8.97554C97.9415 8.65016 101.487 7.49192 104.639 5.58904C105.139 4.66761 105.427 3.64656 105.482 2.60003C106.194 1.74104 107.096 1.0597 108.118 0.609886C109.139 0.160072 110.25 -0.045815 111.365 0.00853061C115.371 0.358308 118.329 4.47612 118.901 5.35057H118.996L119.394 5.49365C120.338 5.81088 121.199 6.33532 121.915 7.02858C122.63 7.72183 123.181 8.56637 123.527 9.50023C125.117 14.1427 121.556 20.4864 121.524 20.6295C120.693 21.6567 119.529 22.36 118.233 22.6169H118.042H117.804C115.576 22.9968 113.304 23.045 111.063 22.76C107.797 22.3777 104.565 21.7452 101.396 20.868H101.174C100.985 20.7968 100.781 20.774 100.581 20.8018C100.381 20.8295 100.191 20.907 100.029 21.027C99.7822 21.3217 99.6006 21.6654 99.4965 22.0354C99.3924 22.4054 99.3679 22.7932 99.4247 23.1733C99.4247 23.3164 99.4247 23.5072 99.4247 23.7139C99.5201 25.1607 99.5517 26.4803 99.0588 26.6711C98.566 26.8619 98.407 26.528 97.9142 25.9239C97.5058 25.2719 96.9184 24.7512 96.222 24.4242C95.5256 24.0971 94.7497 23.9775 93.9872 24.0796C93.3194 24.3181 92.9856 24.9699 93.0333 25.9556C93.1287 28.8652 96.6265 29.8509 96.6583 29.8668V34.2231V36.29H96.5628L96.3879 36.2105L96.1812 36.0992L95.9904 35.9879C92.5745 34.119 89.8532 31.197 88.2317 27.6569C86.7269 24.3657 86.2665 20.6925 86.9122 17.1317ZM96.1812 35.7494L96.372 35.8607L96.5787 35.972H96.674V34.4616V29.8827C96.2447 29.7396 93.0809 28.6744 92.9855 25.8603C92.9132 25.4572 92.9772 25.0416 93.1672 24.6789C93.3572 24.3162 93.6624 24.0271 94.0349 23.857C94.8241 23.7461 95.6285 23.8639 96.3528 24.1964C97.077 24.5289 97.6906 25.0623 98.1209 25.7331C98.6773 26.4326 98.9635 26.5121 99.1066 26.4485C99.5518 26.2736 99.4405 24.5565 99.3769 23.6185C99.3769 23.4118 99.3769 23.2369 99.3769 23.0779C99.3268 22.6759 99.3602 22.2679 99.4751 21.8794C99.5901 21.4909 99.784 21.1303 100.045 20.8203C100.223 20.6893 100.431 20.6048 100.651 20.5743C100.87 20.5437 101.093 20.5682 101.301 20.6454H101.523C105.275 21.6629 112.986 23.4277 117.852 22.4102H118.09C118.153 22.4245 118.218 22.4245 118.281 22.4102C119.538 22.1743 120.668 21.4908 121.461 20.4864C121.461 20.4864 125.086 14.1268 123.464 9.54792C123.127 8.63079 122.587 7.80142 121.885 7.12154C121.183 6.44167 120.337 5.92876 119.41 5.62087C119.283 5.55919 119.149 5.51123 119.012 5.47779H118.885C118.344 4.65104 115.403 0.533158 111.444 0.167482C110.353 0.117994 109.265 0.320249 108.264 0.758599C107.263 1.19695 106.377 1.85969 105.673 2.69546C105.623 3.77228 105.324 4.82281 104.799 5.76396C101.623 7.68735 98.0504 8.86182 94.3528 9.19814C90.6165 9.64332 87.9933 12.6482 87.103 17.2271C86.5606 20.889 87.1445 24.6292 88.7773 27.9516C90.4101 31.2739 93.0145 34.0212 96.2449 35.829L96.1812 35.7494Z" fill="#231F20"/>
<path d="M83.8919 74.3682L87.7077 86.1175C87.7077 86.1175 76.8485 85.1159 70.6797 88.0254C65.3365 90.5072 60.6119 94.1457 56.8477 98.6777" stroke="#231F20" stroke-width="0.56" stroke-miterlimit="10"/>
<path d="M127.042 77.1504C128.731 79.5321 130.25 82.029 131.59 84.6229C132.507 86.5093 133.242 88.4791 133.784 90.5055" stroke="#231F20" stroke-width="0.56" stroke-miterlimit="10"/>
<path d="M160.064 109.743C157.935 101.958 155.186 94.3547 151.844 87.0078C151.844 87.0078 148.855 87.0078 144.069 87.3099C140.569 87.7366 137.172 88.7809 134.037 90.3943C134.375 95.3211 134.29 100.268 133.783 105.18C132.463 110.666 112.112 121.572 112.112 121.572C114.021 123.893 116.151 126.023 118.472 127.932C122.145 130.873 128.743 138.362 138.139 140.413C147.535 142.463 153.45 139.872 155.898 137.773C160.064 134.244 163.577 122.653 160.064 109.743Z" fill="white" stroke="#231F20" stroke-width="0.57" stroke-miterlimit="10"/>
<path d="M127.28 97.4855C123.407 98.3906 119.958 100.589 117.502 103.718C116.548 104.847 108.138 112.081 100.856 111.985C98.7891 111.985 96.2136 108.122 93.8765 104.163C91.5393 100.204 87.7077 86.1177 87.7077 86.1177C87.7077 86.1177 76.8485 85.1161 70.6797 88.0256C65.2147 90.7063 60.3686 94.4967 56.4502 99.1549L57.0066 102.16C57.0066 102.16 59.2166 115.07 63.1754 123.003C67.0422 130.159 72.1698 136.558 78.3113 141.891C81.8409 144.69 89.0271 147.329 95.4821 144.976C101.937 142.623 115.388 122.987 119.331 118.886C122.74 115.326 126.777 112.426 131.239 110.332C133.513 109.378 133.656 108.424 133.958 106.627C134.256 104.228 134.346 101.808 134.228 99.3933C134.26 97.6604 131.032 96.5793 127.28 97.4855Z" fill="white" stroke="#231F20" stroke-width="0.57" stroke-miterlimit="10"/>
<path d="M90.0136 96.5789L83.654 101.841C83.5576 101.977 83.4724 102.121 83.3995 102.271C82.064 104.846 81.2215 106.818 82.1118 108.042C83.2727 109.264 84.8256 110.041 86.5 110.236C86.7945 110.75 87.2053 111.187 87.6996 111.513C88.1939 111.839 88.7577 112.044 89.3458 112.112C89.4905 113.01 89.747 113.886 90.1091 114.72C90.9835 115.61 93.7657 114.195 93.7657 114.195C93.8821 114.273 94.0043 114.342 94.1314 114.402C94.8466 114.762 95.6411 114.936 96.4413 114.908C97.2415 114.88 98.0217 114.651 98.7103 114.243C99.2985 113.909 99.2192 112.907 99.2192 112.907C101.845 112.674 104.427 112.091 106.898 111.174C108.925 110.365 111.008 109.706 113.131 109.203L107.964 92.2861C101.861 93.163 95.8524 94.6 90.0136 96.5789Z" fill="white"/>
<path d="M87.5005 109.87C87.5005 109.87 86.0058 110.109 85.5606 107.899C85.2427 106.42 86.4828 103.256 88.6133 100.935" stroke="#231F20" stroke-width="0.56" stroke-miterlimit="10"/>
<path d="M90.0136 103.988C89.0172 105.693 88.2476 107.521 87.7242 109.425C87.5334 111.142 90.0454 112.685 90.0454 112.685" stroke="#231F20" stroke-width="0.56" stroke-miterlimit="10"/>
<path d="M91.6028 107.533C91.6028 107.533 89.5677 110.713 90.0129 112.685C90.4581 114.656 93.7969 113.797 93.7969 113.797" stroke="#231F20" stroke-width="0.56" stroke-miterlimit="10"/>
<path d="M93.7486 110.268C93.7486 110.268 91.9838 113.32 94.162 114.401C94.8772 114.761 95.6715 114.935 96.4717 114.908C97.2719 114.88 98.0523 114.651 98.7409 114.242C99.3291 113.908 99.2498 112.907 99.2498 112.907" stroke="#231F20" stroke-width="0.56" stroke-miterlimit="10"/>
<path d="M98.3433 113.257C101.544 112.644 104.657 111.64 107.612 110.268C109.544 109.454 111.392 108.452 113.129 107.279" stroke="#231F20" stroke-width="0.56" stroke-miterlimit="10"/>
<path d="M85.5133 106.039C85.1793 105.899 84.8795 105.689 84.6343 105.423C84.3891 105.157 84.2041 104.84 84.0924 104.496C83.9807 104.152 83.9447 103.788 83.9868 103.428C84.029 103.069 84.1484 102.723 84.3367 102.414C85.0363 101.078 87.7708 96.9125 89.9649 96.5786C92.1589 96.2447 94.5121 97.2623 99.0274 98.1685C102.605 98.9476 107.883 100.665 110.061 101.205C113.432 102.064 118.265 102.795 118.265 102.795" stroke="#231F20" stroke-width="0.56" stroke-miterlimit="10"/>
</svg>
