<svg width="181" height="147" viewBox="0 0 181 147" fill="none" xmlns="http://www.w3.org/2000/svg">
<path d="M125.914 17.1C100.73 -1.04078 99.8235 25.9239 99.9507 29.6442C100.624 31.5347 101.71 33.2511 103.131 34.6683C103.035 36.2582 102.892 38.023 102.733 39.438C102.288 43.222 98.8379 47.5465 98.8379 47.5465C98.8379 47.5465 98.504 65.2421 110.396 63.4455C122.289 61.6489 117.567 51.4259 117.567 51.4259C117.567 51.4259 116.82 48.6276 116.39 45.7976C121.764 48.6912 126.709 48.8979 128.092 42.0137C131.51 25.2084 125.914 17.1 125.914 17.1Z" fill="white" stroke="#231F20" stroke-width="0.57" stroke-miterlimit="10"/>
<path d="M117.631 51.4418C117.631 51.4418 118.855 57.9604 115.5 59.0574C112.146 60.1544 106.629 58.6123 103.671 56.3387C99.8716 53.3815 98.9018 47.5306 98.9018 47.5306C98.9018 47.5306 78.9007 57.0701 72.9227 62.1577C66.9446 67.2454 64.1306 71.2678 63.6695 79.3286C63.2085 87.3894 64.4804 106.357 64.4804 106.357L65.6092 137.01H146.328L142.481 90.5851C145.276 88.8447 148.428 87.7578 151.702 87.4053C156.472 87.1033 159.477 87.1033 159.477 87.1033C159.477 87.1033 149.937 69.4713 141.543 63.4932C133.148 57.5152 117.631 51.4418 117.631 51.4418Z" fill="white" stroke="#231F20" stroke-width="0.57" stroke-miterlimit="10"/>
<path d="M3 138.33H178" stroke="#FFD530" stroke-width="5" stroke-miterlimit="10" stroke-linecap="round"/>
<path d="M101.906 9.03923C105.59 8.71657 109.151 7.55839 112.32 5.65274C112.836 4.71455 113.13 3.67004 113.178 2.60011C119.172 -3.6005 124.896 2.93401 126.518 5.35065L127.026 5.54143C135.771 8.94382 129.109 20.5024 129.109 20.5024C125.596 25.4788 110.428 21.1702 108.838 20.7568C107.248 20.3434 106.962 21.9015 107.01 23.1257C107.057 24.3499 107.534 28.1975 105.658 25.8286C103.782 23.4596 100.539 22.919 100.634 25.8286C100.73 28.7381 104.323 29.8033 104.323 29.8033V36.0516C91.0628 29.3581 91.8579 10.2635 101.906 9.03923Z" fill="#231F20"/>
<path d="M104.306 35.0817V35.4633V35.6382V35.0022V35.0817ZM94.544 17.1317C95.3549 12.4892 98.1054 9.43661 101.905 8.97554C105.573 8.65016 109.119 7.49192 112.271 5.58904C112.771 4.66761 113.058 3.64656 113.114 2.60003C113.826 1.74104 114.728 1.0597 115.749 0.609886C116.77 0.160072 117.882 -0.045815 118.997 0.00853061C123.003 0.358308 125.96 4.47612 126.533 5.35057H126.628L127.026 5.49365C127.97 5.81088 128.831 6.33532 129.546 7.02858C130.262 7.72183 130.813 8.56637 131.159 9.50023C132.749 14.1427 129.188 20.4864 129.156 20.6295C128.325 21.6567 127.161 22.36 125.865 22.6169H125.674H125.436C123.208 22.9968 120.936 23.045 118.694 22.76C115.429 22.3777 112.197 21.7452 109.028 20.868H108.805C108.616 20.7968 108.413 20.774 108.213 20.8018C108.013 20.8295 107.823 20.907 107.661 21.027C107.414 21.3217 107.232 21.6654 107.128 22.0354C107.024 22.4054 107 22.7932 107.057 23.1733C107.057 23.3164 107.057 23.5072 107.057 23.7139C107.152 25.1607 107.184 26.4803 106.691 26.6711C106.198 26.8619 106.039 26.528 105.546 25.9239C105.138 25.2719 104.55 24.7512 103.854 24.4242C103.157 24.0971 102.382 23.9775 101.619 24.0796C100.951 24.3181 100.617 24.9699 100.665 25.9556C100.76 28.8652 104.258 29.8509 104.29 29.8668V34.2231V36.29H104.195L104.02 36.2105L103.813 36.0992L103.622 35.9879C100.206 34.119 97.485 31.197 95.8636 27.6569C94.3588 24.3657 93.8983 20.6925 94.544 17.1317ZM103.813 35.7494L104.004 35.8607L104.211 35.972H104.306V34.4616V29.8827C103.877 29.7396 100.713 28.6744 100.617 25.8603C100.545 25.4572 100.609 25.0416 100.799 24.6789C100.989 24.3162 101.294 24.0271 101.667 23.857C102.456 23.7461 103.26 23.8639 103.985 24.1964C104.709 24.5289 105.322 25.0623 105.753 25.7331C106.309 26.4326 106.595 26.5121 106.738 26.4485C107.184 26.2736 107.072 24.5565 107.009 23.6185C107.009 23.4118 107.009 23.2369 107.009 23.0779C106.959 22.6759 106.992 22.2679 107.107 21.8794C107.222 21.4909 107.416 21.1303 107.677 20.8203C107.855 20.6893 108.063 20.6048 108.283 20.5743C108.502 20.5437 108.725 20.5682 108.932 20.6454H109.155C112.907 21.6629 120.618 23.4277 125.483 22.4102H125.722C125.785 22.4245 125.85 22.4245 125.913 22.4102C127.17 22.1743 128.3 21.4908 129.093 20.4864C129.093 20.4864 132.717 14.1268 131.096 9.54792C130.759 8.63079 130.219 7.80142 129.517 7.12154C128.815 6.44167 127.969 5.92876 127.041 5.62087C126.914 5.55919 126.781 5.51123 126.644 5.47779H126.517C125.976 4.65104 123.035 0.533158 119.076 0.167482C117.985 0.117994 116.896 0.320249 115.896 0.758599C114.895 1.19695 114.008 1.85969 113.305 2.69546C113.255 3.77228 112.956 4.82281 112.43 5.76396C109.255 7.68735 105.682 8.86182 101.985 9.19814C98.2484 9.64332 95.6251 12.6482 94.7348 17.2271C94.1924 20.889 94.7764 24.6292 96.4091 27.9516C98.0419 31.2739 100.646 34.0212 103.877 35.829L103.813 35.7494Z" fill="#231F20"/>
<path d="M91.5237 74.3682L95.3395 86.1175C95.3395 86.1175 84.4803 85.1159 78.3115 88.0254C72.9684 90.5072 68.2438 94.1457 64.4795 98.6777" stroke="#231F20" stroke-width="0.56" stroke-miterlimit="10"/>
<path d="M134.674 77.1505C136.363 79.5322 137.882 82.0292 139.221 84.6231C140.139 86.5094 140.874 88.4793 141.415 90.5057" stroke="#231F20" stroke-width="0.56" stroke-miterlimit="10"/>
<path d="M167.696 109.743C165.567 101.957 162.818 94.3545 159.476 87.0076C159.476 87.0076 156.487 87.0076 151.701 87.3097C148.201 87.7364 144.804 88.7806 141.669 90.394C142.007 95.3209 141.922 100.268 141.414 105.18C140.095 110.665 119.744 121.572 119.744 121.572C121.653 123.893 123.783 126.023 126.104 127.932C129.776 130.873 136.374 138.361 145.771 140.412C155.167 142.463 161.081 139.872 163.53 137.773C167.695 134.243 171.209 122.653 167.696 109.743Z" fill="white" stroke="#231F20" stroke-width="0.57" stroke-miterlimit="10"/>
<path d="M134.912 97.4854C131.039 98.3905 127.59 100.589 125.134 103.718C124.18 104.847 115.77 112.081 108.488 111.985C106.421 111.985 103.845 108.122 101.508 104.163C99.1712 100.204 95.3395 86.1176 95.3395 86.1176C95.3395 86.1176 84.4804 85.1159 78.3116 88.0255C72.8466 90.7062 68.0004 94.4966 64.082 99.1547L64.6385 102.16C64.6385 102.16 66.8484 115.07 70.8073 123.003C74.674 130.159 79.8017 136.558 85.9431 141.891C89.4727 144.689 96.659 147.329 103.114 144.976C109.569 142.623 123.019 122.987 126.962 118.885C130.372 115.326 134.409 112.426 138.871 110.332C141.145 109.378 141.288 108.424 141.59 106.627C141.888 104.228 141.978 101.808 141.86 99.3932C141.892 97.6602 138.664 96.5791 134.912 97.4854Z" fill="white" stroke="#231F20" stroke-width="0.57" stroke-miterlimit="10"/>
<path d="M97.6454 96.5786L91.2858 101.841C91.1894 101.977 91.1043 102.121 91.0314 102.27C89.6959 104.846 88.8533 106.818 89.7437 108.042C90.9045 109.264 92.4574 110.041 94.1318 110.236C94.4263 110.749 94.8371 111.187 95.3314 111.513C95.8257 111.838 96.3895 112.044 96.9776 112.112C97.1223 113.009 97.3788 113.885 97.7409 114.719C98.6154 115.61 101.398 114.195 101.398 114.195C101.514 114.273 101.636 114.342 101.763 114.401C102.478 114.761 103.273 114.935 104.073 114.908C104.873 114.88 105.654 114.651 106.342 114.242C106.93 113.909 106.851 112.907 106.851 112.907C109.477 112.674 112.059 112.091 114.53 111.174C116.556 110.365 118.64 109.706 120.763 109.202L115.595 92.2859C109.493 93.1628 103.484 94.5997 97.6454 96.5786Z" fill="white"/>
<path d="M95.1323 109.87C95.1323 109.87 93.6376 110.109 93.1925 107.899C92.8745 106.42 94.1147 103.256 96.2451 100.935" stroke="#231F20" stroke-width="0.56" stroke-miterlimit="10"/>
<path d="M97.6454 103.988C96.649 105.693 95.8795 107.521 95.356 109.425C95.1653 111.142 97.6772 112.684 97.6772 112.684" stroke="#231F20" stroke-width="0.56" stroke-miterlimit="10"/>
<path d="M99.2346 107.533C99.2346 107.533 97.1996 110.713 97.6447 112.685C98.0899 114.656 101.429 113.798 101.429 113.798" stroke="#231F20" stroke-width="0.56" stroke-miterlimit="10"/>
<path d="M101.38 110.268C101.38 110.268 99.6156 113.32 101.794 114.402C102.509 114.762 103.303 114.936 104.104 114.908C104.904 114.88 105.684 114.651 106.373 114.243C106.961 113.909 106.882 112.907 106.882 112.907" stroke="#231F20" stroke-width="0.56" stroke-miterlimit="10"/>
<path d="M105.975 113.257C109.176 112.644 112.289 111.641 115.244 110.268C117.176 109.454 119.024 108.453 120.761 107.279" stroke="#231F20" stroke-width="0.56" stroke-miterlimit="10"/>
<path d="M93.1451 106.038C92.8112 105.899 92.5113 105.689 92.2661 105.423C92.0209 105.156 91.836 104.84 91.7242 104.496C91.6125 104.152 91.5765 103.788 91.6187 103.428C91.6608 103.069 91.7803 102.723 91.9686 102.413C92.6681 101.078 95.4026 96.9124 97.5967 96.5785C99.7908 96.2446 102.144 97.2621 106.659 98.1684C110.237 98.9474 115.515 100.665 117.693 101.205C121.064 102.064 125.897 102.795 125.897 102.795" stroke="#231F20" stroke-width="0.56" stroke-miterlimit="10"/>
</svg>
