<svg width="168" height="143" viewBox="0 0 168 143" fill="none" xmlns="http://www.w3.org/2000/svg">
<path d="M141.506 65.1361C142.492 56.5824 134.224 53.7047 131.728 38.712C130.647 32.257 131.108 29.0772 130.266 23.3695C129.296 16.8191 127.642 11.1908 122.873 6.45292C119.69 3.03972 115.358 0.922206 110.71 0.506711C106.627 0.396101 102.625 1.65545 99.342 4.08398C95.57 6.872 92.7541 10.7599 91.2813 15.2133C89.6499 19.568 88.3218 24.0303 87.3066 28.5684C86.3209 32.3365 85.3828 35.0711 84.2698 38.2191C80.5813 48.6648 79.1186 49.5392 77.9102 54.4679C77.4651 56.2963 75.5572 64.1663 77.9102 70.3669C83.0933 83.9605 109.708 90.8607 127.197 81.4962C129.82 80.0176 140.425 74.3416 141.506 65.1361Z" fill="#231F20"/>
<path d="M3 137.619H165" stroke="#888281" stroke-width="5" stroke-miterlimit="10" stroke-linecap="round"/>
<path d="M158.406 86.8382C155.226 79.6836 146.434 66.4716 135.305 59.0945C132.19 57.0907 129.186 54.92 126.306 52.5918L111.282 67.3142L91.4556 54.595C83.1735 56.8629 75.4384 60.7899 68.72 66.1377C65.2381 68.8564 50.5792 81.9095 50.5792 81.9095C50.5792 81.9095 52.9006 83.2132 52.519 83.7538C46.8849 91.1986 41.9008 99.1136 37.6216 107.411C32.1683 118.859 32.1045 129.781 40.4515 133.74C57.1931 141.69 105.033 140.656 105.033 140.656V140.561C106.941 140.688 122.236 141.753 127.737 141.896C132.107 142.168 136.489 141.629 140.663 140.307C141.01 140.189 141.329 140.001 141.6 139.755C141.871 139.508 142.088 139.208 142.237 138.874C142.386 138.539 142.465 138.177 142.467 137.811C142.47 137.445 142.397 137.082 142.253 136.745L145.147 135.346H160.934C163.017 122.277 163.383 110.289 160.934 99.8277L163.637 98.1265C163.637 98.1265 159.408 89.1435 158.406 86.8382Z" fill="white"/>
<path d="M161.141 99.7319C163.637 112.896 162.73 124.391 160.918 135.473" stroke="#231F20" stroke-width="0.57" stroke-miterlimit="10"/>
<path d="M91.4551 54.5311L111.281 67.2503L126.306 52.5278C126.306 52.5278 135.845 59.2372 141.728 63.6571" stroke="#231F20" stroke-width="0.57" stroke-miterlimit="10"/>
<path d="M74.7295 105.504C73.4523 106.9 72.6314 108.653 72.3764 110.528C71.9949 115.298 76.9235 117.81 85.2546 118.986C92.1548 119.972 105.685 118.986 105.685 118.986C106.766 122.835 107.301 126.817 107.275 130.815C106.912 134.123 106.187 137.38 105.112 140.529C105.112 140.529 57.2724 141.595 40.5307 133.613C32.1837 129.655 32.2473 118.732 37.7007 107.285C41.8164 98.8944 46.8101 90.9642 52.598 83.627" stroke="#231F20" stroke-width="0.57" stroke-miterlimit="10"/>
<path d="M119.565 39.8566C121.25 37.8534 122.077 33.0837 122.475 28.8227C123.331 28.867 124.169 28.5694 124.806 27.9955C125.442 27.4215 125.825 26.6182 125.869 25.7622C125.913 24.9062 125.616 24.0677 125.042 23.4311C124.468 22.7945 123.664 22.412 122.808 22.3678C122.808 22.0816 122.808 21.8272 122.808 21.6046V17.6458C121.203 17.454 119.695 16.7773 118.484 15.7061C117.242 14.5317 116.2 13.1622 115.399 11.6519C112.867 13.4512 110.074 14.8508 107.116 15.8015C103.761 16.6399 100.341 17.1983 96.893 17.4709C96.893 17.4709 96.7659 19.49 96.7659 22.3201C95.957 22.4001 95.2069 22.778 94.6611 23.3804C94.1154 23.9827 93.813 24.7665 93.813 25.5793C93.813 26.3922 94.1154 27.176 94.6611 27.7784C95.2069 28.3807 95.957 28.7587 96.7659 28.8387H97.0522C97.2277 31.5213 97.8009 34.1629 98.7533 36.6769C99.3826 38.1035 100.291 39.3901 101.424 40.4608C101.424 42.0507 101.424 43.8791 101.424 45.0556C101.329 47.3451 100.804 49.8253 99.739 50.7952C97.9905 51.8481 96.1292 52.7014 94.1903 53.339L111.298 67.2665L124.335 51.7491C122.189 51.8175 120.053 51.4273 118.071 50.6044C115.268 49.3364 112.988 47.1409 111.616 44.3879C113.18 44.218 114.694 43.7281 116.061 42.9486C117.429 42.1691 118.621 41.1166 119.565 39.8566Z" fill="white" stroke="#231F20" stroke-width="0.57" stroke-miterlimit="10"/>
<path d="M111.281 67.2979L98.5615 56.1686C98.5615 56.1686 97.4169 54.8967 96.447 53.8792C95.6567 53.0124 94.9187 52.0992 94.2371 51.1445C94.2371 51.1445 91.3275 51.9395 89.2129 52.5595C87.0984 53.1796 84.6341 53.6089 85.3337 55.2941C86.0332 56.9794 87.0983 60.9224 89.1333 61.6537C91.2253 62.0772 93.3682 62.1897 95.4929 61.9877C94.7023 62.8922 94.2821 64.0619 94.3164 65.2628C94.3164 67.2025 105.446 79.4606 105.446 79.4606L111.281 67.2979Z" fill="white" stroke="#231F20" stroke-width="0.57" stroke-miterlimit="10"/>
<path d="M122.284 50.8267L111.282 67.298L117.975 78.8566L124.144 68.1248C124.144 68.1248 126.02 65.4855 125.432 64.0864C124.741 62.5263 123.894 61.0401 122.904 59.6506L127.356 60.2548C127.356 60.2548 131.378 61.0497 132.125 58.9352C132.628 57.028 132.628 55.0232 132.125 53.1161C131.505 51.5262 129.725 51.3513 127.356 51.1764C124.987 51.0016 122.284 50.8267 122.284 50.8267Z" fill="white" stroke="#231F20" stroke-width="0.57" stroke-miterlimit="10"/>
<path d="M86.9555 95.503C84.949 96.7302 83.0645 98.1464 81.3274 99.7322C79.0607 101.684 77.1414 104.007 75.6514 106.601C75.6514 106.601 69.1009 100.766 62.2962 94.1993C55.078 87.2514 50.5786 81.8458 50.5786 81.8458C54.1225 78.0723 57.915 74.5402 61.9305 71.273C66.8935 67.1041 72.2137 63.38 77.8295 60.1437C80.3821 58.7055 83.0394 57.4619 85.779 56.4233" stroke="#231F20" stroke-width="0.56" stroke-miterlimit="10"/>
<path d="M137.817 109.51C137.817 109.51 142.046 109.701 150.536 105.615C155.115 103.494 159.494 100.967 163.621 98.0628C162.124 94.0512 160.3 90.1694 158.168 86.4565C155.172 80.6976 151.677 75.2126 147.722 70.0647C145.87 67.797 143.85 65.6712 141.68 63.7051" stroke="#231F20" stroke-width="0.56" stroke-miterlimit="10"/>
<path d="M98.2608 125.123C99.0642 127.731 99.419 130.457 99.3102 133.184C98.7015 135.65 97.7319 138.013 96.4326 140.195" stroke="#231F20" stroke-width="0.56" stroke-miterlimit="10"/>
<path d="M104.874 140.481C104.874 140.481 121.902 141.674 127.769 141.833C132.138 142.105 136.521 141.566 140.695 140.243C143.445 139.209 142.094 136.268 142.094 136.268" stroke="#231F20" stroke-width="0.56" stroke-miterlimit="10"/>
<path d="M124.637 136.284C124.637 136.284 129.295 136.65 134.049 136.697C138.803 136.745 143.589 136.347 145.449 135.107C147.897 133.517 145.179 130.719 145.179 130.719" stroke="#231F20" stroke-width="0.56" stroke-miterlimit="10"/>
<path d="M127.372 130.274C131.544 130.71 135.738 130.912 139.932 130.879C146.022 130.799 149.567 129.956 150.171 127.81C150.966 124.964 144.559 123.39 144.559 123.39" stroke="#231F20" stroke-width="0.56" stroke-miterlimit="10"/>
<path d="M130.281 123.994C130.281 123.994 141.728 124.169 145.83 123.104C149.932 122.038 148.612 117.014 144.542 117.03H122.284" stroke="#231F20" stroke-width="0.56" stroke-miterlimit="10"/>
<path d="M105.685 119.924C105.685 119.924 112.045 119.574 114.938 116.999C117.832 114.423 119.542 111.418 120.019 108.111C120.432 105.265 118.786 100.957 122.284 100.559C125.781 100.162 128.023 105.027 128.214 108.302C128.405 111.577 128.214 117.078 128.214 117.078" stroke="#231F20" stroke-width="0.56" stroke-miterlimit="10"/>
<path d="M132.968 96.0596C132.968 96.0596 137.833 105.138 137.738 109.51C137.643 113.882 137.388 117.03 137.388 117.03" stroke="#231F20" stroke-width="0.56" stroke-miterlimit="10"/>
</svg>
