<svg width="211" height="196" viewBox="0 0 211 196" fill="none" xmlns="http://www.w3.org/2000/svg">
<path d="M101.642 162.315C116.889 158.316 132.402 155.409 148.063 153.617C164.879 151.536 174.258 152.112 185.756 144.943C193.364 140.189 196.283 135.544 197.451 133.53C203.264 123.109 200.375 111.952 199.234 107.562C198.425 104.436 197.474 93.9291 184.294 84.3193C179.712 80.9684 173.108 78.5296 169.5 75.8096C165.891 73.0897 161.5 69.3097 157.5 65.3097C153.5 61.3097 149.5 56.8097 145 50.8097C140.5 44.8097 130.5 36.8097 121.5 32.8097C112.5 28.8097 99.9997 25.8097 83.4997 28.8097C66.9997 31.8097 40.4995 49.3097 32.3231 61.2099C24.1467 73.1101 16.0387 88.964 22.0351 114.72C27.9639 140.212 50.0543 156.617 68.9797 161.662C79.6782 164.36 90.8484 164.583 101.642 162.315Z" fill="#00AEEF"/>
</svg>
