<svg width="181" height="143" viewBox="0 0 181 143" fill="none" xmlns="http://www.w3.org/2000/svg">
<path d="M148.488 65.1361C149.473 56.5824 141.206 53.7047 138.71 38.712C137.629 32.257 138.09 29.0772 137.247 23.3695C136.277 16.8191 134.624 11.1908 129.854 6.45292C126.671 3.03972 122.34 0.922206 117.691 0.506711C113.609 0.396101 109.607 1.65545 106.323 4.08398C102.551 6.872 99.7356 10.7599 98.2628 15.2133C96.6313 19.568 95.3033 24.0303 94.288 28.5684C93.3023 32.3365 92.3642 35.0711 91.2513 38.2191C87.5627 48.6648 86.1 49.5392 84.8917 54.4679C84.4465 56.2963 82.5386 64.1663 84.8917 70.3669C90.0748 83.9605 116.69 90.8607 134.179 81.4962C136.802 80.0176 147.407 74.3416 148.488 65.1361Z" fill="#231F20"/>
<path d="M3 137.619H178" stroke="#00AEEF" stroke-width="5" stroke-miterlimit="10" stroke-linecap="round"/>
<path d="M165.388 86.8381C162.208 79.6835 153.416 66.4715 142.286 59.0944C139.172 57.0906 136.168 54.9199 133.288 52.5917L118.263 67.3141L98.437 54.5949C90.1549 56.8628 82.4199 60.7898 75.7014 66.1376C72.2195 68.8563 57.5606 81.9094 57.5606 81.9094C57.5606 81.9094 59.882 83.2131 59.5004 83.7537C53.8664 91.1984 48.8823 99.1134 44.6031 107.411C39.1497 118.859 39.086 129.781 47.433 133.74C64.1746 141.69 112.015 140.656 112.015 140.656V140.561C113.923 140.688 129.217 141.753 134.718 141.896C139.088 142.168 143.471 141.629 147.644 140.306C147.991 140.189 148.31 140.001 148.581 139.755C148.852 139.508 149.069 139.208 149.218 138.873C149.368 138.539 149.446 138.177 149.449 137.811C149.452 137.445 149.379 137.082 149.234 136.745L152.128 135.346H167.916C169.998 122.277 170.364 110.289 167.916 99.8276L170.618 98.1264C170.618 98.1264 166.389 89.1434 165.388 86.8381Z" fill="white"/>
<path d="M168.122 99.7319C170.618 112.896 169.712 124.391 167.899 135.473" stroke="#231F20" stroke-width="0.57" stroke-miterlimit="10"/>
<path d="M98.4365 54.5314L118.263 67.2506L133.287 52.5281C133.287 52.5281 142.826 59.2375 148.709 63.6574" stroke="#231F20" stroke-width="0.57" stroke-miterlimit="10"/>
<path d="M81.7109 105.504C80.4337 106.9 79.6129 108.653 79.3579 110.528C78.9763 115.298 83.905 117.81 92.236 118.986C99.1362 119.972 112.666 118.986 112.666 118.986C113.748 122.835 114.283 126.817 114.256 130.815C113.893 134.123 113.168 137.38 112.094 140.529C112.094 140.529 64.2538 141.595 47.5122 133.613C39.1652 129.654 39.2287 118.732 44.6821 107.285C48.7978 98.8943 53.7915 90.9641 59.5794 83.6268" stroke="#231F20" stroke-width="0.57" stroke-miterlimit="10"/>
<path d="M126.546 39.8565C128.232 37.8533 129.059 33.0836 129.456 28.8226C130.312 28.8669 131.151 28.5693 131.787 27.9954C132.424 27.4214 132.806 26.6181 132.851 25.7621C132.895 24.9061 132.597 24.0676 132.023 23.431C131.449 22.7944 130.646 22.4119 129.79 22.3676C129.79 22.0815 129.79 21.8271 129.79 21.6045V17.6456C128.185 17.4538 126.676 16.7772 125.465 15.706C124.223 14.5316 123.181 13.1621 122.381 11.6517C119.849 13.4511 117.055 14.8506 114.098 15.8013C110.742 16.6397 107.322 17.1981 103.874 17.4708C103.874 17.4708 103.747 19.4899 103.747 22.3199C102.938 22.3999 102.188 22.7779 101.643 23.3802C101.097 23.9826 100.794 24.7664 100.794 25.5792C100.794 26.392 101.097 27.1759 101.643 27.7782C102.188 28.3806 102.938 28.7585 103.747 28.8385H104.034C104.209 31.5211 104.782 34.1627 105.735 36.6767C106.364 38.1034 107.272 39.3899 108.406 40.4607C108.406 42.0506 108.406 43.879 108.406 45.0555C108.31 47.3449 107.786 49.8252 106.72 50.795C104.972 51.848 103.111 52.7013 101.172 53.3389L118.279 67.2664L131.316 51.749C129.17 51.8174 127.035 51.4271 125.052 50.6043C122.249 49.3363 119.969 47.1407 118.597 44.3877C120.162 44.2179 121.675 43.728 123.043 42.9485C124.41 42.1689 125.603 41.1165 126.546 39.8565Z" fill="white" stroke="#231F20" stroke-width="0.57" stroke-miterlimit="10"/>
<path d="M118.262 67.2982L105.543 56.1689C105.543 56.1689 104.398 54.8969 103.428 53.8794C102.638 53.0126 101.9 52.0994 101.219 51.1448C101.219 51.1448 98.3089 51.9397 96.1944 52.5598C94.0798 53.1798 91.6155 53.6091 92.3151 55.2944C93.0147 56.9797 94.0797 60.9226 96.1148 61.654C98.2067 62.0774 100.35 62.1899 102.474 61.9879C101.684 62.8925 101.264 64.0621 101.298 65.2631C101.298 67.2028 112.427 79.4609 112.427 79.4609L118.262 67.2982Z" fill="white" stroke="#231F20" stroke-width="0.57" stroke-miterlimit="10"/>
<path d="M129.265 50.8269L118.263 67.2983L124.957 78.8568L131.125 68.125C131.125 68.125 133.002 65.4858 132.413 64.0867C131.723 62.5265 130.875 61.0404 129.885 59.6509L134.337 60.255C134.337 60.255 138.359 61.05 139.107 58.9354C139.609 57.0283 139.609 55.0235 139.107 53.1164C138.487 51.5265 136.706 51.3516 134.337 51.1767C131.968 51.0018 129.265 50.8269 129.265 50.8269Z" fill="white" stroke="#231F20" stroke-width="0.57" stroke-miterlimit="10"/>
<path d="M93.937 95.5029C91.9304 96.7301 90.0459 98.1463 88.3088 99.7321C86.0422 101.684 84.1229 104.007 82.6328 106.6C82.6328 106.6 76.0824 100.765 69.2776 94.1992C62.0595 87.2513 57.5601 81.8457 57.5601 81.8457C61.104 78.0722 64.8964 74.54 68.912 71.2729C73.875 67.104 79.1951 63.3799 84.811 60.1436C87.3635 58.7054 90.0209 57.4618 92.7604 56.4232" stroke="#231F20" stroke-width="0.56" stroke-miterlimit="10"/>
<path d="M144.798 109.51C144.798 109.51 149.027 109.701 157.518 105.615C162.096 103.494 166.476 100.967 170.603 98.0629C169.106 94.0514 167.282 90.1696 165.149 86.4567C162.153 80.6977 158.658 75.2128 154.704 70.0648C152.851 67.7971 150.832 65.6713 148.662 63.7052" stroke="#231F20" stroke-width="0.56" stroke-miterlimit="10"/>
<path d="M105.242 125.123C106.046 127.731 106.4 130.457 106.292 133.184C105.683 135.65 104.713 138.013 103.414 140.195" stroke="#231F20" stroke-width="0.56" stroke-miterlimit="10"/>
<path d="M111.855 140.481C111.855 140.481 128.883 141.674 134.75 141.833C139.12 142.105 143.502 141.566 147.676 140.243C150.426 139.209 149.075 136.268 149.075 136.268" stroke="#231F20" stroke-width="0.56" stroke-miterlimit="10"/>
<path d="M131.619 136.284C131.619 136.284 136.277 136.649 141.031 136.697C145.785 136.745 150.57 136.347 152.43 135.107C154.879 133.517 152.16 130.719 152.16 130.719" stroke="#231F20" stroke-width="0.56" stroke-miterlimit="10"/>
<path d="M134.354 130.274C138.526 130.71 142.719 130.912 146.914 130.878C153.003 130.799 156.548 129.956 157.153 127.81C157.948 124.964 151.54 123.39 151.54 123.39" stroke="#231F20" stroke-width="0.56" stroke-miterlimit="10"/>
<path d="M137.262 123.994C137.262 123.994 148.71 124.169 152.811 123.104C156.913 122.038 155.594 117.014 151.524 117.03H129.265" stroke="#231F20" stroke-width="0.56" stroke-miterlimit="10"/>
<path d="M112.667 119.924C112.667 119.924 119.026 119.574 121.92 116.998C124.813 114.423 126.523 111.418 127 108.111C127.413 105.265 125.767 100.956 129.265 100.559C132.763 100.161 135.005 105.026 135.195 108.302C135.386 111.577 135.195 117.078 135.195 117.078" stroke="#231F20" stroke-width="0.56" stroke-miterlimit="10"/>
<path d="M139.95 96.0593C139.95 96.0593 144.815 105.138 144.719 109.51C144.624 113.882 144.37 117.03 144.37 117.03" stroke="#231F20" stroke-width="0.56" stroke-miterlimit="10"/>
</svg>
