<svg width="195" height="137" viewBox="0 0 195 137" fill="none" xmlns="http://www.w3.org/2000/svg">
<g clip-path="url(#clip0)">
<path d="M23.6865 105.666C23.6865 105.666 13.7453 106.336 10.0333 106.209C6.32121 106.081 3.66063 106.001 3.24641 108.235C3.22104 108.631 3.27567 109.03 3.40704 109.405C3.53841 109.78 3.74381 110.125 4.01109 110.42C4.01109 110.42 1 110.133 1 112.701C1 114.647 3.96325 114.822 3.96325 114.822C3.96325 114.822 2.06749 114.95 2.2746 117.247C2.44985 119.193 5.93875 119.4 5.93875 119.4C5.93875 119.4 3.23044 120.804 5.20596 122.447C7.18147 124.09 15.1632 124.042 18.923 124.186C22.8761 124.256 26.8189 123.762 30.6327 122.718C32.3688 122.213 34.2318 122.39 35.8423 123.213C40.335 125.382 51.2164 127.615 56.665 129.37C65.413 132.221 74.5489 133.701 83.7486 133.756C88.8938 133.984 94.0428 133.408 99.011 132.05L191.541 134.075C191.541 134.075 192.832 130.12 193.501 127.264C193.958 124.99 194.267 122.688 194.425 120.373C194.425 120.373 194.903 115.157 189.136 99.238C186.314 91.0864 182.572 83.2837 177.984 75.9812C172.71 67.6068 166.051 63.0606 161.128 59.5514C157.332 56.8091 153.042 54.8267 148.494 53.7132L119.372 52.6445C109.287 54.6065 97.0674 59.025 90.6948 67.6387C85.9153 74.0191 78.7302 82.1702 76.3564 91.4698C74.4924 98.9509 73.8869 102.364 73.9029 106.049V106.815C72.2141 106.815 69.7288 107.022 66.1601 107.405C52.921 108.825 39.4429 109.255 39.4429 109.255C36.6693 108.391 34.0266 107.152 31.5885 105.571C29.5384 104.09 27.5756 102.493 25.7099 100.785C24.3079 99.3975 22.3006 97.4515 21.5677 98.1374C20.8731 98.8346 20.4546 99.7605 20.3901 100.743C20.3257 101.726 20.6197 102.699 21.2173 103.481C21.9102 104.348 22.7386 105.097 23.6706 105.698L23.6865 105.666Z" fill="white"/>
<path d="M148.542 53.7134C152.988 55.1025 157.235 57.065 161.176 59.5515C168.03 63.5944 173.811 69.2297 178.031 75.9813C182.62 83.2839 186.361 91.0865 189.183 99.2381C194.951 115.189 194.473 120.373 194.473 120.373C194.315 122.688 194.006 124.99 193.549 127.264C192.88 130.12 191.589 134.076 191.589 134.076" stroke="#231F20" stroke-width="0.57" stroke-miterlimit="10"/>
<path d="M119.419 52.6445C109.334 54.6065 98.1346 59.36 90.7423 67.6387C84.529 74.5296 79.5902 81.4205 76.4039 91.4698C74.7096 96.4551 73.8746 101.693 73.9347 106.958" stroke="#231F20" stroke-width="0.57" stroke-miterlimit="10"/>
<path d="M160.538 111.377C165.036 111.2 169.491 110.439 173.793 109.112C179.522 107.385 184.84 104.509 189.422 100.658" stroke="#231F20" stroke-width="0.57" stroke-miterlimit="10"/>
<path d="M99.0109 105.172C99.0109 105.172 96.0476 102.891 88.6713 101.04C84.0424 99.861 79.2622 99.3878 74.4922 99.6367" stroke="#231F20" stroke-width="0.57" stroke-miterlimit="10"/>
<path d="M115.214 29.0849L110.992 25.5597C110.627 25.2628 110.331 24.8885 110.128 24.4638C109.924 24.0391 109.816 23.5744 109.813 23.1032L109.574 8.74707L114.354 10.1986L115.214 29.0849Z" fill="#231F20"/>
<path d="M146.98 18.1582C147.172 10.3899 145.387 -0.281448 129.281 0.00567369C129.281 0.00567369 119.339 0.165186 114.05 0.00567369C103.678 -0.16979 101.687 12.7666 110.975 14.6489C112.791 15.0157 125.202 34.4603 125.425 35.8002C128.691 33.8222 128.739 49.7894 128.866 51.0176L138.776 36.3584C143.205 35.4811 146.295 34.9388 146.741 31.3658L146.98 18.1582Z" fill="#231F20"/>
<path d="M144.337 52.182C143.922 51.9587 143.397 51.4323 143.413 50.9697L142.903 36.6136L142.441 20.79C142.441 20.79 131.289 22.3851 126.509 18.3654C126.248 18.0743 125.971 17.7974 125.681 17.536C125.219 16.9612 124.878 16.2994 124.677 15.5899C122.59 15.3825 117.094 14.7445 114.592 14.4574C114.432 14.4369 114.27 14.4509 114.115 14.4986C113.961 14.5463 113.819 14.6265 113.698 14.7337C113.577 14.841 113.481 14.9729 113.415 15.1206C113.35 15.2683 113.316 15.4283 113.318 15.5899C113.318 20.0881 112.697 34.1093 115.389 37.6983C117.208 40.3085 119.925 42.1545 123.02 42.8824L123.514 49.5819C123.585 50.0653 123.465 50.5573 123.18 50.9538C122.588 51.6882 121.75 52.1816 120.822 52.3415L119.451 52.5967C119.451 52.5967 122.733 61.4975 134.586 61.2263C146.439 60.9552 148.574 53.6654 148.574 53.6654C147.127 53.2756 145.711 52.7798 144.337 52.182Z" fill="white" stroke="#231F20" stroke-width="0.57" stroke-miterlimit="10"/>
<path d="M145.595 29.4516C145.595 32.259 143.747 36.4223 139.812 36.4861V34.6517C139.717 29.0369 135.511 17.4085 135.511 17.4085C135.511 14.5851 137.104 12.2721 139.287 12.2402C143.62 12.2402 145.372 14.4096 145.42 17.233L145.595 29.4516Z" fill="#231F20"/>
<path d="M141.979 24.4267C142.03 25.3783 141.795 26.3233 141.306 27.1407C140.817 27.9581 140.095 28.6106 139.233 29.0147C138.371 29.4188 137.408 29.556 136.468 29.4088C135.528 29.2616 134.653 28.8366 133.955 28.1883C133.257 27.5401 132.769 26.6981 132.552 25.7702C132.336 24.8423 132.401 23.8707 132.739 22.98C133.077 22.0893 133.673 21.32 134.451 20.7707C135.229 20.2213 136.152 19.917 137.104 19.8966C138.345 19.87 139.548 20.3279 140.458 21.1734C141.367 22.0189 141.913 23.1856 141.979 24.4267Z" fill="white"/>
<path d="M133.423 23.071C133.312 26.0219 134.523 40.2504 134.523 40.2504C134.54 40.5291 134.491 40.808 134.379 41.0639C133.917 42.1646 132.404 45.1793 129.424 45.7057C125.504 46.1223 121.561 46.2981 117.619 46.2321C116.9 46.2456 116.186 46.0963 115.533 45.7952C114.879 45.4941 114.301 45.0491 113.843 44.4934C113.229 43.7679 112.87 42.8596 112.824 41.9093C112.684 39.2037 112.796 36.491 113.158 33.8061C113.334 32.9448 114.146 31.1901 115.006 30.9987C117.637 30.3705 120.387 30.4586 122.972 31.2539C123.639 31.4951 124.35 31.5905 125.057 31.5337C125.764 31.4769 126.451 31.2694 127.071 30.9249C127.691 30.5804 128.231 30.1069 128.653 29.5364C129.076 28.9659 129.371 28.3114 129.52 27.6171C129.727 26.2931 130.093 21.6832 130.364 19.9605C130.508 19.0034 131.559 19.6893 132.531 19.6734H135.462C136.594 19.6574 133.551 20.1678 133.423 23.071Z" fill="#231F20"/>
<path d="M160.57 133.134C161.138 131.857 161.596 130.533 161.94 129.178C162.547 126.961 163.01 124.708 163.327 122.431C161.245 117.048 159.838 111.428 159.137 105.698C158.501 101.801 158.181 97.8589 158.181 93.9102" stroke="#231F20" stroke-width="0.57" stroke-miterlimit="10"/>
<path d="M77.4557 106.958C77.4557 106.958 75.7511 106.368 66.1762 107.405C52.9371 108.825 39.4589 109.255 39.4589 109.255C36.6853 108.391 34.0427 107.151 31.6046 105.57C29.5544 104.09 27.5917 102.492 25.7259 100.785C24.3239 99.3973 22.3166 97.4513 21.5838 98.1372C20.8891 98.8345 20.4707 99.7604 20.4062 100.743C20.3417 101.726 20.6355 102.699 21.2331 103.481C22.1203 104.523 23.1629 105.421 24.3239 106.145C24.4162 106.212 24.4937 106.298 24.5513 106.397C24.6089 106.496 24.6452 106.605 24.6584 106.719C24.7082 108.304 25.1813 109.846 26.0285 111.185C26.9661 112.079 27.9613 112.911 29.0077 113.674" stroke="#231F20" stroke-width="0.57" stroke-miterlimit="10"/>
<path d="M18.9233 110.436C18.9233 110.436 13.5225 110.739 10.7345 110.643L3.97949 110.436" stroke="#231F20" stroke-width="0.57" stroke-miterlimit="10"/>
<path d="M19.5442 114.902C19.5442 114.902 12.869 115.205 8.67895 115.126C4.48895 115.046 3.59668 114.902 3.59668 114.902" stroke="#231F20" stroke-width="0.57" stroke-miterlimit="10"/>
<path d="M18.9231 119.161C18.9231 119.161 16.6767 119.385 13.9365 119.416C11.1963 119.448 5.9707 119.416 5.9707 119.416" stroke="#231F20" stroke-width="0.57" stroke-miterlimit="10"/>
<path d="M99.011 93.3682V132.05C94.0428 133.408 88.8938 133.984 83.7487 133.757C74.5489 133.701 65.413 132.222 56.665 129.37C51.2164 127.615 40.335 125.382 35.8423 123.213C34.2318 122.391 32.3688 122.214 30.6327 122.718C26.8189 123.762 22.8761 124.256 18.923 124.186C15.1632 124.074 6.99029 123.947 5.20596 122.447C3.42162 120.948 5.93875 119.401 5.93875 119.401C5.93875 119.401 2.44985 119.193 2.2746 117.247C2.06749 114.95 3.96325 114.823 3.96325 114.823C3.96325 114.823 1 114.647 1 112.701C1 110.133 4.01109 110.42 4.01109 110.42C3.74381 110.126 3.53841 109.781 3.40704 109.405C3.27567 109.03 3.22104 108.632 3.24641 108.235C3.62876 106.002 6.33714 106.065 10.0333 106.209C13.7294 106.352 23.6865 105.667 23.6865 105.667" stroke="#231F20" stroke-width="0.57" stroke-miterlimit="10"/>
<path d="M3 133L190 133.708" stroke="#544CA0" stroke-width="5" stroke-miterlimit="10" stroke-linecap="round"/>
</g>
<defs>
<clipPath id="clip0">
<rect width="195" height="137" fill="white"/>
</clipPath>
</defs>
</svg>
