<svg width="162" height="145" viewBox="0 0 162 145" fill="none" xmlns="http://www.w3.org/2000/svg">
<path d="M19.7188 111.852C19.7188 111.852 11.4639 112.557 8.38147 112.423C5.29906 112.288 3.08976 112.204 2.7458 114.553C2.72474 114.972 2.7701 115.39 2.8792 115.785C2.98828 116.18 3.15884 116.543 3.38078 116.853C3.38078 116.853 0.880432 116.551 0.880432 119.252C0.880432 121.299 3.34105 121.484 3.34105 121.484C3.34105 121.484 1.76685 121.618 1.93884 124.034C2.08436 126.082 4.98147 126.299 4.98147 126.299C4.98147 126.299 2.73255 127.776 4.37298 129.505C6.0134 131.233 12.6412 131.183 15.7633 131.334C19.0459 131.408 22.32 130.888 25.4868 129.791C26.9284 129.26 28.4755 129.445 29.8128 130.31C33.5434 132.592 42.5791 134.941 47.1035 136.787C54.3676 139.788 61.9539 141.344 69.5933 141.402C73.8657 141.642 78.1412 141.036 82.2668 139.607L159.102 141.737C159.102 141.737 160.174 137.576 160.73 134.572C161.109 132.18 161.365 129.758 161.496 127.323C161.496 127.323 161.893 121.837 157.105 105.09C154.761 96.5146 151.654 88.3063 147.844 80.6242C143.465 71.8146 137.935 67.0323 133.847 63.3406C130.695 60.4557 127.133 58.3704 123.357 57.199L99.1739 56.0747C90.8001 58.1388 80.6528 62.7869 75.3612 71.8482C71.3924 78.5602 65.426 87.135 63.4549 96.9178C61.907 104.788 61.4043 108.379 61.4175 112.255V113.06C60.0152 113.06 57.9514 113.278 54.9881 113.681C43.9946 115.175 32.8026 115.627 32.8026 115.627C30.4995 114.718 28.3051 113.415 26.2805 111.752C24.5781 110.194 22.9483 108.514 21.399 106.717C20.2349 105.258 18.568 103.21 17.9595 103.932C17.3826 104.665 17.0352 105.64 16.9816 106.673C16.9281 107.707 17.1722 108.73 17.6685 109.553C18.2438 110.465 18.9317 111.253 19.7056 111.885L19.7188 111.852Z" fill="white"/>
<path d="M123.396 57.1994C127.088 58.6608 130.615 60.7252 133.887 63.341C139.579 67.594 144.379 73.5221 147.884 80.6247C151.694 88.3067 154.801 96.5149 157.144 105.09C161.933 121.87 161.536 127.325 161.536 127.325C161.405 129.759 161.149 132.181 160.769 134.573C160.214 137.577 159.142 141.739 159.142 141.739" stroke="#231F20" stroke-width="0.57" stroke-miterlimit="10"/>
<path d="M99.2135 56.0747C90.8389 58.1388 81.5389 63.1393 75.4005 71.8482C70.2412 79.0972 66.1401 86.3463 63.4942 96.9178C62.0873 102.162 61.394 107.672 61.4438 113.212" stroke="#231F20" stroke-width="0.57" stroke-miterlimit="10"/>
<path d="M133.358 117.859C137.093 117.674 140.792 116.873 144.364 115.477C149.121 113.661 153.537 110.635 157.343 106.583" stroke="#231F20" stroke-width="0.57" stroke-miterlimit="10"/>
<path d="M82.2667 111.332C82.2667 111.332 79.806 108.932 73.6809 106.986C69.8371 105.745 65.8678 105.247 61.9069 105.509" stroke="#231F20" stroke-width="0.57" stroke-miterlimit="10"/>
<path d="M95.7217 31.2906L92.2159 27.5821C91.9121 27.2698 91.6665 26.8761 91.4974 26.4294C91.3284 25.9826 91.2395 25.4937 91.2368 24.998L91.0378 9.89577L95.0068 11.4228L95.7217 31.2906Z" fill="#231F20"/>
<path d="M122.1 19.7963C122.259 11.6243 120.777 0.398314 107.402 0.700358C107.402 0.700358 99.1466 0.86816 94.755 0.700358C86.1426 0.515775 84.4891 14.1246 92.2018 16.1046C93.71 16.4905 104.015 36.9457 104.2 38.3552C106.913 36.2744 106.953 53.0715 107.058 54.3635L115.287 38.9424C118.964 38.0196 121.531 37.449 121.901 33.6903L122.1 19.7963Z" fill="#231F20"/>
<path d="M119.905 55.5885C119.56 55.3536 119.124 54.7998 119.137 54.3132L118.713 39.211L118.33 22.565C118.33 22.565 109.07 24.243 105.101 20.0145C104.884 19.7082 104.655 19.4169 104.413 19.1419C104.03 18.5372 103.746 17.841 103.58 17.0947C101.846 16.8765 97.2828 16.2053 95.2058 15.9033C95.0729 15.8817 94.9373 15.8966 94.8096 15.9467C94.6811 15.9968 94.5631 16.0812 94.4627 16.194C94.3624 16.3069 94.2822 16.4457 94.2285 16.6009C94.1739 16.7563 94.1458 16.9246 94.1466 17.0947C94.1466 21.8267 93.6316 36.5766 95.867 40.352C97.3778 43.0979 99.6335 45.0399 102.204 45.8057L102.614 52.8533C102.673 53.3619 102.572 53.8794 102.336 54.2965C101.845 55.069 101.149 55.5881 100.378 55.7563L99.24 56.0248C99.24 56.0248 101.966 65.3882 111.808 65.1029C121.651 64.8177 123.424 57.1491 123.424 57.1491C122.222 56.7391 121.046 56.2174 119.905 55.5885Z" fill="white" stroke="#231F20" stroke-width="0.57" stroke-miterlimit="10"/>
<path d="M120.95 31.6767C120.95 34.6301 119.415 39.0097 116.147 39.0768V37.1471C116.068 31.2405 112.575 19.0077 112.575 19.0077C112.575 16.0376 113.898 13.6045 115.71 13.5709C119.309 13.5709 120.764 15.853 120.804 18.8231L120.95 31.6767Z" fill="#231F20"/>
<path d="M117.947 26.3909C117.988 27.392 117.793 28.3861 117.387 29.2459C116.981 30.1058 116.382 30.7923 115.666 31.2174C114.95 31.6425 114.151 31.7868 113.37 31.6319C112.589 31.477 111.863 31.0299 111.283 30.3481C110.704 29.6661 110.298 28.7803 110.119 27.8042C109.939 26.8281 109.993 25.806 110.274 24.8691C110.554 23.932 111.049 23.1227 111.695 22.5448C112.341 21.9669 113.108 21.6468 113.898 21.6253C114.928 21.5973 115.928 22.079 116.683 22.9684C117.439 23.8579 117.892 25.0853 117.947 26.3909Z" fill="white"/>
<path d="M110.842 24.9642C110.75 28.0685 111.755 43.0366 111.755 43.0366C111.769 43.3297 111.729 43.6231 111.636 43.8923C111.253 45.0502 109.995 48.2216 107.521 48.7753C104.265 49.2137 100.992 49.3985 97.7186 49.3291C97.1208 49.3433 96.5291 49.1862 95.9859 48.8695C95.4435 48.5528 94.9637 48.0847 94.5833 47.5001C94.0727 46.7367 93.7751 45.7813 93.7364 44.7817C93.621 41.9354 93.7135 39.0817 94.0146 36.2574C94.1599 35.3512 94.8351 33.5054 95.5492 33.304C97.7335 32.6432 100.017 32.7359 102.164 33.5725C102.718 33.8262 103.308 33.9265 103.895 33.8668C104.482 33.8071 105.053 33.5887 105.568 33.2263C106.083 32.8639 106.531 32.3659 106.881 31.7657C107.232 31.1655 107.477 30.4771 107.601 29.7466C107.773 28.3539 108.077 23.5043 108.302 21.6921C108.421 20.6853 109.295 21.4068 110.101 21.3901H112.535C113.475 21.3732 110.948 21.9102 110.842 24.9642Z" fill="#231F20"/>
<path d="M133.385 140.748C133.856 139.404 134.236 138.012 134.523 136.587C135.026 134.254 135.41 131.883 135.673 129.488C133.945 123.826 132.777 117.913 132.194 111.886C131.665 107.786 131.4 103.639 131.4 99.4854" stroke="#231F20" stroke-width="0.57" stroke-miterlimit="10"/>
<path d="M64.3674 113.212C64.3674 113.212 62.952 112.59 55.0012 113.681C44.0077 115.175 32.8157 115.627 32.8157 115.627C30.5126 114.718 28.3182 113.415 26.2937 111.752C24.5912 110.194 22.9614 108.514 21.4122 106.717C20.248 105.258 18.5811 103.21 17.9726 103.932C17.3958 104.666 17.0483 105.64 16.9948 106.673C16.9412 107.707 17.1852 108.73 17.6814 109.553C18.4181 110.649 19.2839 111.594 20.248 112.356C20.3246 112.426 20.3889 112.517 20.4367 112.62C20.4845 112.725 20.5147 112.84 20.5258 112.959C20.567 114.627 20.9599 116.249 21.6634 117.659C22.4419 118.599 23.2683 119.473 24.1373 120.276" stroke="#231F20" stroke-width="0.57" stroke-miterlimit="10"/>
<path d="M15.7636 116.87C15.7636 116.87 11.2788 117.189 8.9637 117.087L3.35451 116.87" stroke="#231F20" stroke-width="0.57" stroke-miterlimit="10"/>
<path d="M16.2793 121.568C16.2793 121.568 10.7363 121.887 7.25703 121.803C3.77773 121.72 3.03681 121.568 3.03681 121.568" stroke="#231F20" stroke-width="0.57" stroke-miterlimit="10"/>
<path d="M15.7633 126.049C15.7633 126.049 13.8979 126.284 11.6225 126.317C9.34714 126.351 5.0079 126.317 5.0079 126.317" stroke="#231F20" stroke-width="0.57" stroke-miterlimit="10"/>
<path d="M82.2668 98.9152V139.607C78.1412 141.036 73.8657 141.642 69.5933 141.403C61.9539 141.345 54.3676 139.788 47.1035 136.789C42.5791 134.943 33.5434 132.594 29.8128 130.312C28.4755 129.446 26.9284 129.26 25.4868 129.791C22.32 130.889 19.0459 131.409 15.7633 131.334C12.6412 131.217 5.85465 131.083 4.37298 129.505C2.8913 127.928 4.98147 126.301 4.98147 126.301C4.98147 126.301 2.08436 126.082 1.93884 124.035C1.76685 121.619 3.34105 121.484 3.34105 121.484C3.34105 121.484 0.880432 121.3 0.880432 119.252C0.880432 116.551 3.38078 116.853 3.38078 116.853C3.15884 116.543 2.98828 116.181 2.8792 115.786C2.7701 115.391 2.72474 114.972 2.7458 114.554C3.0633 112.205 5.31229 112.272 8.38147 112.423C11.4507 112.575 19.7188 111.853 19.7188 111.853" stroke="#231F20" stroke-width="0.57" stroke-miterlimit="10"/>
<path d="M2.6413 141.654L157.822 141.352" stroke="#888281" stroke-width="5" stroke-miterlimit="10" stroke-linecap="round"/>
</svg>
