<svg width="151" height="101" viewBox="0 0 171 131" fill="none" xmlns="http://www.w3.org/2000/svg">
<path d="M67.0835 0.106791C72.2892 -0.0900099 82.0864 -0.471311 92.7647 3.7968C99.3718 6.46591 100.48 8.56922 115.75 17.4991C121.125 20.8143 126.69 23.8609 132.421 26.6257C144.434 32.1484 147.918 31.4473 155.846 36.5887C160.531 39.6391 165.11 42.6157 168.006 48.2246C173.345 58.4705 170.115 64.9895 169.127 67.6709C166.698 74.2515 161.239 78.987 156.3 85.998C153.269 90.3559 150.987 95.1188 149.533 100.118C147.544 106.687 146.636 107.757 146.383 114.239C146.168 116.959 145.358 119.611 144.002 122.035C142.647 124.46 140.773 126.607 138.494 128.347C132.194 133.107 124.252 130.118 119.353 129.577C112.786 128.876 111.705 127.289 104.03 125.42C96.3552 123.55 90.4287 123.452 80.6047 123.341C63.4394 123.156 63.5463 125.37 52.6678 124.571C46.1408 124.116 35.6227 123.341 25.6385 117.523C14.3329 110.918 9.4344 101.139 6.71146 95.5182C-1.29723 79.0485 -5.08815 51.5579 12.571 28.2493C25.772 10.9062 47.1686 0.881693 67.0835 0.106791Z" fill="#EF60A3"/>
</svg>
