<svg width="172" height="147" viewBox="0 0 172 147" fill="none" xmlns="http://www.w3.org/2000/svg">
<path d="M3 134.438H165" stroke="#888281" stroke-width="5" stroke-miterlimit="10" stroke-linecap="round"/>
<path d="M86.084 112.816C86.084 112.816 82.5703 112.132 80.3922 111.464C76.6241 110.303 73.8577 107.823 72.4427 107.823C70.1691 107.823 69.9942 110.208 69.9942 111.13C69.9915 111.766 70.1333 112.394 70.4087 112.967C70.6841 113.54 71.086 114.042 71.5841 114.437C72.5878 115.363 73.65 116.223 74.7639 117.013L74.2711 117.379C71.5842 119.604 69.724 121.369 70.1215 123.15C70.7098 125.805 73.9371 127.665 73.9371 127.665C74.0227 128.373 74.273 129.051 74.6678 129.644C75.0626 130.238 75.5911 130.731 76.2107 131.083C76.0264 131.686 75.9936 132.325 76.1153 132.944C76.6558 134.359 80.1218 135.488 80.1218 135.488C80.2066 135.636 80.3081 135.775 80.424 135.901C81.0429 136.638 81.8382 137.207 82.7361 137.555C83.634 137.902 84.6052 138.017 85.5594 137.888C86.3702 137.793 86.7518 136.648 86.7518 136.648C89.7717 137.636 92.9107 138.214 96.0845 138.365C98.7133 138.424 101.334 138.685 103.923 139.144L106.212 117.951C101.665 116.329 91.1557 113.102 86.084 112.816Z" fill="white"/>
<path d="M55.717 80.3019C55.717 80.3019 48.1809 75.6753 42.6004 71.8754C38.7902 69.6715 34.5383 68.3411 30.1515 67.9802C27.5441 67.7894 24.6345 69.0136 22.5358 68.9659C20.4372 68.9182 17.6071 67.7735 17.2891 69.6019C16.9711 71.4303 19.9283 73.9582 23.442 74.2126C25.8321 74.4702 28.1295 75.2813 30.1515 76.5815C31.0578 77.0267 28.8478 76.2794 31.3121 78.6166L37.7511 95.5172C37.7511 95.5172 42.2187 96.646 47.2905 97.6795C50.8175 98.7862 54.226 100.24 57.4659 102.02" fill="white"/>
<path d="M55.717 80.3019C55.717 80.3019 48.1809 75.6753 42.6004 71.8754C38.7902 69.6715 34.5383 68.3411 30.1515 67.9802C27.5441 67.7894 24.6345 69.0136 22.5358 68.9659C20.4372 68.9182 17.6071 67.7735 17.2891 69.6019C16.9711 71.4303 19.9283 73.9582 23.442 74.2126C25.4033 74.2515 27.3209 74.7993 29.0066 75.8025C30.5821 76.7715 32.0115 77.9599 33.2517 79.3321C35.5686 81.175 38.1458 82.6645 40.8993 83.752" stroke="#231F20" stroke-width="0.54" stroke-miterlimit="10"/>
<path d="M95.1473 39.6641C96.46 38.5951 97.4187 37.1541 97.8978 35.5304C100.012 28.4235 102.667 18.6934 103.431 15.3864C105.021 8.78829 110.728 0.266412 118.392 0.504897L121.253 0.600287C126.212 0.689442 130.949 2.67003 134.496 6.13679C138.042 9.60355 140.13 14.2944 140.332 19.2498C141.442 28.9426 144.742 38.256 149.983 46.4848C153.671 52.2243 151.048 71.3826 144.482 71.1759L113.956 56.7396C111.873 58.091 94.8768 74.0377 92.5874 72.8612C78.1829 65.6749 87.7225 45.817 95.1473 39.6641Z" fill="#231F20"/>
<path d="M118.36 62.6701C117.915 76.073 127.057 82.3849 139.617 82.7983C152.177 83.2116 165.056 79.3959 165.485 65.9771C165.914 52.5584 151.017 45.6264 144.403 36.3414C131.827 35.928 118.79 49.2673 118.36 62.6701Z" fill="#231F20"/>
<path d="M164.085 87.9658C158.615 72.0668 153.401 59.0773 143.416 56.8356C136.691 55.3252 114.543 50.1739 106.387 49.3789C96.1801 48.3773 91.8237 54.1486 88.8983 60.3651C86.9427 64.4194 85.5278 74.8332 83.5881 81.2564C83.3454 82.0115 82.8292 82.6487 82.1409 83.0429C81.4525 83.4371 80.6417 83.5597 79.8676 83.3869L54.2703 77.5043C53.9287 77.4196 53.5682 77.4596 53.2535 77.617C52.9388 77.7743 52.6905 78.0387 52.5532 78.3628C51.806 80.2229 50.3114 84.0546 49.0713 88.1406C48.0134 91.5184 47.1692 94.9594 46.5434 98.4432C46.4983 98.7968 46.5853 99.1546 46.7877 99.448C46.9902 99.7415 47.2939 99.9498 47.6405 100.033L73.0789 110.018C73.0789 110.018 87.865 113.929 90.5678 110.511L88.6916 128.508L104.591 126.728C104.591 127.236 104.463 127.713 104.4 128.174C104.034 131.561 103.939 137.253 103.923 139.796C103.916 140.154 104.043 140.502 104.278 140.772C104.513 141.043 104.839 141.216 105.195 141.259C111.777 142.038 141.762 145.631 149.712 146.029C158.663 146.522 169.57 145.266 171.096 136.331C172.797 126.251 169.554 103.865 164.085 87.9658Z" fill="white"/>
<path d="M128.646 52.1132C128.004 49.9825 127.573 47.7937 127.358 45.5786L126.643 30.3633C126.864 30.4324 127.095 30.4699 127.327 30.4746C127.689 30.5028 128.054 30.4558 128.398 30.3363C128.741 30.2169 129.057 30.0277 129.324 29.7806C129.591 29.5335 129.804 29.2338 129.95 28.9004C130.095 28.567 130.171 28.2072 130.171 27.8433C130.171 27.4795 130.095 27.1196 129.95 26.7862C129.804 26.4528 129.591 26.1532 129.324 25.9061C129.057 25.659 128.741 25.4698 128.398 25.3504C128.054 25.2309 127.689 25.1838 127.327 25.212C126.755 25.198 126.194 25.3772 125.737 25.7208C122.632 25.3687 119.751 23.9286 117.606 21.6557C115.462 19.3829 114.191 16.4241 114.019 13.3037L105.195 23.8606C105.195 23.8606 104.655 33.1615 106.213 36.3254C108.55 41.0951 114.162 41.5721 114.162 41.5721L112.779 52.0495L108.693 56.0243L115.863 67.249L130.363 56.2945L128.646 52.1132Z" fill="white"/>
<path d="M31.7096 80.3496C30.9041 81.0705 29.8483 81.4472 28.7684 81.399C27.6928 81.4499 26.6408 81.0726 25.8428 80.3496C25.4783 80.0022 25.1909 79.5821 24.9991 79.1165C24.8074 78.6509 24.7157 78.1502 24.73 77.6468C24.719 77.1392 24.8122 76.6347 25.0036 76.1644C25.195 75.6941 25.4805 75.2679 25.8428 74.9122C26.224 74.5518 26.6738 74.2717 27.1655 74.0887C27.6571 73.9057 28.1806 73.8235 28.7047 73.8469C29.808 73.7895 30.8889 74.1727 31.7096 74.9122C32.0803 75.2624 32.3725 75.6872 32.5671 76.1585C32.7616 76.6299 32.8541 77.1371 32.8384 77.6468C32.8568 78.1522 32.7654 78.6555 32.5706 79.1221C32.3757 79.5887 32.082 80.0075 31.7096 80.3496Z" fill="#EF60A3"/>
<path d="M41.0271 61.0641C40.2966 62.2565 39.2942 63.2591 38.1018 63.9896C37.1577 64.5563 36.1747 65.0556 35.1603 65.484C34.3794 65.7768 33.7304 66.3413 33.3321 67.0739C33.0459 67.6357 32.7596 68.2399 32.4735 68.8864C32.1873 69.5542 31.9965 69.9994 31.8852 70.2379C31.7474 70.5245 31.565 70.7875 31.3447 71.0169C31.1117 71.2857 30.8003 71.4748 30.4543 71.5575C29.9986 71.65 29.5358 71.7032 29.0711 71.7165C25.1917 71.8754 24.4286 69.427 26.7499 64.3552C27.2095 63.331 27.9007 62.4275 28.7691 61.716C29.5586 61.0311 30.4352 60.4537 31.3763 59.9989C32.219 59.6014 32.9662 59.1881 33.7771 58.7747C34.4376 58.4367 34.9888 57.9185 35.367 57.2802C35.5217 56.9324 35.6018 56.5559 35.6018 56.1752C35.6018 55.7945 35.5217 55.418 35.367 55.0702C34.9287 53.977 34.11 53.0792 33.0617 52.5423C31.7145 51.8312 30.1914 51.5221 28.6736 51.6519C27.331 51.6905 26.0107 52.0043 24.7943 52.5741L23.729 53.0828L22.8069 53.528L22.1709 53.7506C21.9658 53.8393 21.7394 53.8669 21.519 53.8301C21.3333 53.7563 21.1419 53.6978 20.9467 53.6552C20.6721 53.5775 20.4174 53.4419 20.1995 53.2577L19.3886 52.5423C18.7223 52.0057 18.2254 51.2879 17.9577 50.4754C17.9055 50.0833 17.9525 49.6843 18.0941 49.3149C18.2357 48.9456 18.4676 48.6176 18.7685 48.3608C19.8532 47.3616 21.1298 46.5935 22.5207 46.1032C24.8638 45.2453 27.3389 44.804 29.8342 44.7995C32.8788 44.6966 35.8642 45.6579 38.2766 47.5182C39.5177 48.3402 40.5465 49.4444 41.2788 50.7405C42.0112 52.0365 42.4262 53.4876 42.4899 54.9748C42.6449 57.1071 42.1338 59.2349 41.0271 61.0641Z" fill="#EF60A3"/>
<path d="M81.7124 111.83C83.6309 112.134 85.5785 112.214 87.5156 112.068C88.4994 111.966 89.4517 111.663 90.3138 111.178" stroke="#231F20" stroke-width="0.56" stroke-miterlimit="10"/>
<path d="M107.77 116.727C107.406 116.684 107.038 116.782 106.743 117.001C106.448 117.219 106.247 117.542 106.181 117.903C105.719 120.193 104.813 124.946 104.448 128.238C104.082 131.529 103.986 137.316 103.971 139.86C103.964 140.218 104.09 140.565 104.325 140.836C104.56 141.106 104.887 141.279 105.243 141.322C111.825 142.102 141.81 145.695 149.76 146.092C158.711 146.585 169.617 145.329 171.144 136.394C172.893 126.203 169.649 103.817 164.18 87.9177C158.711 72.0188 153.242 59.9355 143.511 56.7875C132.15 53.4827 120.545 51.0851 108.804 49.6171C98.6126 48.6154 92.9049 51.9542 89.9477 58.1707C88.008 62.2409 85.5755 74.7852 83.5881 81.2084C83.3454 81.9635 82.8292 82.6007 82.1409 82.9949C81.4525 83.389 80.6417 83.5117 79.8676 83.3388L54.2703 77.4562C53.9287 77.3716 53.5682 77.4115 53.2535 77.5689C52.9388 77.7263 52.6905 77.9907 52.5532 78.3147C51.806 80.1749 50.3114 84.0066 49.0713 88.0926C48.0134 91.4704 47.1692 94.9114 46.5434 98.3952C46.4983 98.7488 46.5853 99.1066 46.7877 99.4C46.9902 99.6934 47.2939 99.9018 47.6405 99.9851L70.36 109.095" stroke="#231F20" stroke-width="0.56" stroke-miterlimit="10"/>
<path d="M135.499 88.0293C136.813 90.7519 137.965 93.5497 138.949 96.408C140.942 101.747 142.054 107.374 142.24 113.07C142.526 117.283 139.966 119.605 133.75 119.43C127.533 119.255 107.771 116.791 107.771 116.791" stroke="#231F20" stroke-width="0.56" stroke-miterlimit="10"/>
<path d="M73.8737 127.681C73.8737 127.681 70.6939 125.821 70.0579 123.166C69.6604 121.385 71.5206 119.62 74.2075 117.395C76.8944 115.169 82.4433 115.01 82.4433 115.01" stroke="#231F20" stroke-width="0.56" stroke-miterlimit="10"/>
<path d="M75.9572 120.956C74.9686 123.124 74.2685 125.411 73.8745 127.761C73.9601 128.469 74.2102 129.146 74.605 129.74C74.9999 130.334 75.5283 130.827 76.148 131.179" stroke="#231F20" stroke-width="0.56" stroke-miterlimit="10"/>
<path d="M77.6423 126.886C77.6423 126.886 75.5277 131.56 76.0524 132.96C76.5771 134.359 80.059 135.503 80.059 135.503" stroke="#231F20" stroke-width="0.56" stroke-miterlimit="10"/>
<path d="M80.5196 131.083C80.5196 131.083 78.4687 133.691 80.3606 135.853C80.9795 136.591 81.775 137.16 82.6729 137.507C83.5708 137.855 84.5419 137.969 85.496 137.841C86.3068 137.745 86.6884 136.6 86.6884 136.6" stroke="#231F20" stroke-width="0.56" stroke-miterlimit="10"/>
<path d="M106.148 117.903C101.665 116.313 91.1557 113.134 86.084 112.816C86.084 112.816 82.5703 112.132 80.3922 111.464C76.6241 110.303 73.8577 107.823 72.4427 107.823C70.1691 107.823 69.9942 110.208 69.9942 111.13C69.9915 111.766 70.1333 112.394 70.4087 112.967C70.6841 113.54 71.086 114.042 71.5841 114.437C72.5878 115.363 73.65 116.223 74.7639 117.013" stroke="#231F20" stroke-width="0.56" stroke-miterlimit="10"/>
<path d="M83.1274 135.265C87.2174 137.016 91.5801 138.043 96.0215 138.302C98.6503 138.361 101.271 138.621 103.86 139.081" stroke="#231F20" stroke-width="0.56" stroke-miterlimit="10"/>
<path d="M37.7515 95.5176C37.7515 95.5176 41.4877 96.4874 46.4959 97.5209" stroke="#231F20" stroke-width="0.54" stroke-miterlimit="10"/>
<path d="M39.9617 92.7507C39.7391 91.5901 37.7199 90.9859 35.3669 91.0495C36.9568 90.175 37.5134 89.1098 37.4816 88.2035C37.4816 86.6136 36.3846 85.5484 33.7135 85.9777C35.4465 85.3099 36.3845 84.5468 36.2891 83.5134C36.1779 82.1938 33.8248 80.9059 31.0901 80.9536C31.8692 80.4607 32.2984 79.9043 32.2348 79.1888C32.0917 77.5989 29.5638 77.0584 26.0342 76.804C22.759 76.5814 19.3725 77.7261 19.6746 80.3017C19.7859 81.526 21.9164 82.6866 24.3172 82.8297L23.713 82.9887C22.4252 83.5292 21.6621 84.3242 21.7574 85.5007C21.9482 87.6312 23.8561 88.1241 26.5271 87.8379C26.2296 87.8673 25.9412 87.9562 25.6788 88.0995C25.4165 88.2428 25.1856 88.4375 25.0001 88.672C24.8146 88.9064 24.6782 89.1758 24.5992 89.4641C24.5201 89.7524 24.4999 90.0536 24.5398 90.3499C24.7465 92.6712 27.1153 93.0687 30.1997 92.6394C29.8399 92.8585 29.5493 93.1746 29.3609 93.5514C29.1725 93.9282 29.094 94.3505 29.1346 94.7698C29.4049 96.2484 32.1076 96.9798 35.1761 96.3597C38.2446 95.7397 40.232 94.2134 39.9617 92.7507Z" fill="white"/>
<path d="M32.1233 79.205C32.2664 80.7949 30.0086 81.717 26.4314 82.6391C23.2516 83.45 19.6266 81.9237 19.4835 80.3179C19.2609 77.7423 22.6633 76.5975 25.8431 76.8201C29.4522 77.0745 31.9802 77.5992 32.1233 79.205Z" stroke="#231F20" stroke-width="0.54" stroke-miterlimit="10"/>
<path d="M31.0264 80.9697C33.7611 80.9697 36.1141 82.2098 36.2254 83.5294C36.3844 85.2624 33.7135 86.2164 29.1505 87.3134C25.1757 88.2832 21.821 88.3786 21.5666 85.5168C21.4712 84.3403 22.2343 83.5454 23.5221 83.0048" stroke="#231F20" stroke-width="0.54" stroke-miterlimit="10"/>
<path d="M33.713 85.9779C36.3841 85.5486 37.4334 86.5979 37.4811 88.2037C37.5288 89.8095 36.0025 91.3835 31.6938 92.3534C27.7986 93.1801 24.5074 93.1165 24.2689 90.366C24.229 90.0697 24.2492 89.7685 24.3283 89.4802C24.4074 89.1919 24.5438 88.9224 24.7293 88.688C24.9148 88.4535 25.1456 88.2589 25.408 88.1156C25.6703 87.9723 25.9588 87.8833 26.2563 87.8539" stroke="#231F20" stroke-width="0.54" stroke-miterlimit="10"/>
<path d="M28.8637 94.7864C28.5934 93.3237 30.9783 92.3857 34.0468 91.8133C37.1153 91.241 39.6909 91.2728 39.9611 92.7514C40.2314 94.23 37.958 95.9311 34.9054 96.4399C31.8528 96.9487 29.134 96.2651 28.8637 94.7864Z" stroke="#231F20" stroke-width="0.51" stroke-miterlimit="10"/>
<path d="M90.8379 93.6094L90.3291 113.181" stroke="#231F20" stroke-width="0.56" stroke-miterlimit="10"/>
</svg>
