<svg width="181" height="147" viewBox="0 0 181 147" fill="none" xmlns="http://www.w3.org/2000/svg">
<path d="M3 134.438H178" stroke="#EF60A3" stroke-width="5" stroke-miterlimit="10" stroke-linecap="round"/>
<path d="M92.084 112.816C92.084 112.816 88.5703 112.132 86.3922 111.464C82.6241 110.304 79.8577 107.823 78.4427 107.823C76.1691 107.823 75.9942 110.208 75.9942 111.13C75.9915 111.766 76.1333 112.394 76.4087 112.967C76.6841 113.54 77.086 114.042 77.5841 114.437C78.5878 115.363 79.65 116.223 80.7639 117.013L80.2711 117.379C77.5842 119.605 75.724 121.369 76.1215 123.15C76.7098 125.805 79.9371 127.665 79.9371 127.665C80.0227 128.373 80.273 129.051 80.6678 129.645C81.0626 130.238 81.5911 130.731 82.2107 131.084C82.0264 131.686 81.9936 132.325 82.1153 132.944C82.6558 134.359 86.1218 135.488 86.1218 135.488C86.2066 135.636 86.3081 135.775 86.424 135.901C87.0429 136.638 87.8382 137.207 88.7361 137.555C89.634 137.902 90.6052 138.017 91.5594 137.888C92.3702 137.793 92.7518 136.648 92.7518 136.648C95.7717 137.636 98.9107 138.214 102.084 138.365C104.713 138.424 107.334 138.685 109.923 139.144L112.212 117.951C107.665 116.329 97.1557 113.102 92.084 112.816Z" fill="white"/>
<path d="M61.717 80.302C61.717 80.302 54.1809 75.6754 48.6004 71.8756C44.7902 69.6716 40.5383 68.3412 36.1515 67.9803C33.5441 67.7895 30.6345 69.0137 28.5358 68.966C26.4372 68.9183 23.6071 67.7736 23.2891 69.602C22.9711 71.4304 25.9283 73.9583 29.442 74.2127C31.8321 74.4703 34.1295 75.2814 36.1515 76.5817C37.0578 77.0268 34.8478 76.2796 37.3121 78.6167L43.7511 95.5174C43.7511 95.5174 48.2187 96.6462 53.2905 97.6796C56.8175 98.7863 60.226 100.24 63.4659 102.02" fill="white"/>
<path d="M61.717 80.302C61.717 80.302 54.1809 75.6754 48.6004 71.8756C44.7902 69.6716 40.5383 68.3412 36.1515 67.9803C33.5441 67.7895 30.6345 69.0137 28.5358 68.966C26.4372 68.9183 23.6071 67.7736 23.2891 69.602C22.9711 71.4304 25.9283 73.9583 29.442 74.2127C31.4033 74.2516 33.3209 74.7994 35.0066 75.8026C36.5821 76.7716 38.0115 77.9601 39.2517 79.3322C41.5686 81.1751 44.1458 82.6646 46.8993 83.7521" stroke="#231F20" stroke-width="0.54" stroke-miterlimit="10"/>
<path d="M101.147 39.6641C102.46 38.5951 103.419 37.1541 103.898 35.5304C106.012 28.4235 108.667 18.6934 109.431 15.3864C111.021 8.78829 116.728 0.266412 124.392 0.504897L127.253 0.600287C132.212 0.689442 136.949 2.67003 140.496 6.13679C144.042 9.60355 146.13 14.2944 146.332 19.2498C147.442 28.9426 150.742 38.256 155.983 46.4848C159.671 52.2243 157.048 71.3826 150.482 71.1759L119.956 56.7396C117.873 58.091 100.877 74.0377 98.5874 72.8612C84.1829 65.6749 93.7225 45.817 101.147 39.6641Z" fill="#231F20"/>
<path d="M124.36 62.6701C123.915 76.073 133.057 82.3849 145.617 82.7983C158.177 83.2116 171.056 79.3959 171.485 65.9771C171.914 52.5584 157.017 45.6264 150.403 36.3414C137.827 35.928 124.79 49.2673 124.36 62.6701Z" fill="#231F20"/>
<path d="M170.085 87.9655C164.615 72.0665 159.401 59.0771 149.416 56.8353C142.691 55.3249 120.543 50.1736 112.387 49.3787C102.18 48.3771 97.8237 54.1484 94.8983 60.3649C92.9427 64.4191 91.5278 74.833 89.5881 81.2561C89.3454 82.0113 88.8292 82.6485 88.1409 83.0427C87.4525 83.4368 86.6417 83.5595 85.8676 83.3866L60.2703 77.504C59.9287 77.4194 59.5682 77.4594 59.2535 77.6167C58.9388 77.7741 58.6905 78.0385 58.5532 78.3625C57.806 80.2227 56.3114 84.0544 55.0713 88.1404C54.0134 91.5182 53.1692 94.9592 52.5434 98.443C52.4983 98.7966 52.5853 99.1544 52.7877 99.4478C52.9902 99.7412 53.2939 99.9495 53.6405 100.033L79.0789 110.017C79.0789 110.017 93.865 113.929 96.5678 110.51L94.6916 128.508L110.591 126.727C110.591 127.236 110.463 127.713 110.4 128.174C110.034 131.561 109.939 137.252 109.923 139.796C109.916 140.154 110.043 140.502 110.278 140.772C110.513 141.042 110.839 141.216 111.195 141.259C117.777 142.038 147.762 145.631 155.712 146.029C164.663 146.521 175.57 145.266 177.096 136.33C178.797 126.25 175.554 103.865 170.085 87.9655Z" fill="white"/>
<path d="M134.646 52.1133C134.004 49.9826 133.573 47.7939 133.358 45.5788L132.643 30.3634C132.864 30.4325 133.095 30.47 133.327 30.4747C133.689 30.5029 134.054 30.4559 134.398 30.3364C134.741 30.217 135.057 30.0278 135.324 29.7807C135.591 29.5336 135.804 29.2339 135.95 28.9005C136.095 28.5672 136.171 28.2073 136.171 27.8434C136.171 27.4796 136.095 27.1197 135.95 26.7863C135.804 26.453 135.591 26.1533 135.324 25.9062C135.057 25.6591 134.741 25.4699 134.398 25.3505C134.054 25.2311 133.689 25.1839 133.327 25.2122C132.755 25.1981 132.194 25.3773 131.737 25.7209C128.632 25.3688 125.751 23.9287 123.606 21.6558C121.462 19.383 120.191 16.4242 120.019 13.3038L111.195 23.8607C111.195 23.8607 110.655 33.1616 112.213 36.3255C114.55 41.0952 120.162 41.5722 120.162 41.5722L118.779 52.0497L114.693 56.0244L121.863 67.2491L136.363 56.2947L134.646 52.1133Z" fill="white"/>
<path d="M37.7096 80.3498C36.9041 81.0707 35.8483 81.4474 34.7684 81.3991C33.6928 81.45 32.6408 81.0727 31.8428 80.3498C31.4783 80.0024 31.1909 79.5822 30.9991 79.1166C30.8074 78.651 30.7157 78.1503 30.73 77.647C30.719 77.1393 30.8122 76.6348 31.0036 76.1645C31.195 75.6942 31.4805 75.2681 31.8428 74.9123C32.224 74.5519 32.6738 74.2718 33.1655 74.0888C33.6571 73.9058 34.1806 73.8236 34.7047 73.8471C35.808 73.7896 36.8889 74.1728 37.7096 74.9123C38.0803 75.2625 38.3725 75.6873 38.5671 76.1587C38.7616 76.63 38.8541 77.1373 38.8384 77.647C38.8568 78.1523 38.7654 78.6556 38.5706 79.1222C38.3757 79.5888 38.082 80.0076 37.7096 80.3498Z" fill="#EF60A3"/>
<path d="M47.0271 61.0641C46.2966 62.2565 45.2942 63.2591 44.1018 63.9896C43.1577 64.5563 42.1747 65.0556 41.1603 65.484C40.3794 65.7768 39.7304 66.3413 39.3321 67.0739C39.0459 67.6357 38.7596 68.2399 38.4735 68.8864C38.1873 69.5542 37.9965 69.9994 37.8852 70.2379C37.7474 70.5245 37.565 70.7875 37.3447 71.0169C37.1117 71.2857 36.8003 71.4748 36.4543 71.5575C35.9986 71.65 35.5358 71.7032 35.0711 71.7165C31.1917 71.8754 30.4286 69.427 32.7499 64.3552C33.2095 63.331 33.9007 62.4275 34.7691 61.716C35.5586 61.0311 36.4352 60.4537 37.3763 59.9989C38.219 59.6014 38.9662 59.1881 39.7771 58.7747C40.4376 58.4367 40.9888 57.9185 41.367 57.2802C41.5217 56.9324 41.6018 56.5559 41.6018 56.1752C41.6018 55.7945 41.5217 55.418 41.367 55.0702C40.9287 53.977 40.11 53.0792 39.0617 52.5423C37.7145 51.8312 36.1914 51.5221 34.6736 51.6519C33.331 51.6905 32.0107 52.0043 30.7943 52.5741L29.729 53.0828L28.8069 53.528L28.1709 53.7506C27.9658 53.8393 27.7394 53.8669 27.519 53.8301C27.3333 53.7563 27.1419 53.6978 26.9467 53.6552C26.6721 53.5775 26.4174 53.4419 26.1995 53.2577L25.3886 52.5423C24.7223 52.0057 24.2254 51.2879 23.9577 50.4754C23.9055 50.0833 23.9525 49.6843 24.0941 49.3149C24.2357 48.9456 24.4676 48.6176 24.7685 48.3608C25.8532 47.3616 27.1298 46.5935 28.5207 46.1032C30.8638 45.2453 33.3389 44.804 35.8342 44.7995C38.8788 44.6966 41.8642 45.6579 44.2766 47.5182C45.5177 48.3402 46.5465 49.4444 47.2788 50.7405C48.0112 52.0365 48.4262 53.4876 48.4899 54.9748C48.6449 57.1071 48.1338 59.2349 47.0271 61.0641Z" fill="#EF60A3"/>
<path d="M87.7124 111.83C89.6309 112.134 91.5785 112.214 93.5156 112.068C94.4994 111.966 95.4517 111.663 96.3138 111.178" stroke="#231F20" stroke-width="0.56" stroke-miterlimit="10"/>
<path d="M113.77 116.727C113.406 116.684 113.038 116.782 112.743 117.001C112.448 117.219 112.247 117.542 112.181 117.903C111.719 120.193 110.813 124.946 110.448 128.238C110.082 131.529 109.986 137.316 109.971 139.86C109.964 140.218 110.09 140.565 110.325 140.836C110.56 141.106 110.887 141.279 111.243 141.322C117.825 142.102 147.81 145.695 155.76 146.092C164.711 146.585 175.617 145.329 177.144 136.394C178.893 126.203 175.649 103.817 170.18 87.9177C164.711 72.0188 159.242 59.9355 149.511 56.7875C138.15 53.4827 126.545 51.0851 114.804 49.6171C104.613 48.6154 98.9049 51.9542 95.9477 58.1707C94.008 62.2409 91.5755 74.7852 89.5881 81.2084C89.3454 81.9635 88.8292 82.6007 88.1409 82.9949C87.4525 83.389 86.6417 83.5117 85.8676 83.3388L60.2703 77.4562C59.9287 77.3716 59.5682 77.4115 59.2535 77.5689C58.9388 77.7263 58.6905 77.9907 58.5532 78.3147C57.806 80.1749 56.3114 84.0066 55.0713 88.0926C54.0134 91.4704 53.1692 94.9114 52.5434 98.3952C52.4983 98.7488 52.5853 99.1066 52.7877 99.4C52.9902 99.6934 53.2939 99.9018 53.6405 99.9851L76.36 109.095" stroke="#231F20" stroke-width="0.56" stroke-miterlimit="10"/>
<path d="M141.499 88.0292C142.813 90.7518 143.965 93.5495 144.949 96.4079C146.942 101.747 148.054 107.374 148.24 113.07C148.526 117.283 145.966 119.605 139.75 119.43C133.533 119.255 113.771 116.79 113.771 116.79" stroke="#231F20" stroke-width="0.56" stroke-miterlimit="10"/>
<path d="M79.8737 127.681C79.8737 127.681 76.6939 125.821 76.0579 123.166C75.6604 121.385 77.5206 119.62 80.2075 117.395C82.8944 115.169 88.4433 115.01 88.4433 115.01" stroke="#231F20" stroke-width="0.56" stroke-miterlimit="10"/>
<path d="M81.9572 120.956C80.9686 123.123 80.2685 125.411 79.8745 127.761C79.9601 128.468 80.2102 129.146 80.605 129.74C80.9999 130.334 81.5283 130.826 82.148 131.179" stroke="#231F20" stroke-width="0.56" stroke-miterlimit="10"/>
<path d="M83.6423 126.886C83.6423 126.886 81.5277 131.56 82.0524 132.959C82.5771 134.359 86.059 135.503 86.059 135.503" stroke="#231F20" stroke-width="0.56" stroke-miterlimit="10"/>
<path d="M86.5196 131.083C86.5196 131.083 84.4687 133.691 86.3606 135.853C86.9795 136.59 87.775 137.159 88.6729 137.507C89.5708 137.854 90.5419 137.969 91.496 137.84C92.3068 137.745 92.6884 136.6 92.6884 136.6" stroke="#231F20" stroke-width="0.56" stroke-miterlimit="10"/>
<path d="M112.148 117.903C107.665 116.313 97.1557 113.134 92.084 112.816C92.084 112.816 88.5703 112.132 86.3922 111.464C82.6241 110.304 79.8577 107.823 78.4427 107.823C76.1691 107.823 75.9942 110.208 75.9942 111.13C75.9915 111.766 76.1333 112.394 76.4087 112.967C76.6841 113.54 77.086 114.042 77.5841 114.437C78.5878 115.363 79.65 116.223 80.7639 117.013" stroke="#231F20" stroke-width="0.56" stroke-miterlimit="10"/>
<path d="M89.1274 135.265C93.2174 137.016 97.5801 138.043 102.022 138.302C104.65 138.361 107.271 138.621 109.86 139.081" stroke="#231F20" stroke-width="0.56" stroke-miterlimit="10"/>
<path d="M43.7515 95.5177C43.7515 95.5177 47.4877 96.4876 52.4959 97.521" stroke="#231F20" stroke-width="0.54" stroke-miterlimit="10"/>
<path d="M45.9617 92.7509C45.7391 91.5903 43.7199 90.9861 41.3669 91.0497C42.9568 90.1753 43.5134 89.11 43.4816 88.2038C43.4816 86.6139 42.3846 85.5487 39.7135 85.9779C41.4465 85.3102 42.3845 84.5471 42.2891 83.5136C42.1779 82.194 39.8248 80.9062 37.0901 80.9539C37.8692 80.461 38.2984 79.9045 38.2348 79.1891C38.0917 77.5992 35.5638 77.0586 32.0342 76.8042C28.759 76.5817 25.3725 77.7264 25.6746 80.302C25.7859 81.5262 27.9164 82.6868 30.3172 82.8299L29.713 82.9889C28.4252 83.5295 27.6621 84.3245 27.7574 85.501C27.9482 87.6315 29.8561 88.1243 32.5271 87.8381C32.2296 87.8675 31.9412 87.9565 31.6788 88.0998C31.4165 88.2431 31.1856 88.4378 31.0001 88.6722C30.8146 88.9066 30.6782 89.176 30.5992 89.4643C30.5201 89.7526 30.4999 90.0539 30.5398 90.3502C30.7465 92.6714 33.1153 93.0689 36.1997 92.6396C35.8399 92.8588 35.5493 93.1748 35.3609 93.5516C35.1725 93.9285 35.094 94.3508 35.1346 94.7701C35.4049 96.2487 38.1076 96.98 41.1761 96.36C44.2446 95.7399 46.232 94.2136 45.9617 92.7509Z" fill="white"/>
<path d="M38.1233 79.205C38.2664 80.7949 36.0086 81.717 32.4314 82.6391C29.2516 83.45 25.6266 81.9237 25.4835 80.3179C25.2609 77.7423 28.6633 76.5975 31.8431 76.8201C35.4522 77.0745 37.9802 77.5992 38.1233 79.205Z" stroke="#231F20" stroke-width="0.54" stroke-miterlimit="10"/>
<path d="M37.0264 80.9696C39.7611 80.9696 42.1141 82.2097 42.2254 83.5293C42.3844 85.2623 39.7135 86.2163 35.1505 87.3133C31.1757 88.2831 27.821 88.3785 27.5666 85.5167C27.4712 84.3402 28.2343 83.5452 29.5221 83.0047" stroke="#231F20" stroke-width="0.54" stroke-miterlimit="10"/>
<path d="M39.713 85.978C42.3841 85.5487 43.4334 86.598 43.4811 88.2038C43.5288 89.8096 42.0025 91.3836 37.6938 92.3535C33.7986 93.1802 30.5074 93.1166 30.2689 90.3661C30.229 90.0698 30.2492 89.7686 30.3283 89.4803C30.4074 89.192 30.5438 88.9225 30.7293 88.6881C30.9148 88.4537 31.1456 88.259 31.408 88.1157C31.6703 87.9724 31.9588 87.8834 32.2563 87.854" stroke="#231F20" stroke-width="0.54" stroke-miterlimit="10"/>
<path d="M34.8637 94.7864C34.5934 93.3237 36.9783 92.3857 40.0468 91.8133C43.1153 91.241 45.6909 91.2728 45.9611 92.7514C46.2314 94.23 43.958 95.9311 40.9054 96.4399C37.8528 96.9487 35.134 96.2651 34.8637 94.7864Z" stroke="#231F20" stroke-width="0.51" stroke-miterlimit="10"/>
<path d="M96.8379 93.6096L96.3291 113.181" stroke="#231F20" stroke-width="0.56" stroke-miterlimit="10"/>
</svg>
