<svg width="172" height="147" viewBox="0 0 172 147" fill="none" xmlns="http://www.w3.org/2000/svg">
<path d="M3 134.438H165" stroke="#888281" stroke-width="5" stroke-miterlimit="10" stroke-linecap="round"/>
<path d="M86.084 112.816C86.084 112.816 82.5703 112.132 80.3922 111.464C76.6241 110.303 73.8577 107.823 72.4427 107.823C70.1691 107.823 69.9942 110.208 69.9942 111.13C69.9915 111.766 70.1333 112.394 70.4087 112.967C70.6841 113.54 71.086 114.042 71.5841 114.437C72.5878 115.363 73.65 116.223 74.7639 117.013L74.2711 117.379C71.5842 119.604 69.724 121.369 70.1215 123.15C70.7098 125.805 73.9371 127.665 73.9371 127.665C74.0227 128.373 74.273 129.051 74.6678 129.644C75.0626 130.238 75.5911 130.731 76.2107 131.083C76.0264 131.686 75.9936 132.325 76.1153 132.944C76.6558 134.359 80.1218 135.488 80.1218 135.488C80.2066 135.636 80.3081 135.775 80.424 135.901C81.0429 136.638 81.8382 137.207 82.7361 137.555C83.634 137.902 84.6052 138.017 85.5594 137.888C86.3702 137.793 86.7518 136.648 86.7518 136.648C89.7717 137.636 92.9107 138.214 96.0845 138.365C98.7133 138.424 101.334 138.685 103.923 139.144L106.212 117.951C101.665 116.329 91.1557 113.102 86.084 112.816Z" fill="white"/>
<path d="M55.717 80.3019C55.717 80.3019 48.1809 75.6753 42.6004 71.8754C38.7902 69.6715 34.5383 68.3411 30.1515 67.9802C27.5441 67.7894 24.6345 69.0136 22.5358 68.9659C20.4372 68.9182 17.6071 67.7735 17.2891 69.6019C16.9711 71.4303 19.9283 73.9582 23.442 74.2126C25.8321 74.4702 28.1295 75.2813 30.1515 76.5815C31.0578 77.0267 28.8478 76.2794 31.3121 78.6166L37.7511 95.5172C37.7511 95.5172 42.2187 96.646 47.2905 97.6795C50.8175 98.7862 54.226 100.24 57.4659 102.02" fill="white"/>
<path d="M55.717 80.3019C55.717 80.3019 48.1809 75.6753 42.6004 71.8754C38.7902 69.6715 34.5383 68.3411 30.1515 67.9802C27.5441 67.7894 24.6345 69.0136 22.5358 68.9659C20.4372 68.9182 17.6071 67.7735 17.2891 69.6019C16.9711 71.4303 19.9283 73.9582 23.442 74.2126C25.4033 74.2515 27.3209 74.7993 29.0066 75.8025C30.5821 76.7715 32.0115 77.9599 33.2517 79.3321C35.5686 81.175 38.1458 82.6645 40.8993 83.752" stroke="#231F20" stroke-width="0.54" stroke-miterlimit="10"/>
<path d="M95.1468 39.6641C96.4595 38.5951 97.4183 37.1541 97.8973 35.5304C100.012 28.4235 102.667 18.6934 103.43 15.3864C105.02 8.78829 110.728 0.266412 118.391 0.504897L121.253 0.600287C126.212 0.689442 130.949 2.67003 134.495 6.13679C138.042 9.60355 140.13 14.2944 140.332 19.2498C141.441 28.9426 144.741 38.256 149.982 46.4848C153.671 52.2243 151.048 71.3826 144.481 71.1759L113.955 56.7396C111.872 58.091 94.8763 74.0377 92.5869 72.8612C78.1824 65.6749 87.722 45.817 95.1468 39.6641Z" fill="#231F20"/>
<path d="M118.36 62.6701C117.915 76.073 127.057 82.3849 139.617 82.7983C152.177 83.2116 165.056 79.3959 165.485 65.9771C165.914 52.5584 151.017 45.6264 144.403 36.3414C131.827 35.928 118.79 49.2673 118.36 62.6701Z" fill="#231F20"/>
<path d="M164.084 87.9653C158.615 72.0663 153.4 59.0768 143.416 56.8351C136.69 55.3247 114.543 50.1734 106.387 49.3784C96.1796 48.3768 91.8232 54.1481 88.8978 60.3647C86.9422 64.4189 85.5273 74.8327 83.5876 81.2559C83.3449 82.0111 82.8287 82.6482 82.1404 83.0424C81.452 83.4366 80.6412 83.5592 79.8671 83.3864L54.2698 77.5038C53.9282 77.4191 53.5677 77.4591 53.253 77.6165C52.9383 77.7738 52.69 78.0383 52.5528 78.3623C51.8055 80.2225 50.3109 84.0541 49.0708 88.1401C48.013 91.5179 47.1687 94.9589 46.5429 98.4427C46.4978 98.7963 46.5848 99.1541 46.7872 99.4476C46.9897 99.741 47.2934 99.9493 47.64 100.033L73.0784 110.017C73.0784 110.017 87.8645 113.928 90.5673 110.51L88.6911 128.508L104.59 126.727C104.59 127.236 104.463 127.713 104.399 128.174C104.034 131.56 103.938 137.252 103.922 139.796C103.916 140.154 104.042 140.502 104.277 140.772C104.512 141.042 104.839 141.215 105.194 141.259C111.776 142.038 141.762 145.631 149.711 146.028C158.663 146.521 169.569 145.265 171.096 136.33C172.797 126.25 169.553 103.864 164.084 87.9653Z" fill="white"/>
<path d="M128.646 52.1132C128.004 49.9825 127.573 47.7937 127.358 45.5786L126.643 30.3633C126.864 30.4324 127.095 30.4699 127.327 30.4746C127.689 30.5028 128.054 30.4558 128.398 30.3363C128.741 30.2169 129.057 30.0277 129.324 29.7806C129.591 29.5335 129.804 29.2338 129.95 28.9004C130.095 28.567 130.171 28.2072 130.171 27.8433C130.171 27.4795 130.095 27.1196 129.95 26.7862C129.804 26.4528 129.591 26.1532 129.324 25.9061C129.057 25.659 128.741 25.4698 128.398 25.3504C128.054 25.2309 127.689 25.1838 127.327 25.212C126.755 25.198 126.194 25.3772 125.737 25.7208C122.632 25.3687 119.751 23.9286 117.606 21.6557C115.462 19.3829 114.191 16.4241 114.019 13.3037L105.195 23.8606C105.195 23.8606 104.655 33.1615 106.213 36.3254C108.55 41.0951 114.162 41.5721 114.162 41.5721L112.779 52.0495L108.693 56.0243L115.863 67.249L130.363 56.2945L128.646 52.1132Z" fill="white"/>
<path d="M31.7096 80.3501C30.9041 81.071 29.8483 81.4477 28.7684 81.3995C27.6928 81.4504 26.6408 81.0731 25.8428 80.3501C25.4783 80.0027 25.1909 79.5826 24.9991 79.117C24.8074 78.6514 24.7157 78.1507 24.73 77.6473C24.719 77.1397 24.8122 76.6351 25.0036 76.1648C25.195 75.6945 25.4805 75.2684 25.8428 74.9127C26.224 74.5523 26.6738 74.2722 27.1655 74.0892C27.6571 73.9062 28.1806 73.824 28.7047 73.8474C29.808 73.79 30.8889 74.1732 31.7096 74.9127C32.0803 75.2629 32.3725 75.6877 32.5671 76.159C32.7616 76.6304 32.8541 77.1376 32.8384 77.6473C32.8568 78.1527 32.7654 78.656 32.5706 79.1226C32.3757 79.5892 32.082 80.008 31.7096 80.3501Z" fill="#888281"/>
<path d="M41.0266 61.0641C40.2962 62.2565 39.2937 63.2591 38.1013 63.9896C37.1572 64.5563 36.1742 65.0556 35.1598 65.484C34.3789 65.7768 33.7299 66.3413 33.3316 67.0739C33.0454 67.6357 32.7592 68.2399 32.473 68.8864C32.1868 69.5542 31.996 69.9994 31.8847 70.2379C31.7469 70.5245 31.5645 70.7875 31.3442 71.0169C31.1112 71.2857 30.7998 71.4748 30.4538 71.5575C29.9981 71.65 29.5353 71.7032 29.0706 71.7165C25.1912 71.8754 24.4281 69.427 26.7494 64.3552C27.209 63.331 27.9003 62.4275 28.7686 61.716C29.5582 61.0311 30.4347 60.4537 31.3758 59.9989C32.2185 59.6014 32.9658 59.1881 33.7766 58.7747C34.4371 58.4367 34.9884 57.9185 35.3665 57.2802C35.5212 56.9324 35.6013 56.5559 35.6013 56.1752C35.6013 55.7945 35.5212 55.418 35.3665 55.0702C34.9282 53.977 34.1095 53.0792 33.0612 52.5423C31.714 51.8312 30.1909 51.5221 28.6731 51.6519C27.3305 51.6905 26.0102 52.0043 24.7938 52.5741L23.7285 53.0828L22.8065 53.528L22.1705 53.7506C21.9654 53.8393 21.739 53.8669 21.5185 53.8301C21.3328 53.7563 21.1414 53.6978 20.9462 53.6552C20.6717 53.5775 20.4169 53.4419 20.199 53.2577L19.3881 52.5423C18.7218 52.0057 18.2249 51.2879 17.9572 50.4754C17.905 50.0833 17.952 49.6843 18.0936 49.3149C18.2353 48.9456 18.4671 48.6176 18.768 48.3608C19.8527 47.3616 21.1293 46.5935 22.5202 46.1032C24.8633 45.2453 27.3384 44.804 29.8337 44.7995C32.8783 44.6966 35.8637 45.6579 38.2761 47.5182C39.5172 48.3402 40.5461 49.4444 41.2784 50.7405C42.0107 52.0365 42.4257 53.4876 42.4894 54.9748C42.6445 57.1071 42.1333 59.2349 41.0266 61.0641Z" fill="#888281"/>
<path d="M81.7119 111.83C83.6305 112.134 85.578 112.214 87.5151 112.068C88.4989 111.966 89.4513 111.663 90.3133 111.178" stroke="#231F20" stroke-width="0.56" stroke-miterlimit="10"/>
<path d="M107.77 116.727C107.405 116.684 107.038 116.782 106.742 117.001C106.447 117.219 106.246 117.542 106.18 117.903C105.719 120.193 104.813 124.946 104.447 128.238C104.081 131.529 103.986 137.316 103.97 139.86C103.963 140.218 104.09 140.565 104.325 140.836C104.56 141.106 104.887 141.279 105.242 141.322C111.824 142.102 141.81 145.695 149.759 146.092C158.71 146.585 169.617 145.329 171.143 136.394C172.892 126.203 169.649 103.817 164.18 87.9177C158.71 72.0188 153.241 59.9355 143.511 56.7875C132.15 53.4827 120.544 51.0851 108.803 49.6171C98.6122 48.6154 92.9044 51.9542 89.9472 58.1707C88.0075 62.2409 85.575 74.7852 83.5876 81.2084C83.3449 81.9635 82.8287 82.6007 82.1404 82.9949C81.4521 83.389 80.6412 83.5117 79.8671 83.3388L54.2698 77.4562C53.9282 77.3716 53.5677 77.4115 53.253 77.5689C52.9383 77.7263 52.69 77.9907 52.5528 78.3147C51.8055 80.1749 50.3109 84.0066 49.0708 88.0926C48.013 91.4704 47.1687 94.9114 46.5429 98.3952C46.4978 98.7488 46.5848 99.1066 46.7872 99.4C46.9897 99.6934 47.2934 99.9018 47.64 99.9851L70.3596 109.095" stroke="#231F20" stroke-width="0.56" stroke-miterlimit="10"/>
<path d="M135.498 88.0293C136.812 90.7519 137.964 93.5497 138.948 96.408C140.941 101.747 142.053 107.374 142.24 113.07C142.526 117.283 139.966 119.605 133.749 119.43C127.533 119.255 107.771 116.791 107.771 116.791" stroke="#231F20" stroke-width="0.56" stroke-miterlimit="10"/>
<path d="M73.8742 127.681C73.8742 127.681 70.6943 125.821 70.0584 123.166C69.6609 121.385 71.5211 119.62 74.208 117.395C76.8949 115.169 82.4438 115.01 82.4438 115.01" stroke="#231F20" stroke-width="0.56" stroke-miterlimit="10"/>
<path d="M75.9567 120.956C74.9681 123.124 74.268 125.411 73.874 127.761C73.9596 128.469 74.2097 129.146 74.6045 129.74C74.9994 130.334 75.5278 130.827 76.1475 131.179" stroke="#231F20" stroke-width="0.56" stroke-miterlimit="10"/>
<path d="M77.6423 126.886C77.6423 126.886 75.5277 131.56 76.0524 132.959C76.5771 134.358 80.059 135.503 80.059 135.503" stroke="#231F20" stroke-width="0.56" stroke-miterlimit="10"/>
<path d="M80.5191 131.083C80.5191 131.083 78.4682 133.69 80.3602 135.853C80.9791 136.59 81.7745 137.159 82.6724 137.507C83.5703 137.854 84.5414 137.969 85.4955 137.84C86.3063 137.745 86.6879 136.6 86.6879 136.6" stroke="#231F20" stroke-width="0.56" stroke-miterlimit="10"/>
<path d="M106.148 117.903C101.665 116.313 91.1557 113.134 86.084 112.816C86.084 112.816 82.5703 112.132 80.3922 111.464C76.6241 110.303 73.8577 107.823 72.4427 107.823C70.1691 107.823 69.9942 110.208 69.9942 111.13C69.9915 111.766 70.1333 112.394 70.4087 112.967C70.6841 113.54 71.086 114.042 71.5841 114.437C72.5878 115.363 73.65 116.223 74.7639 117.013" stroke="#231F20" stroke-width="0.56" stroke-miterlimit="10"/>
<path d="M83.1279 135.265C87.2179 137.015 91.5806 138.043 96.022 138.301C98.6508 138.36 101.271 138.621 103.86 139.08" stroke="#231F20" stroke-width="0.56" stroke-miterlimit="10"/>
<path d="M37.752 95.5176C37.752 95.5176 41.4882 96.4874 46.4964 97.5209" stroke="#231F20" stroke-width="0.54" stroke-miterlimit="10"/>
<path d="M39.9622 92.7512C39.7396 91.5905 37.7204 90.9864 35.3674 91.05C36.9573 90.1755 37.5139 89.1103 37.4821 88.204C37.4821 86.6141 36.385 85.5489 33.714 85.9782C35.447 85.3104 36.385 84.5473 36.2896 83.5139C36.1783 82.1942 33.8253 80.9064 31.0906 80.9541C31.8697 80.4612 32.2989 79.9048 32.2353 79.1893C32.0922 77.5994 29.5642 77.0589 26.0347 76.8045C22.7595 76.5819 19.373 77.7266 19.6751 80.3022C19.7864 81.5265 21.9169 82.6871 24.3176 82.8302L23.7135 82.9892C22.4257 83.5297 21.6625 84.3247 21.7579 85.5012C21.9487 87.6317 23.8566 88.1246 26.5276 87.8384C26.2301 87.8677 25.9417 87.9567 25.6793 88.1C25.417 88.2433 25.1861 88.438 25.0006 88.6724C24.8151 88.9069 24.6787 89.1763 24.5996 89.4646C24.5206 89.7529 24.5004 90.0541 24.5403 90.3504C24.7469 92.6717 27.1158 93.0691 30.2002 92.6399C29.8404 92.859 29.5498 93.1751 29.3614 93.5519C29.173 93.9287 29.0945 94.351 29.1351 94.7703C29.4054 96.2489 32.1081 96.9803 35.1766 96.3602C38.2451 95.7402 40.2325 94.2139 39.9622 92.7512Z" fill="white"/>
<path d="M32.1238 79.205C32.2669 80.7949 30.0091 81.717 26.4319 82.6391C23.2521 83.45 19.6271 81.9237 19.484 80.3179C19.2614 77.7423 22.6638 76.5975 25.8436 76.8201C29.4527 77.0745 31.9807 77.5992 32.1238 79.205Z" stroke="#231F20" stroke-width="0.54" stroke-miterlimit="10"/>
<path d="M31.0264 80.9697C33.7611 80.9697 36.1141 82.2098 36.2254 83.5294C36.3844 85.2624 33.7135 86.2164 29.1505 87.3134C25.1757 88.2832 21.821 88.3786 21.5666 85.5168C21.4712 84.3403 22.2343 83.5454 23.5221 83.0048" stroke="#231F20" stroke-width="0.54" stroke-miterlimit="10"/>
<path d="M33.713 85.9783C36.3841 85.5491 37.4334 86.5984 37.4811 88.2042C37.5288 89.81 36.0025 91.384 31.6938 92.3539C27.7986 93.1806 24.5074 93.117 24.2689 90.3665C24.229 90.0702 24.2492 89.7689 24.3283 89.4806C24.4074 89.1924 24.5438 88.9229 24.7293 88.6885C24.9148 88.454 25.1456 88.2594 25.408 88.1161C25.6703 87.9728 25.9588 87.8838 26.2563 87.8544" stroke="#231F20" stroke-width="0.54" stroke-miterlimit="10"/>
<path d="M28.8637 94.7864C28.5934 93.3237 30.9783 92.3857 34.0468 91.8133C37.1153 91.241 39.6909 91.2728 39.9611 92.7514C40.2314 94.23 37.958 95.9311 34.9054 96.4399C31.8528 96.9487 29.134 96.2651 28.8637 94.7864Z" stroke="#231F20" stroke-width="0.51" stroke-miterlimit="10"/>
<path d="M90.8379 93.6094L90.3291 113.181" stroke="#231F20" stroke-width="0.56" stroke-miterlimit="10"/>
</svg>
