<svg width="33" height="33" viewBox="0 0 33 33" fill="none" xmlns="http://www.w3.org/2000/svg">
<g clip-path="url(#clip0_9228_31127)">
<path d="M16.4978 33.4913C13.2352 33.4901 10.0463 32.5215 7.33419 30.7081C4.62208 28.8947 2.50856 26.3178 1.26087 23.3032C0.0131785 20.2887 -0.312657 16.9719 0.324565 13.7722C0.961787 10.5725 2.53344 7.63357 4.84083 5.32704C7.14821 3.0205 10.0877 1.44991 13.2876 0.813863C16.4876 0.177813 19.8043 0.504868 22.8183 1.75366C25.8324 3.00246 28.4085 5.11692 30.221 7.8297C32.0334 10.5425 33.0008 13.7318 33.0008 16.9943C32.996 21.3691 31.2556 25.5633 28.1615 28.6563C25.0675 31.7492 20.8726 33.4881 16.4978 33.4913Z" fill="#3C5A99"/>
<path fill-rule="evenodd" clip-rule="evenodd" d="M13.9099 17.0728V26.6361C13.9114 26.7013 13.938 26.7635 13.9842 26.8096C14.0303 26.8558 14.0925 26.8824 14.1577 26.8839H17.7122C17.7779 26.8839 17.841 26.8578 17.8875 26.8113C17.9339 26.7649 17.9601 26.7018 17.9601 26.6361V16.9156H20.5352C20.598 16.9158 20.6584 16.8922 20.7044 16.8496C20.7504 16.8069 20.7785 16.7484 20.7831 16.6859L21.0309 13.7601C21.0334 13.7258 21.0289 13.6913 21.0176 13.6588C21.0063 13.6263 20.9886 13.5964 20.9654 13.5709C20.9422 13.5455 20.9141 13.525 20.8828 13.5108C20.8514 13.4965 20.8175 13.4888 20.7831 13.4881H17.9419V11.4146C17.9419 11.1805 18.0349 10.9561 18.2004 10.7905C18.3659 10.625 18.5904 10.532 18.8245 10.532H20.8073C20.873 10.532 20.9361 10.5059 20.9825 10.4594C21.029 10.413 21.0551 10.3499 21.0551 10.2842V7.35234C21.0551 7.31979 21.0487 7.28755 21.0363 7.25748C21.0238 7.22741 21.0055 7.2001 20.9825 7.17709C20.9595 7.15407 20.9322 7.1358 20.9021 7.12335C20.8721 7.11089 20.8398 7.10449 20.8073 7.10449H17.4583C16.5134 7.10449 15.6072 7.47942 14.9385 8.14697C14.2698 8.81453 13.8933 9.72015 13.8917 10.665V13.4881H12.1387C12.0713 13.4881 12.0067 13.5148 11.9591 13.5624C11.9115 13.6101 11.8848 13.6746 11.8848 13.742V16.6678C11.8848 16.7008 11.8914 16.7336 11.9042 16.764C11.917 16.7945 11.9358 16.8221 11.9595 16.8452C11.9831 16.8683 12.0112 16.8864 12.042 16.8985C12.0727 16.9106 12.1056 16.9164 12.1387 16.9156H13.9099V17.0728Z" fill="white"/>
</g>
<defs>
<clipPath id="clip0_9228_31127">
<rect width="33" height="33" fill="white" transform="translate(0 0.497314)"/>
</clipPath>
</defs>
</svg>
