<svg width="337" height="40" viewBox="0 0 337 40" fill="none" xmlns="http://www.w3.org/2000/svg">
<rect width="337" height="40" rx="20" fill="#3C5A99"/>
<path d="M110.845 15.04C110.077 14.768 109.197 14.64 108.461 14.64C106.445 14.64 104.877 15.696 104.877 17.68C104.877 21.152 109.677 20.464 109.677 22.96C109.677 24.272 108.397 24.784 107.485 24.784C106.669 24.784 105.709 24.464 105.165 24.24L105.005 25.728C105.741 25.968 106.509 26.192 107.293 26.192C109.533 26.192 111.373 25.248 111.373 22.864C111.373 19.184 106.573 19.68 106.573 17.536C106.573 16.368 107.629 16.048 108.525 16.048C109.357 16.048 109.805 16.192 110.621 16.512L110.845 15.04ZM113.597 26H115.101V17.84H113.597V26ZM115.197 14.32H113.501V16.016H115.197V14.32ZM125.074 17.84H123.682V19.056H123.65C123.202 18.176 122.402 17.648 120.962 17.648C118.498 17.648 117.314 19.888 117.314 21.984C117.314 24.096 118.466 26 120.802 26C121.842 26 122.898 25.584 123.538 24.736H123.57V25.536C123.57 27.264 122.626 28.336 121.042 28.336C119.938 28.336 119.25 28.128 118.098 27.6L117.938 28.992C119.25 29.44 120.002 29.552 120.866 29.552C123.794 29.552 125.074 28.128 125.074 25.648V17.84ZM121.186 24.784C119.778 24.784 118.914 23.44 118.914 21.904C118.914 20.512 119.666 18.864 121.186 18.864C122.786 18.864 123.57 20.32 123.57 22.016C123.57 23.536 122.594 24.784 121.186 24.784ZM127.639 26H129.143V22.224C129.143 20.24 129.911 18.864 131.623 18.864C132.935 18.944 133.351 19.872 133.351 21.776V26H134.855V21.152C134.855 18.96 133.911 17.648 131.799 17.648C130.663 17.648 129.575 18.208 129.127 19.136H129.095V17.84H127.639V26ZM142.066 26H143.57V17.84H142.066V26ZM143.666 14.32H141.97V16.016H143.666V14.32ZM146.327 26H147.831V22.224C147.831 20.24 148.599 18.864 150.311 18.864C151.623 18.944 152.039 19.872 152.039 21.776V26H153.543V21.152C153.543 18.96 152.599 17.648 150.487 17.648C149.351 17.648 148.263 18.208 147.815 19.136H147.783V17.84H146.327V26ZM167.777 17.84H166.273V21.616C166.273 23.6 165.505 24.976 163.793 24.976C162.481 24.896 162.065 23.968 162.065 22.064V17.84H160.561V22.688C160.561 24.88 161.505 26.192 163.617 26.192C164.753 26.192 165.841 25.632 166.289 24.704H166.321V26H167.777V17.84ZM169.655 25.744C170.343 26.112 171.127 26.192 171.895 26.192C173.351 26.192 174.743 25.392 174.743 23.648C174.743 21.04 171.207 21.52 171.207 19.856C171.207 19.184 171.879 18.864 172.647 18.864C172.999 18.864 173.895 19.072 174.231 19.28L174.359 17.968C173.766 17.792 173.191 17.648 172.487 17.648C170.871 17.648 169.607 18.464 169.607 20.16C169.607 22.448 173.143 22.32 173.143 23.808C173.143 24.688 172.295 24.976 171.607 24.976C171.174 24.976 170.327 24.784 169.735 24.4L169.655 25.744ZM176.753 26H178.257V17.84H176.753V26ZM178.353 14.32H176.657V16.016H178.353V14.32ZM181.014 26H182.518V22.224C182.518 20.24 183.286 18.864 184.998 18.864C186.31 18.944 186.726 19.872 186.726 21.776V26H188.23V21.152C188.23 18.96 187.286 17.648 185.174 17.648C184.038 17.648 182.95 18.208 182.502 19.136H182.47V17.84H181.014V26ZM198.012 17.84H196.62V19.056H196.588C196.14 18.176 195.34 17.648 193.9 17.648C191.436 17.648 190.252 19.888 190.252 21.984C190.252 24.096 191.404 26 193.74 26C194.78 26 195.836 25.584 196.476 24.736H196.508V25.536C196.508 27.264 195.564 28.336 193.98 28.336C192.876 28.336 192.188 28.128 191.036 27.6L190.876 28.992C192.188 29.44 192.94 29.552 193.804 29.552C196.732 29.552 198.012 28.128 198.012 25.648V17.84ZM194.124 24.784C192.716 24.784 191.852 23.44 191.852 21.904C191.852 20.512 192.604 18.864 194.124 18.864C195.724 18.864 196.508 20.32 196.508 22.016C196.508 23.536 195.532 24.784 194.124 24.784ZM205.078 26H206.678V20.912H210.822V19.504H206.678V16.24H211.014V14.832H205.078V26ZM213.494 19.696C214.102 19.184 215.014 18.864 215.862 18.864C217.366 18.864 217.878 19.584 217.878 20.992C217.286 20.96 216.87 20.96 216.278 20.96C214.726 20.96 212.486 21.6 212.486 23.648C212.486 25.424 213.718 26.192 215.478 26.192C216.854 26.192 217.654 25.44 218.006 24.944H218.038V26H219.446C219.414 25.76 219.382 25.328 219.382 24.4V21.024C219.382 18.8 218.438 17.648 216.102 17.648C215.062 17.648 214.166 17.968 213.414 18.416L213.494 19.696ZM217.878 22.832C217.878 24.048 217.094 24.976 215.606 24.976C214.918 24.976 214.086 24.512 214.086 23.648C214.086 22.208 216.102 22.08 216.918 22.08C217.238 22.08 217.558 22.112 217.878 22.112V22.832ZM227.233 17.968C226.801 17.792 226.017 17.648 225.409 17.648C222.913 17.648 221.249 19.44 221.249 21.92C221.249 24.256 222.945 26.192 225.409 26.192C225.953 26.192 226.673 26.144 227.297 25.856L227.185 24.512C226.721 24.816 226.081 24.976 225.569 24.976C223.633 24.976 222.849 23.376 222.849 21.92C222.849 20.368 223.793 18.864 225.473 18.864C225.953 18.864 226.529 18.976 227.105 19.216L227.233 17.968ZM235.286 24.16C234.918 24.464 233.766 24.976 232.774 24.976C231.35 24.976 230.086 23.872 230.086 22.256H235.91C235.91 19.632 235.03 17.648 232.31 17.648C230.006 17.648 228.486 19.36 228.486 21.776C228.486 24.432 229.814 26.192 232.71 26.192C234.054 26.192 234.71 25.872 235.286 25.664V24.16ZM230.086 21.136C230.198 20.08 230.806 18.864 232.278 18.864C233.574 18.864 234.31 19.888 234.31 21.136H230.086ZM237.921 26H239.361V24.848H239.393C239.793 25.456 240.721 26.192 242.177 26.192C244.641 26.192 245.681 24.016 245.681 21.776C245.681 19.584 244.529 17.648 242.161 17.648C240.737 17.648 239.921 18.208 239.457 18.96H239.425V14H237.921V26ZM244.081 21.888C244.113 23.168 243.441 24.976 241.825 24.976C240.129 24.976 239.425 23.296 239.425 21.936C239.425 20.416 240.209 18.864 241.841 18.864C243.473 18.864 244.113 20.416 244.081 21.888ZM247.158 21.92C247.158 24.256 248.854 26.192 251.318 26.192C253.766 26.192 255.462 24.256 255.462 21.92C255.462 19.44 253.798 17.648 251.318 17.648C248.822 17.648 247.158 19.44 247.158 21.92ZM248.758 21.92C248.758 20.368 249.702 18.864 251.318 18.864C252.918 18.864 253.862 20.368 253.862 21.92C253.862 23.376 253.078 24.976 251.318 24.976C249.542 24.976 248.758 23.376 248.758 21.92ZM256.939 21.92C256.939 24.256 258.635 26.192 261.099 26.192C263.547 26.192 265.243 24.256 265.243 21.92C265.243 19.44 263.579 17.648 261.099 17.648C258.603 17.648 256.939 19.44 256.939 21.92ZM258.539 21.92C258.539 20.368 259.483 18.864 261.099 18.864C262.699 18.864 263.643 20.368 263.643 21.92C263.643 23.376 262.859 24.976 261.099 24.976C259.323 24.976 258.539 23.376 258.539 21.92ZM267.264 26H268.768V21.808L272.416 26H274.576L270.304 21.456L274.096 17.84H272.048L268.768 21.152V14H267.264V26Z" fill="white"/>
<g clip-path="url(#clip0_14308_44449)">
<path d="M25.4973 35.994C22.2347 35.9928 19.0458 35.0242 16.3337 33.2108C13.6216 31.3973 11.5081 28.8204 10.2604 25.8059C9.01269 22.7914 8.68685 19.4746 9.32408 16.2749C9.9613 13.0752 11.533 10.1363 13.8403 7.82972C16.1477 5.52318 19.0872 3.9526 22.2872 3.31655C25.4871 2.6805 28.8038 3.00755 31.8178 4.25635C34.8319 5.50514 37.408 7.6196 39.2205 10.3324C41.0329 13.0452 42.0003 16.2344 42.0003 19.497C41.9955 23.8718 40.2551 28.066 37.161 31.1589C34.067 34.2519 29.8721 35.9908 25.4973 35.994Z" fill="#3C5A99"/>
<path fill-rule="evenodd" clip-rule="evenodd" d="M22.9099 19.5755V29.1388C22.9114 29.204 22.938 29.2662 22.9842 29.3123C23.0303 29.3585 23.0925 29.3851 23.1577 29.3866H26.7122C26.7779 29.3866 26.841 29.3605 26.8875 29.314C26.9339 29.2676 26.9601 29.2045 26.9601 29.1388V19.4183H29.5352C29.598 19.4185 29.6584 19.3949 29.7044 19.3522C29.7504 19.3096 29.7785 19.2511 29.7831 19.1886L30.0309 16.2628C30.0334 16.2284 30.0289 16.194 30.0176 16.1615C30.0063 16.1289 29.9886 16.099 29.9654 16.0736C29.9422 16.0482 29.9141 16.0277 29.8828 16.0135C29.8514 15.9992 29.8175 15.9915 29.7831 15.9908H26.9419V13.9173C26.9419 13.6832 27.0349 13.4587 27.2004 13.2932C27.3659 13.1277 27.5904 13.0347 27.8245 13.0347H29.8073C29.873 13.0347 29.9361 13.0086 29.9825 12.9621C30.029 12.9156 30.0551 12.8526 30.0551 12.7869V9.85503C30.0551 9.82248 30.0487 9.79024 30.0363 9.76017C30.0238 9.7301 30.0055 9.70279 29.9825 9.67977C29.9595 9.65676 29.9322 9.63849 29.9021 9.62603C29.8721 9.61358 29.8398 9.60718 29.8073 9.60718H26.4583C25.5134 9.60718 24.6072 9.9821 23.9385 10.6497C23.2698 11.3172 22.8933 12.2228 22.8917 13.1677V15.9908H21.1387C21.0713 15.9908 21.0067 16.0175 20.9591 16.0651C20.9115 16.1127 20.8848 16.1773 20.8848 16.2446V19.1705C20.8848 19.2035 20.8914 19.2363 20.9042 19.2667C20.917 19.2972 20.9358 19.3248 20.9595 19.3479C20.9831 19.371 21.0112 19.3891 21.042 19.4012C21.0727 19.4133 21.1056 19.4191 21.1387 19.4183H22.9099V19.5755Z" fill="white"/>
</g>
<defs>
<clipPath id="clip0_14308_44449">
<rect width="33" height="33" fill="white" transform="translate(9 3)"/>
</clipPath>
</defs>
</svg>
