<svg width="34" height="34" viewBox="0 0 34 34" fill="none" xmlns="http://www.w3.org/2000/svg">
<path d="M16.5029 33.5031C25.6172 33.5031 33.0058 26.1145 33.0058 17.0002C33.0058 7.88592 25.6172 0.497314 16.5029 0.497314C7.3886 0.497314 0 7.88592 0 17.0002C0 26.1145 7.3886 33.5031 16.5029 33.5031Z" fill="white"/>
<path d="M12.9185 7.06272C10.8398 7.78516 9.04704 9.15672 7.80364 10.9759C6.56024 12.795 5.93175 14.9659 6.0105 17.1696C6.08925 19.3732 6.87109 21.4935 8.24115 23.2188C9.61122 24.9442 11.4973 26.1837 13.6223 26.7552C15.3448 27.2006 17.1495 27.22 18.8812 26.8119C20.4971 26.4578 21.9857 25.6677 23.186 24.527C24.3863 23.3864 25.2525 21.9385 25.6911 20.34C26.1939 18.561 26.2836 16.6902 25.9532 14.871C22.7279 14.871 19.5011 14.871 16.2729 14.871C16.2729 16.2119 16.2729 17.5527 16.2729 18.8924H21.8755C21.7637 19.5344 21.5237 20.1471 21.1699 20.6939C20.8161 21.2406 20.3558 21.7102 19.8166 22.0744C19.1328 22.5282 18.3617 22.8334 17.5531 22.9704C16.742 23.1189 15.9106 23.1163 15.1004 22.9628C14.277 22.7956 13.4973 22.4585 12.8109 21.973C11.7134 21.1938 10.889 20.0876 10.455 18.8117C10.0145 17.511 10.0145 16.1009 10.455 14.8002C10.7637 13.8881 11.2738 13.0575 11.9472 12.3704C12.7192 11.5708 13.696 10.9998 14.7705 10.7202C15.8451 10.4406 16.9757 10.4632 18.0382 10.7854C18.8689 11.042 19.6281 11.49 20.2549 12.0935C20.8872 11.4634 21.5177 10.8319 22.1464 10.1989C22.4781 9.8588 22.8251 9.53504 23.1459 9.18512C22.1887 8.28898 21.0643 7.59107 19.8372 7.13139C17.6065 6.31736 15.1649 6.29313 12.9185 7.06272Z" fill="white"/>
<path d="M12.9178 7.06201C15.165 6.28867 17.6087 6.31022 19.842 7.12305C21.0689 7.5824 22.1933 8.27995 23.1507 9.1757C22.8244 9.52562 22.4829 9.84937 22.1511 10.1895C21.5203 10.821 20.8898 11.4525 20.2596 12.0841C19.6328 11.4805 18.8736 11.0325 18.043 10.776C16.9804 10.4537 15.8498 10.4312 14.7753 10.7108C13.7008 10.9904 12.7239 11.5613 11.952 12.3609C11.2785 13.0481 10.7684 13.8786 10.4597 14.7908L7.08789 12.1745C8.29551 9.77665 10.3861 7.9433 12.9178 7.06201Z" fill="#EA4535"/>
<path d="M6.20084 14.7646C6.38191 13.8652 6.68224 12.9941 7.09382 12.1746L10.4656 14.7908C10.0251 16.0915 10.0251 17.5016 10.4656 18.8023C9.34313 19.6744 8.2192 20.5465 7.09382 21.4185C6.06383 19.3625 5.7495 17.0203 6.20084 14.7646Z" fill="#F9BC15"/>
<path d="M16.2783 14.8694C19.5036 14.8694 22.7304 14.8694 25.9586 14.8694C26.289 16.6885 26.1993 18.5593 25.6965 20.3384C25.2333 21.9747 24.3339 23.4536 23.0948 24.6159C22.0071 23.7667 20.9194 22.9219 19.8318 22.0716C20.371 21.7074 20.8313 21.2379 21.1851 20.6911C21.5389 20.1443 21.7789 19.5316 21.8907 18.8896H16.2794C16.2772 17.551 16.2794 16.2102 16.2783 14.8694Z" fill="#557EBF"/>
<path d="M7.09277 21.4263C8.21743 20.5542 9.34136 19.6821 10.4646 18.8101C10.8986 20.0859 11.723 21.1921 12.8205 21.9713C13.5069 22.4569 14.2866 22.7939 15.11 22.9611C15.9202 23.1146 16.7516 23.1172 17.5627 22.9688C18.3714 22.8317 19.1424 22.5265 19.8262 22.0727C20.9139 22.923 22.0015 23.7678 23.0892 24.617C21.8999 25.7015 20.4498 26.4577 18.881 26.8113C17.1493 27.2195 15.3446 27.2 13.6221 26.7547C12.2601 26.3902 10.9881 25.7474 9.88592 24.8666C8.71842 23.9349 7.76563 22.7614 7.09277 21.4263Z" fill="#36A852"/>
</svg>
