<svg width="337" height="40" viewBox="0 0 337 40" fill="none" xmlns="http://www.w3.org/2000/svg">
<rect width="337" height="40" rx="20" fill="#EA4535"/>
<path d="M119.29 15.04C118.522 14.768 117.642 14.64 116.906 14.64C114.89 14.64 113.322 15.696 113.322 17.68C113.322 21.152 118.122 20.464 118.122 22.96C118.122 24.272 116.842 24.784 115.93 24.784C115.114 24.784 114.154 24.464 113.61 24.24L113.45 25.728C114.186 25.968 114.954 26.192 115.738 26.192C117.978 26.192 119.818 25.248 119.818 22.864C119.818 19.184 115.018 19.68 115.018 17.536C115.018 16.368 116.074 16.048 116.97 16.048C117.802 16.048 118.25 16.192 119.066 16.512L119.29 15.04ZM122.042 26H123.546V17.84H122.042V26ZM123.642 14.32H121.946V16.016H123.642V14.32ZM133.519 17.84H132.127V19.056H132.095C131.647 18.176 130.847 17.648 129.407 17.648C126.943 17.648 125.759 19.888 125.759 21.984C125.759 24.096 126.911 26 129.247 26C130.287 26 131.343 25.584 131.983 24.736H132.015V25.536C132.015 27.264 131.071 28.336 129.487 28.336C128.383 28.336 127.695 28.128 126.543 27.6L126.383 28.992C127.695 29.44 128.447 29.552 129.311 29.552C132.239 29.552 133.519 28.128 133.519 25.648V17.84ZM129.631 24.784C128.223 24.784 127.359 23.44 127.359 21.904C127.359 20.512 128.111 18.864 129.631 18.864C131.231 18.864 132.015 20.32 132.015 22.016C132.015 23.536 131.039 24.784 129.631 24.784ZM136.085 26H137.589V22.224C137.589 20.24 138.357 18.864 140.069 18.864C141.381 18.944 141.797 19.872 141.797 21.776V26H143.301V21.152C143.301 18.96 142.357 17.648 140.245 17.648C139.109 17.648 138.021 18.208 137.573 19.136H137.541V17.84H136.085V26ZM150.511 26H152.015V17.84H150.511V26ZM152.111 14.32H150.415V16.016H152.111V14.32ZM154.772 26H156.276V22.224C156.276 20.24 157.044 18.864 158.756 18.864C160.068 18.944 160.484 19.872 160.484 21.776V26H161.988V21.152C161.988 18.96 161.044 17.648 158.932 17.648C157.796 17.648 156.708 18.208 156.26 19.136H156.228V17.84H154.772V26ZM176.223 17.84H174.719V21.616C174.719 23.6 173.951 24.976 172.239 24.976C170.927 24.896 170.511 23.968 170.511 22.064V17.84H169.007V22.688C169.007 24.88 169.951 26.192 172.063 26.192C173.199 26.192 174.287 25.632 174.735 24.704H174.767V26H176.223V17.84ZM178.1 25.744C178.788 26.112 179.572 26.192 180.34 26.192C181.796 26.192 183.188 25.392 183.188 23.648C183.188 21.04 179.652 21.52 179.652 19.856C179.652 19.184 180.324 18.864 181.092 18.864C181.444 18.864 182.34 19.072 182.676 19.28L182.804 17.968C182.212 17.792 181.636 17.648 180.932 17.648C179.316 17.648 178.052 18.464 178.052 20.16C178.052 22.448 181.588 22.32 181.588 23.808C181.588 24.688 180.74 24.976 180.052 24.976C179.62 24.976 178.772 24.784 178.18 24.4L178.1 25.744ZM185.199 26H186.703V17.84H185.199V26ZM186.799 14.32H185.103V16.016H186.799V14.32ZM189.46 26H190.964V22.224C190.964 20.24 191.732 18.864 193.444 18.864C194.756 18.944 195.172 19.872 195.172 21.776V26H196.676V21.152C196.676 18.96 195.732 17.648 193.62 17.648C192.484 17.648 191.396 18.208 190.948 19.136H190.916V17.84H189.46V26ZM206.457 17.84H205.065V19.056H205.033C204.585 18.176 203.785 17.648 202.345 17.648C199.881 17.648 198.697 19.888 198.697 21.984C198.697 24.096 199.849 26 202.185 26C203.225 26 204.281 25.584 204.921 24.736H204.953V25.536C204.953 27.264 204.009 28.336 202.425 28.336C201.321 28.336 200.633 28.128 199.481 27.6L199.321 28.992C200.633 29.44 201.385 29.552 202.249 29.552C205.177 29.552 206.457 28.128 206.457 25.648V17.84ZM202.569 24.784C201.161 24.784 200.297 23.44 200.297 21.904C200.297 20.512 201.049 18.864 202.569 18.864C204.169 18.864 204.953 20.32 204.953 22.016C204.953 23.536 203.977 24.784 202.569 24.784ZM222.227 15.2C221.299 14.88 220.579 14.64 218.947 14.64C215.539 14.64 213.043 16.928 213.043 20.368C213.043 23.92 215.395 26.192 218.931 26.192C220.675 26.192 221.731 25.904 222.339 25.696V19.888H218.387V21.2H220.739V24.592C220.339 24.672 220.051 24.784 218.947 24.784C216.627 24.784 214.739 23.04 214.739 20.416C214.739 17.92 216.451 16.048 219.027 16.048C220.467 16.048 221.315 16.304 222.099 16.816L222.227 15.2ZM224.478 21.92C224.478 24.256 226.174 26.192 228.638 26.192C231.086 26.192 232.782 24.256 232.782 21.92C232.782 19.44 231.118 17.648 228.638 17.648C226.142 17.648 224.478 19.44 224.478 21.92ZM226.078 21.92C226.078 20.368 227.022 18.864 228.638 18.864C230.238 18.864 231.182 20.368 231.182 21.92C231.182 23.376 230.398 24.976 228.638 24.976C226.862 24.976 226.078 23.376 226.078 21.92ZM234.259 21.92C234.259 24.256 235.955 26.192 238.419 26.192C240.867 26.192 242.563 24.256 242.563 21.92C242.563 19.44 240.899 17.648 238.419 17.648C235.923 17.648 234.259 19.44 234.259 21.92ZM235.859 21.92C235.859 20.368 236.803 18.864 238.419 18.864C240.019 18.864 240.963 20.368 240.963 21.92C240.963 23.376 240.179 24.976 238.419 24.976C236.643 24.976 235.859 23.376 235.859 21.92ZM251.801 17.84H250.409V19.056H250.377C249.929 18.176 249.129 17.648 247.689 17.648C245.225 17.648 244.041 19.888 244.041 21.984C244.041 24.096 245.193 26 247.529 26C248.569 26 249.625 25.584 250.265 24.736H250.297V25.536C250.297 27.264 249.353 28.336 247.769 28.336C246.665 28.336 245.977 28.128 244.825 27.6L244.665 28.992C245.977 29.44 246.729 29.552 247.593 29.552C250.521 29.552 251.801 28.128 251.801 25.648V17.84ZM247.913 24.784C246.505 24.784 245.641 23.44 245.641 21.904C245.641 20.512 246.393 18.864 247.913 18.864C249.513 18.864 250.297 20.32 250.297 22.016C250.297 23.536 249.321 24.784 247.913 24.784ZM254.558 26H256.062V14H254.558V26ZM265.075 24.16C264.707 24.464 263.555 24.976 262.563 24.976C261.139 24.976 259.875 23.872 259.875 22.256H265.699C265.699 19.632 264.819 17.648 262.099 17.648C259.795 17.648 258.275 19.36 258.275 21.776C258.275 24.432 259.603 26.192 262.499 26.192C263.843 26.192 264.499 25.872 265.075 25.664V24.16ZM259.875 21.136C259.987 20.08 260.595 18.864 262.067 18.864C263.363 18.864 264.099 19.888 264.099 21.136H259.875Z" fill="white"/>
<path d="M21.919 9.5654C19.8403 10.2878 18.0475 11.6594 16.8041 13.4786C15.5607 15.2977 14.9322 17.4686 15.011 19.6723C15.0897 21.8759 15.8716 23.9961 17.2416 25.7215C18.6117 27.4469 20.4978 28.6864 22.6227 29.2579C24.3453 29.7033 26.15 29.7227 27.8817 29.3146C29.4976 28.9605 30.9862 28.1704 32.1865 27.0297C33.3868 25.889 34.253 24.4412 34.6916 22.8427C35.1944 21.0637 35.2841 19.1929 34.9537 17.3737C31.7284 17.3737 28.5016 17.3737 25.2734 17.3737C25.2734 18.7145 25.2734 20.0554 25.2734 21.3951H30.876C30.7642 22.0371 30.5242 22.6498 30.1704 23.1965C29.8166 23.7433 29.3563 24.2129 28.8171 24.5771C28.1333 25.0308 27.3622 25.3361 26.5536 25.4731C25.7425 25.6216 24.9111 25.619 24.1009 25.4655C23.2775 25.2983 22.4978 24.9612 21.8113 24.4757C20.7139 23.6965 19.8895 22.5903 19.4554 21.3144C19.0149 20.0137 19.0149 18.6036 19.4554 17.3029C19.7642 16.3907 20.2743 15.5602 20.9477 14.8731C21.7197 14.0735 22.6965 13.5025 23.771 13.2229C24.8455 12.9433 25.9761 12.9658 27.0387 13.2881C27.8694 13.5446 28.6286 13.9926 29.2554 14.5962C29.8877 13.9661 30.5182 13.3346 31.1469 12.7016C31.4786 12.3615 31.8256 12.0377 32.1464 11.6878C31.1891 10.7917 30.0647 10.0938 28.8377 9.63408C26.607 8.82005 24.1654 8.79581 21.919 9.5654Z" fill="white"/>
<path d="M21.9183 9.56469C24.1655 8.79136 26.6092 8.81291 28.8425 9.62574C30.0694 10.0851 31.1938 10.7826 32.1512 11.6784C31.8249 12.0283 31.4833 12.3521 31.1516 12.6922C30.5207 13.3237 29.8903 13.9552 29.2601 14.5867C28.6333 13.9832 27.8741 13.5352 27.0434 13.2786C25.9809 12.9564 24.8503 12.9339 23.7758 13.2135C22.7013 13.4931 21.7244 14.064 20.9525 14.8636C20.279 15.5508 19.7689 16.3813 19.4602 17.2934L16.0884 14.6772C17.296 12.2793 19.3866 10.446 21.9183 9.56469Z" fill="white"/>
<path d="M15.2008 17.2673C15.3819 16.3679 15.6822 15.4968 16.0938 14.6772L19.4656 17.2935C19.0251 18.5942 19.0251 20.0043 19.4656 21.305C18.3431 22.1771 17.2192 23.0491 16.0938 23.9212C15.0638 21.8652 14.7495 19.523 15.2008 17.2673Z" fill="white"/>
<path d="M25.2783 17.3721C28.5036 17.3721 31.7304 17.3721 34.9586 17.3721C35.289 19.1912 35.1993 21.062 34.6965 22.8411C34.2333 24.4774 33.3339 25.9563 32.0948 27.1186C31.0071 26.2694 29.9194 25.4246 28.8318 24.5743C29.371 24.2101 29.8313 23.7406 30.1851 23.1938C30.5389 22.647 30.7789 22.0343 30.8907 21.3923H25.2794C25.2772 20.0537 25.2794 18.7129 25.2783 17.3721Z" fill="white"/>
<path d="M16.0928 23.929C17.2174 23.0569 18.3414 22.1848 19.4646 21.3127C19.8986 22.5886 20.723 23.6948 21.8205 24.474C22.5069 24.9595 23.2866 25.2966 24.11 25.4638C24.9202 25.6173 25.7516 25.6199 26.5627 25.4714C27.3714 25.3344 28.1424 25.0292 28.8262 24.5754C29.9139 25.4257 31.0015 26.2705 32.0892 27.1197C30.8999 28.2042 29.4498 28.9604 27.881 29.314C26.1493 29.7222 24.3446 29.7027 22.6221 29.2573C21.2601 28.8929 19.9881 28.2501 18.8859 27.3693C17.7184 26.4376 16.7656 25.264 16.0928 23.929Z" fill="white"/>
</svg>
