<svg width="33" height="34" viewBox="0 0 33 34" fill="none" xmlns="http://www.w3.org/2000/svg">
<path d="M16.5 33.4973C13.2366 33.4973 10.0465 32.5296 7.3331 30.7166C4.61969 28.9035 2.50484 26.3266 1.25599 23.3116C0.007146 20.2966 -0.319605 16.979 0.317051 13.7783C0.953708 10.5776 2.52518 7.63761 4.83274 5.33004C7.14031 3.02248 10.0803 1.45102 13.281 0.814368C16.4817 0.177712 19.7993 0.504454 22.8143 1.7533C25.8293 3.00215 28.4062 5.117 30.2193 7.83041C32.0323 10.5438 33 13.7339 33 16.9973C32.9952 21.3719 31.2553 25.566 28.162 28.6593C25.0686 31.7526 20.8746 33.4925 16.5 33.4973Z" fill="#007AB9"/>
<path d="M25.819 18.2506V24.4146C25.8174 24.4874 25.7874 24.5567 25.7353 24.6077C25.6832 24.6586 25.6133 24.6871 25.5405 24.6871H22.3616C22.2887 24.6871 22.2188 24.6586 22.1667 24.6077C22.1147 24.5567 22.0846 24.4874 22.083 24.4146V18.6865C22.083 17.1788 21.5441 16.1494 20.1939 16.1494C19.7734 16.1517 19.364 16.2839 19.0215 16.5277C18.679 16.7716 18.4202 17.1153 18.2805 17.5118C18.1866 17.805 18.1456 18.1125 18.1594 18.4201V24.4146C18.1578 24.4874 18.1277 24.5567 18.0757 24.6077C18.0236 24.6586 17.9537 24.6871 17.8808 24.6871H14.7019C14.6297 24.6871 14.5604 24.6584 14.5093 24.6073C14.4582 24.5562 14.4294 24.4869 14.4294 24.4146C14.4294 22.8887 14.4658 15.4834 14.4294 13.7456C14.4286 13.7093 14.4351 13.6732 14.4484 13.6395C14.4618 13.6057 14.4817 13.5749 14.5071 13.549C14.5325 13.523 14.5628 13.5025 14.5962 13.4884C14.6297 13.4743 14.6656 13.4671 14.7019 13.4671H17.8748C17.9111 13.4663 17.9471 13.4727 17.9809 13.4861C18.0147 13.4994 18.0454 13.5193 18.0714 13.5447C18.0973 13.5701 18.1179 13.6004 18.132 13.6338C18.1461 13.6673 18.1533 13.7032 18.1533 13.7395V15.0595V15.0959V15.0595C18.4902 14.4723 18.9815 13.9885 19.574 13.6608C20.1664 13.3331 20.8373 13.1739 21.5139 13.2006C23.9722 13.2006 25.8129 14.8052 25.8129 18.2506H25.819ZM8.90725 24.6871H12.0861C12.159 24.6871 12.2289 24.6586 12.281 24.6077C12.3331 24.5567 12.3631 24.4874 12.3647 24.4146V13.7395C12.3631 13.6667 12.3331 13.5974 12.281 13.5465C12.2289 13.4956 12.159 13.467 12.0861 13.4671H8.90725C8.83498 13.4671 8.76567 13.4958 8.71457 13.5469C8.66348 13.598 8.63477 13.6673 8.63477 13.7395V24.4146C8.63473 24.4514 8.64216 24.4879 8.65661 24.5217C8.67105 24.5556 8.69221 24.5862 8.71881 24.6117C8.7454 24.6372 8.7769 24.6569 8.81137 24.6699C8.84583 24.6829 8.88257 24.6887 8.91935 24.6871H8.90725Z" fill="white"/>
<path d="M10.4025 12.0383C11.506 12.0383 12.4006 11.1437 12.4006 10.0402C12.4006 8.9366 11.506 8.04199 10.4025 8.04199C9.29891 8.04199 8.4043 8.9366 8.4043 10.0402C8.4043 11.1437 9.29891 12.0383 10.4025 12.0383Z" fill="white"/>
</svg>
