<svg width="61" height="61" viewBox="0 0 61 61" fill="none" xmlns="http://www.w3.org/2000/svg">
<g filter="url(#filter0_d_9345_21665)">
<circle cx="30.5" cy="26.5" r="26.5" fill="#00AEEF"/>
<path d="M11.0667 37.0999C11.0667 33.1249 16.3667 33.1249 19.0167 30.4749C20.3417 29.1499 16.3667 29.1499 16.3667 22.5249C16.3667 18.1087 18.1329 15.8999 21.6667 15.8999C25.2004 15.8999 26.9667 18.1087 26.9667 22.5249C26.9667 29.1499 22.9917 29.1499 24.3167 30.4749C26.9667 33.1249 32.2667 33.1249 32.2667 37.0999" stroke="white" stroke-width="1.5" stroke-linecap="round"/>
<path d="M30.4998 33.5666C31.5015 32.8762 31.9185 32.8087 33.1628 32.2094C34.1356 31.7408 35.0742 31.2097 35.8091 30.4749C37.1341 29.1499 33.1591 29.1499 33.1591 22.5249C33.1591 18.1087 34.9253 15.8999 38.4591 15.8999C41.9928 15.8999 43.7591 18.1087 43.7591 22.5249C43.7591 29.1499 39.7841 29.1499 41.1091 30.4749C43.7591 33.1249 49.0591 33.1249 49.0591 37.0999" stroke="white" stroke-width="1.5" stroke-linecap="round"/>
</g>
<defs>
<filter id="filter0_d_9345_21665" x="0" y="0" width="61" height="61" filterUnits="userSpaceOnUse" color-interpolation-filters="sRGB">
<feFlood flood-opacity="0" result="BackgroundImageFix"/>
<feColorMatrix in="SourceAlpha" type="matrix" values="0 0 0 0 0 0 0 0 0 0 0 0 0 0 0 0 0 0 127 0" result="hardAlpha"/>
<feOffset dy="4"/>
<feGaussianBlur stdDeviation="2"/>
<feComposite in2="hardAlpha" operator="out"/>
<feColorMatrix type="matrix" values="0 0 0 0 0 0 0 0 0 0 0 0 0 0 0 0 0 0 0.25 0"/>
<feBlend mode="normal" in2="BackgroundImageFix" result="effect1_dropShadow_9345_21665"/>
<feBlend mode="normal" in="SourceGraphic" in2="effect1_dropShadow_9345_21665" result="shape"/>
</filter>
</defs>
</svg>
