<svg width="30" height="30" viewBox="0 0 30 30" fill="none" xmlns="http://www.w3.org/2000/svg">
<circle cx="15" cy="15" r="15" fill="#00AEEF"/>
<path d="M4 21C4 18.75 7 18.75 8.5 17.25C9.25 16.5 7 16.5 7 12.75C7 10.2503 7.99975 9 10 9C12.0003 9 13 10.2503 13 12.75C13 16.5 10.75 16.5 11.5 17.25C13 18.75 16 18.75 16 21" stroke="white" stroke-width="1.5" stroke-linecap="round"/>
<path d="M15 19C15.567 18.6092 15.803 18.571 16.5074 18.2318C17.058 17.9665 17.5893 17.6659 18.0053 17.25C18.7553 16.5 16.5053 16.5 16.5053 12.75C16.5053 10.2503 17.505 9 19.5053 9C21.5055 9 22.5053 10.2503 22.5053 12.75C22.5053 16.5 20.2553 16.5 21.0053 17.25C22.5053 18.75 25.5053 18.75 25.5053 21" stroke="white" stroke-width="1.5" stroke-linecap="round"/>
</svg>
