<svg width="33" height="34" viewBox="0 0 33 34" fill="none" xmlns="http://www.w3.org/2000/svg">
<g clip-path="url(#clip0_9228_31131)">
<path d="M16.5029 33.5031C25.6172 33.5031 33.0058 26.1145 33.0058 17.0002C33.0058 7.88592 25.6172 0.497314 16.5029 0.497314C7.3886 0.497314 0 7.88592 0 17.0002C0 26.1145 7.3886 33.5031 16.5029 33.5031Z" fill="#4671B0"/>
<path d="M25.1036 16.4532V9.12695L15.9561 10.3839V16.4532H25.1036Z" fill="white"/>
<path d="M15.9561 17.6812V23.7388L25.1036 24.8677V17.6812H15.9561Z" fill="white"/>
<path d="M14.7281 16.4533V10.5527L7.89648 11.4896V16.4533H14.7281Z" fill="white"/>
<path d="M7.89648 17.6812V22.7438L14.7281 23.5875V17.6812H7.89648Z" fill="white"/>
</g>
<defs>
<clipPath id="clip0_9228_31131">
<rect width="33" height="33" fill="white" transform="translate(0 0.497314)"/>
</clipPath>
</defs>
</svg>
