<svg width="22" height="28" viewBox="0 0 22 28" fill="none" xmlns="http://www.w3.org/2000/svg">
<path d="M12 0H2C0.89543 0 0 1.07452 0 2.4V21.6C0 22.9255 0.89543 24 2 24H12C13.1046 24 14 22.9255 14 21.6V2.4C14 1.07452 13.1046 0 12 0Z" fill="#5448A9"/>
<path d="M17.4096 16.2256C17.3348 16.2125 17.2583 16.2109 17.183 16.2208L14.9418 16.5146C14.8692 16.5241 14.7984 16.5442 14.7317 16.5742L12.9961 17.3546L11.121 13.1847C11.0556 13.0395 10.9497 12.9012 10.8504 12.7934C10.7407 12.6744 10.594 12.5436 10.4131 12.4328C10.0432 12.2062 9.48044 12.0413 8.86254 12.3192C8.24465 12.597 7.99451 13.1274 7.91862 13.5545C7.8815 13.7634 7.88196 13.9599 7.89821 14.121C7.91292 14.2667 7.94606 14.4378 8.01137 14.583L11.0783 21.4031L8.88152 21.1427C7.59548 20.9903 6.95481 22.6538 8.01084 23.4034L12.8884 26.8656C12.9402 26.9024 12.9965 26.9324 13.0558 26.955C13.2864 27.0427 13.5597 27.0436 13.805 26.9333L20.1427 24.0833C20.411 23.9626 20.5841 23.6962 20.5851 23.4019L20.601 18.9135C20.6012 18.8472 20.5927 18.7811 20.5755 18.717C20.5287 18.542 20.4274 18.3935 20.3782 18.3233C20.3107 18.227 20.2276 18.1237 20.1367 18.0201C19.9541 17.8116 19.7135 17.5707 19.4411 17.3357C18.9266 16.892 18.1726 16.359 17.4096 16.2256Z" fill="#5448A9" stroke="white" stroke-width="1.5" stroke-linejoin="round"/>
<path d="M4 4H10" stroke="white" stroke-width="1.5" stroke-linecap="round" stroke-linejoin="round"/>
</svg>
