<svg width="343" height="58" viewBox="0 0 343 58" fill="none" xmlns="http://www.w3.org/2000/svg">
<path d="M11.46 1.064C12.4867 1.43733 13.2053 1.82933 13.616 2.24C14.0267 2.65067 14.1947 3.04267 14.12 3.416C14.0453 3.77067 13.7933 4.16267 13.364 4.592C13.196 4.76 13.0467 4.9 12.916 5.012C12.804 5.124 12.6733 5.208 12.524 5.264C12.3747 5.30133 12.2627 5.33867 12.188 5.376C12.132 5.39467 12.0107 5.38533 11.824 5.348C11.656 5.292 11.5347 5.25467 11.46 5.236C11.404 5.19867 11.236 5.124 10.956 5.012C10.676 4.88133 10.4707 4.788 10.34 4.732C9.68667 4.452 8.95867 4.312 8.156 4.312C7.29733 4.312 6.56933 4.44267 5.972 4.704C5.39333 4.96533 5.02933 5.292 4.88 5.684C4.73067 6.05733 4.72133 6.44933 4.852 6.86C5.00133 7.27067 5.36533 7.65333 5.944 8.008C6.54133 8.344 7.27867 8.57733 8.156 8.708C12.7107 9.38 14.988 11.4707 14.988 14.98C14.988 16.156 14.596 17.22 13.812 18.172C13.028 19.1053 12.0667 19.8147 10.928 20.3C9.78933 20.7667 8.632 21 7.456 21C5.776 21 4.30133 20.7667 3.032 20.3C1.93067 19.8893 1.13733 19.4693 0.652 19.04C0.185333 18.6107 -0.02 18.2093 0.036 17.836C0.110667 17.4627 0.362667 17.0613 0.792 16.632C0.96 16.464 1.1 16.324 1.212 16.212C1.34267 16.1 1.48267 16.0253 1.632 15.988C1.78133 15.932 1.89333 15.8947 1.968 15.876C2.04267 15.8573 2.17333 15.876 2.36 15.932C2.54667 15.9693 2.67733 16.0067 2.752 16.044C2.84533 16.0627 3.032 16.1373 3.312 16.268C3.61067 16.3987 3.844 16.492 4.012 16.548C4.74 16.8653 5.664 17.0707 6.784 17.164C7.97867 17.2013 8.90267 17.0147 9.556 16.604C10.228 16.1933 10.564 15.68 10.564 15.064C10.564 14.1307 10.2747 13.4493 9.696 13.02C9.11733 12.572 8.44533 12.32 7.68 12.264C6.93333 12.208 6.01867 12.0587 4.936 11.816C3.872 11.5733 2.98533 11.2 2.276 10.696C0.913333 9.744 0.232 8.344 0.232 6.496C0.232 4.79733 0.978667 3.37867 2.472 2.24C3.984 1.08267 5.608 0.503999 7.344 0.503999C9.09867 0.503999 10.4707 0.690666 11.46 1.064ZM17.6088 2.408C17.6088 1.97867 17.7022 1.652 17.8888 1.428C18.0755 1.18533 18.5142 0.989333 19.2048 0.839999C19.8955 0.690666 20.7728 0.597332 21.8368 0.559999C22.9195 0.522666 24.4782 0.503999 26.5128 0.503999C28.5475 0.503999 30.0968 0.522666 31.1608 0.559999C32.2248 0.597332 33.1022 0.690666 33.7928 0.839999C34.4835 0.989333 34.9222 1.18533 35.1088 1.428C35.2955 1.652 35.3888 1.97867 35.3888 2.408C35.3888 3.22933 35.1835 3.752 34.7728 3.976C34.3808 4.2 33.4475 4.312 31.9728 4.312C31.3382 4.312 30.8342 4.37733 30.4608 4.508C30.0875 4.63867 29.7608 4.85333 29.4808 5.152C29.2195 5.45067 29.0235 5.94533 28.8928 6.636C28.7808 7.308 28.6968 8.10133 28.6408 9.016C28.5848 9.912 28.5568 11.1253 28.5568 12.656C28.5568 14.56 28.5288 16.016 28.4728 17.024C28.4355 18.032 28.3328 18.8627 28.1648 19.516C28.0155 20.1507 27.8195 20.5613 27.5768 20.748C27.3342 20.916 26.9795 21 26.5128 21C26.0462 21 25.6822 20.916 25.4208 20.748C25.1782 20.5613 24.9728 20.1507 24.8048 19.516C24.6555 18.8627 24.5528 18.032 24.4968 17.024C24.4595 16.016 24.4408 14.56 24.4408 12.656C24.4408 11.1253 24.4128 9.912 24.3568 9.016C24.3008 8.10133 24.2075 7.308 24.0768 6.636C23.9648 5.94533 23.7688 5.45067 23.4888 5.152C23.2275 4.85333 22.9102 4.63867 22.5368 4.508C22.1635 4.37733 21.6595 4.312 21.0248 4.312C19.5502 4.312 18.6075 4.2 18.1968 3.976C17.8048 3.752 17.6088 3.22933 17.6088 2.408ZM43.6777 18.144C43.0617 18.3307 42.6231 18.76 42.3617 19.432C42.1004 20.104 41.8017 20.5333 41.4657 20.72C41.1297 20.9067 40.4951 21 39.5617 21C39.0577 21 38.7124 20.8973 38.5257 20.692C38.3577 20.468 38.3391 19.964 38.4697 19.18C38.6191 18.3773 38.9177 17.36 39.3657 16.128C39.8324 14.896 40.5324 13.104 41.4657 10.752C42.6977 7.672 43.6311 5.45067 44.2657 4.088C44.9191 2.70667 45.4791 1.764 45.9457 1.26C46.4311 0.755999 46.9911 0.503999 47.6257 0.503999C48.2417 0.503999 48.7831 0.755999 49.2497 1.26C49.7351 1.764 50.2951 2.70667 50.9297 4.088C51.5831 5.45067 52.5257 7.672 53.7577 10.752C54.6911 13.1227 55.3817 14.924 55.8297 16.156C56.2777 17.3693 56.5764 18.3773 56.7257 19.18C56.8751 19.964 56.8657 20.468 56.6977 20.692C56.5297 20.8973 56.1937 21 55.6897 21C54.7377 21 54.0937 20.9067 53.7577 20.72C53.4404 20.5333 53.1511 20.104 52.8897 19.432C52.6284 18.76 52.1897 18.3307 51.5737 18.144C50.9577 17.9573 49.6417 17.864 47.6257 17.864C45.6097 17.864 44.2937 17.9573 43.6777 18.144ZM45.4137 13.076C45.6004 13.524 46.3564 13.748 47.6817 13.748C49.0071 13.748 49.7631 13.524 49.9497 13.076C50.1364 12.6093 49.9031 11.536 49.2497 9.856C48.5964 8.176 48.0831 7.336 47.7097 7.336C47.3551 7.336 46.8417 8.176 46.1697 9.856C45.4977 11.536 45.2457 12.6093 45.4137 13.076ZM67.2463 15.876C67.2463 13.6547 67.0223 11.9467 66.5743 10.752C66.1449 9.53867 65.1183 7.83067 63.4943 5.628C61.7209 3.23867 60.8156 1.764 60.7783 1.204C60.7409 0.849333 60.9463 0.634666 61.3943 0.559999C61.5809 0.522666 61.8236 0.503999 62.1223 0.503999C63.1676 0.503999 63.9703 0.699999 64.5303 1.092C65.0903 1.484 65.8836 2.39867 66.9103 3.836C67.9369 5.292 68.7303 6.02 69.2903 6.02C69.8689 6.02 70.6809 5.292 71.7263 3.836C72.7716 2.39867 73.5743 1.484 74.1343 1.092C74.6943 0.699999 75.4876 0.503999 76.5143 0.503999C77.3916 0.503999 77.8303 0.699999 77.8303 1.092C77.8676 1.596 77.0836 2.94 75.4783 5.124C75.3663 5.27333 75.2449 5.44133 75.1143 5.628C73.4716 7.83067 72.4263 9.53867 71.9783 10.752C71.5489 11.9467 71.3343 13.6547 71.3343 15.876C71.3343 17.4253 71.2783 18.5453 71.1663 19.236C71.0729 19.908 70.8863 20.3747 70.6063 20.636C70.3449 20.8787 69.9063 21 69.2903 21C68.6743 21 68.2263 20.8787 67.9463 20.636C67.6849 20.3747 67.4983 19.908 67.3863 19.236C67.2929 18.5453 67.2463 17.4253 67.2463 15.876ZM84.9989 20.692C84.7563 20.8973 84.4016 21 83.9349 21C83.4683 21 83.1136 20.8973 82.8709 20.692C82.6283 20.468 82.4229 19.964 82.2549 19.18C82.1056 18.3773 82.0029 17.36 81.9469 16.128C81.9096 14.8773 81.8909 13.076 81.8909 10.724C81.8909 8.372 81.9096 6.58 81.9469 5.348C82.0029 4.116 82.1056 3.108 82.2549 2.324C82.4229 1.52133 82.6283 1.01733 82.8709 0.812C83.1136 0.587999 83.4683 0.475999 83.9349 0.475999C84.4016 0.475999 84.7563 0.587999 84.9989 0.812C85.2416 1.01733 85.4376 1.52133 85.5869 2.324C85.7549 3.108 85.8576 4.116 85.8949 5.348C85.9509 6.58 85.9789 8.372 85.9789 10.724C85.9789 13.076 85.9509 14.8773 85.8949 16.128C85.8576 17.36 85.7549 18.3773 85.5869 19.18C85.4376 19.964 85.2416 20.468 84.9989 20.692ZM94.2101 13.776C94.2101 15.96 94.1541 17.528 94.0421 18.48C93.9487 19.432 93.7621 20.0947 93.4821 20.468C93.2207 20.8227 92.7821 21 92.1661 21C91.6994 21 91.3354 20.8973 91.0741 20.692C90.8314 20.468 90.6261 19.964 90.4581 19.18C90.3087 18.3773 90.2061 17.36 90.1501 16.128C90.1127 14.896 90.0941 13.104 90.0941 10.752C90.0941 8.4 90.1127 6.608 90.1501 5.376C90.2061 4.144 90.3087 3.136 90.4581 2.352C90.6261 1.54933 90.8314 1.04533 91.0741 0.839999C91.3354 0.615999 91.6994 0.503999 92.1661 0.503999C93.0434 0.503999 93.8927 0.811998 94.7141 1.428C95.5541 2.044 97.0754 3.5 99.2781 5.796C100.043 6.61733 100.669 7.27067 101.154 7.756C101.658 8.22267 102.106 8.596 102.498 8.876C102.909 9.13733 103.217 9.268 103.422 9.268C103.646 9.268 103.823 9.13733 103.954 8.876C104.103 8.596 104.197 8.22267 104.234 7.756C104.29 7.27067 104.318 6.61733 104.318 5.796C104.318 4.19067 104.365 3.04267 104.458 2.352C104.57 1.64267 104.757 1.15733 105.018 0.895998C105.298 0.634665 105.746 0.503999 106.362 0.503999C106.829 0.503999 107.183 0.615999 107.426 0.839999C107.669 1.04533 107.865 1.54933 108.014 2.352C108.182 3.136 108.285 4.144 108.322 5.376C108.378 6.608 108.406 8.4 108.406 10.752C108.406 13.104 108.378 14.896 108.322 16.128C108.285 17.36 108.182 18.3773 108.014 19.18C107.865 19.964 107.659 20.468 107.398 20.692C107.155 20.8973 106.801 21 106.334 21C105.438 21 104.869 20.888 104.626 20.664C104.383 20.44 104.262 19.9267 104.262 19.124C104.262 18.3213 103.963 17.5 103.366 16.66C102.787 15.8013 101.415 14.224 99.2501 11.928C98.5967 11.2373 98.0461 10.6867 97.5981 10.276C97.1501 9.84667 96.7301 9.48267 96.3381 9.184C95.9647 8.88533 95.6567 8.74533 95.4141 8.764C95.1901 8.764 94.9941 8.83867 94.8261 8.988C94.6581 9.11867 94.5274 9.41733 94.4341 9.884C94.3594 10.3507 94.3034 10.8827 94.2661 11.48C94.2287 12.0773 94.2101 12.8427 94.2101 13.776ZM111.561 10.696C111.523 8.82933 111.962 7.112 112.877 5.544C113.81 3.95733 115.061 2.72533 116.629 1.848C118.215 0.951999 119.933 0.503999 121.781 0.503999C123.237 0.503999 124.599 0.727999 125.869 1.176C126.671 1.456 127.297 1.74533 127.745 2.044C128.193 2.324 128.473 2.61333 128.585 2.912C128.697 3.21067 128.697 3.5 128.585 3.78C128.473 4.04133 128.267 4.34933 127.969 4.704C127.838 4.85333 127.717 4.984 127.605 5.096C127.511 5.18933 127.399 5.27333 127.269 5.348C127.138 5.42267 127.035 5.488 126.961 5.544C126.905 5.58133 126.802 5.6 126.653 5.6C126.503 5.6 126.401 5.6 126.345 5.6C126.289 5.6 126.158 5.572 125.953 5.516C125.747 5.46 125.607 5.42267 125.533 5.404C125.458 5.36667 125.271 5.30133 124.973 5.208C124.693 5.096 124.487 5.02133 124.357 4.984C123.517 4.72267 122.658 4.592 121.781 4.592C119.97 4.61067 118.495 5.18 117.357 6.3C116.218 7.42 115.649 8.876 115.649 10.668C115.667 12.5533 116.237 14.0653 117.357 15.204C118.477 16.3427 119.961 16.912 121.809 16.912C122.518 16.912 123.171 16.8373 123.769 16.688C124.403 16.52 124.805 16.2867 124.973 15.988C125.141 15.6707 125.225 15.12 125.225 14.336C125.225 13.608 125.141 13.1507 124.973 12.964C124.823 12.7587 124.45 12.656 123.853 12.656C123.255 12.656 122.873 12.5533 122.705 12.348C122.555 12.124 122.481 11.6107 122.481 10.808C122.481 10.0053 122.677 9.50133 123.069 9.296C123.479 9.072 124.422 8.96 125.897 8.96C127.371 8.96 128.305 9.23067 128.697 9.772C129.107 10.3133 129.313 11.592 129.313 13.608C129.313 14.5413 129.294 15.26 129.257 15.764C129.238 16.268 129.163 16.8 129.033 17.36C128.921 17.9013 128.734 18.3307 128.473 18.648C128.23 18.9467 127.894 19.236 127.465 19.516C127.054 19.796 126.522 20.0573 125.869 20.3C124.637 20.7667 123.274 21 121.781 21C119.933 21.0373 118.206 20.5987 116.601 19.684C115.014 18.7693 113.763 17.5093 112.849 15.904C111.934 14.2987 111.505 12.5627 111.561 10.696ZM150.032 4.06C148.781 4.06 147.988 4.20933 147.652 4.508C147.316 4.788 147.148 5.45067 147.148 6.496C147.148 7.56 147.316 8.24133 147.652 8.54C147.988 8.82 148.781 8.96 150.032 8.96H152.888C153.69 8.94133 154.306 8.708 154.736 8.26C155.165 7.812 155.389 7.20533 155.408 6.44C155.389 5.74933 155.165 5.18933 154.736 4.76C154.306 4.312 153.7 4.07867 152.916 4.06H150.032ZM158.208 10.024C158.077 10.2293 157.862 10.5373 157.564 10.948C157.265 11.3587 157.078 11.6293 157.004 11.76C156.948 11.872 156.845 12.0867 156.696 12.404C156.565 12.7213 156.518 12.9733 156.556 13.16C156.612 13.3467 156.677 13.6173 156.752 13.972C156.826 14.3267 156.966 14.7 157.172 15.092C157.377 15.484 157.638 15.96 157.956 16.52C158.534 17.5467 158.954 18.3307 159.216 18.872C159.477 19.4133 159.617 19.8613 159.636 20.216C159.654 20.552 159.542 20.7667 159.3 20.86C159.076 20.9533 158.693 21 158.152 21C157.125 21 156.332 20.7573 155.772 20.272C155.212 19.768 154.4 18.592 153.336 16.744C152.272 14.9147 151.488 13.7573 150.984 13.272C150.48 12.768 149.826 12.516 149.024 12.516C148.202 12.516 147.68 12.768 147.456 13.272C147.25 13.7573 147.148 14.9147 147.148 16.744C147.148 18.592 147.026 19.768 146.784 20.272C146.541 20.7573 145.981 21 145.104 21C144.637 21 144.273 20.8973 144.012 20.692C143.769 20.468 143.564 19.964 143.396 19.18C143.246 18.3773 143.144 17.36 143.088 16.128C143.05 14.896 143.032 13.104 143.032 10.752C143.032 8.86667 143.06 7.37333 143.116 6.272C143.19 5.152 143.312 4.172 143.48 3.332C143.648 2.492 143.909 1.89467 144.264 1.54C144.618 1.16667 145.038 0.905332 145.524 0.755999C146.028 0.587999 146.69 0.503999 147.512 0.503999H151.964C156.761 0.503999 159.16 2.47333 159.16 6.412C159.16 7.90533 158.842 9.10933 158.208 10.024ZM177.617 19.068C177.617 19.516 177.533 19.8613 177.365 20.104C177.216 20.328 176.852 20.5147 176.273 20.664C175.694 20.8133 174.948 20.9067 174.033 20.944C173.137 20.9813 171.83 21 170.113 21C168.956 21 168.004 20.9627 167.257 20.888C166.529 20.7947 165.866 20.5987 165.269 20.3C164.672 20.0013 164.214 19.6373 163.897 19.208C163.58 18.7787 163.309 18.1533 163.085 17.332C162.88 16.5107 162.74 15.6053 162.665 14.616C162.609 13.608 162.581 12.32 162.581 10.752C162.581 9.184 162.609 7.90533 162.665 6.916C162.74 5.908 162.88 4.99333 163.085 4.172C163.309 3.35067 163.58 2.72533 163.897 2.296C164.214 1.86667 164.672 1.50267 165.269 1.204C165.866 0.905332 166.529 0.718665 167.257 0.643998C168.004 0.550665 168.956 0.503999 170.113 0.503999C171.849 0.503999 173.165 0.522666 174.061 0.559999C174.976 0.597332 175.722 0.690666 176.301 0.839999C176.88 0.989333 177.244 1.18533 177.393 1.428C177.561 1.652 177.645 1.97867 177.645 2.408C177.645 2.98667 177.505 3.40667 177.225 3.668C176.964 3.91067 176.469 4.07867 175.741 4.172C175.032 4.26533 173.846 4.312 172.185 4.312C170.524 4.312 169.329 4.368 168.601 4.48C167.873 4.592 167.369 4.79733 167.089 5.096C166.828 5.376 166.697 5.84267 166.697 6.496C166.697 7.448 166.94 8.05467 167.425 8.316C167.91 8.57733 169.04 8.708 170.813 8.708C172.586 8.708 173.706 8.82 174.173 9.044C174.658 9.268 174.901 9.79067 174.901 10.612C174.901 11.4333 174.658 11.956 174.173 12.18C173.706 12.404 172.586 12.516 170.813 12.516C169.04 12.516 167.91 12.656 167.425 12.936C166.94 13.1973 166.697 13.832 166.697 14.84C166.697 15.848 167.014 16.492 167.649 16.772C168.284 17.0333 169.786 17.164 172.157 17.164C173.818 17.164 175.004 17.2107 175.713 17.304C176.441 17.3973 176.936 17.5747 177.197 17.836C177.477 18.0787 177.617 18.4893 177.617 19.068ZM181.834 10.752C181.834 8.4 181.852 6.608 181.89 5.376C181.946 4.144 182.048 3.136 182.198 2.352C182.366 1.54933 182.571 1.04533 182.814 0.839999C183.056 0.615999 183.411 0.503999 183.878 0.503999C184.344 0.503999 184.699 0.597332 184.942 0.783998C185.184 0.951998 185.38 1.35333 185.53 1.988C185.698 2.62267 185.8 3.444 185.838 4.452C185.894 5.46 185.922 6.916 185.922 8.82C185.922 10.0893 185.94 11.1347 185.978 11.956C186.034 12.7773 186.136 13.524 186.286 14.196C186.454 14.8493 186.65 15.3533 186.874 15.708C187.098 16.0627 187.424 16.3613 187.854 16.604C188.302 16.828 188.796 16.9773 189.338 17.052C189.879 17.1267 190.57 17.164 191.41 17.164C193.071 17.164 194.256 17.2107 194.966 17.304C195.694 17.3973 196.188 17.5747 196.45 17.836C196.73 18.0787 196.87 18.4893 196.87 19.068C196.87 19.516 196.786 19.8613 196.618 20.104C196.468 20.328 196.104 20.5147 195.526 20.664C194.947 20.8133 194.2 20.9067 193.286 20.944C192.39 20.9813 191.083 21 189.366 21C188.208 21 187.256 20.9627 186.51 20.888C185.782 20.7947 185.119 20.5987 184.522 20.3C183.924 20.0013 183.467 19.6373 183.15 19.208C182.832 18.7787 182.562 18.1533 182.338 17.332C182.132 16.5107 181.992 15.6053 181.918 14.616C181.862 13.608 181.834 12.32 181.834 10.752ZM215.215 19.068C215.215 19.516 215.131 19.8613 214.963 20.104C214.813 20.328 214.449 20.5147 213.871 20.664C213.292 20.8133 212.545 20.9067 211.631 20.944C210.735 20.9813 209.428 21 207.711 21C206.553 21 205.601 20.9627 204.855 20.888C204.127 20.7947 203.464 20.5987 202.867 20.3C202.269 20.0013 201.812 19.6373 201.495 19.208C201.177 18.7787 200.907 18.1533 200.683 17.332C200.477 16.5107 200.337 15.6053 200.263 14.616C200.207 13.608 200.179 12.32 200.179 10.752C200.179 9.184 200.207 7.90533 200.263 6.916C200.337 5.908 200.477 4.99333 200.683 4.172C200.907 3.35067 201.177 2.72533 201.495 2.296C201.812 1.86667 202.269 1.50267 202.867 1.204C203.464 0.905332 204.127 0.718665 204.855 0.643998C205.601 0.550665 206.553 0.503999 207.711 0.503999C209.447 0.503999 210.763 0.522666 211.659 0.559999C212.573 0.597332 213.32 0.690666 213.899 0.839999C214.477 0.989333 214.841 1.18533 214.991 1.428C215.159 1.652 215.243 1.97867 215.243 2.408C215.243 2.98667 215.103 3.40667 214.823 3.668C214.561 3.91067 214.067 4.07867 213.339 4.172C212.629 4.26533 211.444 4.312 209.783 4.312C208.121 4.312 206.927 4.368 206.199 4.48C205.471 4.592 204.967 4.79733 204.687 5.096C204.425 5.376 204.295 5.84267 204.295 6.496C204.295 7.448 204.537 8.05467 205.023 8.316C205.508 8.57733 206.637 8.708 208.411 8.708C210.184 8.708 211.304 8.82 211.771 9.044C212.256 9.268 212.499 9.79067 212.499 10.612C212.499 11.4333 212.256 11.956 211.771 12.18C211.304 12.404 210.184 12.516 208.411 12.516C206.637 12.516 205.508 12.656 205.023 12.936C204.537 13.1973 204.295 13.832 204.295 14.84C204.295 15.848 204.612 16.492 205.247 16.772C205.881 17.0333 207.384 17.164 209.755 17.164C211.416 17.164 212.601 17.2107 213.311 17.304C214.039 17.3973 214.533 17.5747 214.795 17.836C215.075 18.0787 215.215 18.4893 215.215 19.068ZM225.339 7.784C227.206 12.656 228.205 15.092 228.335 15.092C228.429 15.092 229.437 12.656 231.359 7.784C232.218 5.6 232.899 4.02267 233.403 3.052C233.907 2.08133 234.374 1.41867 234.803 1.064C235.233 0.690666 235.783 0.503999 236.455 0.503999C236.959 0.503999 237.295 0.615999 237.463 0.839999C237.65 1.04533 237.669 1.54933 237.519 2.352C237.37 3.136 237.071 4.144 236.623 5.376C236.175 6.608 235.485 8.4 234.551 10.752C233.319 13.832 232.377 16.0627 231.723 17.444C231.07 18.8067 230.501 19.74 230.015 20.244C229.549 20.748 229.007 21 228.391 21C227.775 21 227.225 20.748 226.739 20.244C226.273 19.74 225.713 18.8067 225.059 17.444C224.406 16.0627 223.463 13.832 222.231 10.752C221.279 8.38133 220.579 6.58933 220.131 5.376C219.683 4.144 219.385 3.136 219.235 2.352C219.086 1.54933 219.095 1.04533 219.263 0.839999C219.45 0.615999 219.795 0.503999 220.299 0.503999C221.251 0.503999 222.017 0.933332 222.595 1.792C223.193 2.632 224.107 4.62933 225.339 7.784ZM247.252 18.144C246.636 18.3307 246.197 18.76 245.936 19.432C245.675 20.104 245.376 20.5333 245.04 20.72C244.704 20.9067 244.069 21 243.136 21C242.632 21 242.287 20.8973 242.1 20.692C241.932 20.468 241.913 19.964 242.044 19.18C242.193 18.3773 242.492 17.36 242.94 16.128C243.407 14.896 244.107 13.104 245.04 10.752C246.272 7.672 247.205 5.45067 247.84 4.088C248.493 2.70667 249.053 1.764 249.52 1.26C250.005 0.755999 250.565 0.503999 251.2 0.503999C251.816 0.503999 252.357 0.755999 252.824 1.26C253.309 1.764 253.869 2.70667 254.504 4.088C255.157 5.45067 256.1 7.672 257.332 10.752C258.265 13.1227 258.956 14.924 259.404 16.156C259.852 17.3693 260.151 18.3773 260.3 19.18C260.449 19.964 260.44 20.468 260.272 20.692C260.104 20.8973 259.768 21 259.264 21C258.312 21 257.668 20.9067 257.332 20.72C257.015 20.5333 256.725 20.104 256.464 19.432C256.203 18.76 255.764 18.3307 255.148 18.144C254.532 17.9573 253.216 17.864 251.2 17.864C249.184 17.864 247.868 17.9573 247.252 18.144ZM248.988 13.076C249.175 13.524 249.931 13.748 251.256 13.748C252.581 13.748 253.337 13.524 253.524 13.076C253.711 12.6093 253.477 11.536 252.824 9.856C252.171 8.176 251.657 7.336 251.284 7.336C250.929 7.336 250.416 8.176 249.744 9.856C249.072 11.536 248.82 12.6093 248.988 13.076ZM268.609 13.776C268.609 15.96 268.553 17.528 268.441 18.48C268.347 19.432 268.161 20.0947 267.881 20.468C267.619 20.8227 267.181 21 266.565 21C266.098 21 265.734 20.8973 265.473 20.692C265.23 20.468 265.025 19.964 264.857 19.18C264.707 18.3773 264.605 17.36 264.549 16.128C264.511 14.896 264.493 13.104 264.493 10.752C264.493 8.4 264.511 6.608 264.549 5.376C264.605 4.144 264.707 3.136 264.857 2.352C265.025 1.54933 265.23 1.04533 265.473 0.839999C265.734 0.615999 266.098 0.503999 266.565 0.503999C267.442 0.503999 268.291 0.811998 269.113 1.428C269.953 2.044 271.474 3.5 273.677 5.796C274.442 6.61733 275.067 7.27067 275.553 7.756C276.057 8.22267 276.505 8.596 276.897 8.876C277.307 9.13733 277.615 9.268 277.821 9.268C278.045 9.268 278.222 9.13733 278.353 8.876C278.502 8.596 278.595 8.22267 278.632 7.756C278.689 7.27067 278.717 6.61733 278.717 5.796C278.717 4.19067 278.763 3.04267 278.857 2.352C278.969 1.64267 279.155 1.15733 279.417 0.895998C279.697 0.634665 280.145 0.503999 280.761 0.503999C281.227 0.503999 281.582 0.615999 281.825 0.839999C282.067 1.04533 282.263 1.54933 282.413 2.352C282.581 3.136 282.683 4.144 282.721 5.376C282.777 6.608 282.805 8.4 282.805 10.752C282.805 13.104 282.777 14.896 282.721 16.128C282.683 17.36 282.581 18.3773 282.413 19.18C282.263 19.964 282.058 20.468 281.797 20.692C281.554 20.8973 281.199 21 280.733 21C279.837 21 279.267 20.888 279.025 20.664C278.782 20.44 278.661 19.9267 278.661 19.124C278.661 18.3213 278.362 17.5 277.765 16.66C277.186 15.8013 275.814 14.224 273.649 11.928C272.995 11.2373 272.445 10.6867 271.997 10.276C271.549 9.84667 271.129 9.48267 270.737 9.184C270.363 8.88533 270.055 8.74533 269.812 8.764C269.589 8.764 269.393 8.83867 269.225 8.988C269.057 9.11867 268.926 9.41733 268.833 9.884C268.758 10.3507 268.702 10.8827 268.665 11.48C268.627 12.0773 268.609 12.8427 268.609 13.776ZM286.015 2.408C286.015 1.97867 286.108 1.652 286.295 1.428C286.482 1.18533 286.92 0.989333 287.611 0.839999C288.302 0.690666 289.179 0.597332 290.243 0.559999C291.326 0.522666 292.884 0.503999 294.919 0.503999C296.954 0.503999 298.503 0.522666 299.567 0.559999C300.631 0.597332 301.508 0.690666 302.199 0.839999C302.89 0.989333 303.328 1.18533 303.515 1.428C303.702 1.652 303.795 1.97867 303.795 2.408C303.795 3.22933 303.59 3.752 303.179 3.976C302.787 4.2 301.854 4.312 300.379 4.312C299.744 4.312 299.24 4.37733 298.867 4.508C298.494 4.63867 298.167 4.85333 297.887 5.152C297.626 5.45067 297.43 5.94533 297.299 6.636C297.187 7.308 297.103 8.10133 297.047 9.016C296.991 9.912 296.963 11.1253 296.963 12.656C296.963 14.56 296.935 16.016 296.879 17.024C296.842 18.032 296.739 18.8627 296.571 19.516C296.422 20.1507 296.226 20.5613 295.983 20.748C295.74 20.916 295.386 21 294.919 21C294.452 21 294.088 20.916 293.827 20.748C293.584 20.5613 293.379 20.1507 293.211 19.516C293.062 18.8627 292.959 18.032 292.903 17.024C292.866 16.016 292.847 14.56 292.847 12.656C292.847 11.1253 292.819 9.912 292.763 9.016C292.707 8.10133 292.614 7.308 292.483 6.636C292.371 5.94533 292.175 5.45067 291.895 5.152C291.634 4.85333 291.316 4.63867 290.943 4.508C290.57 4.37733 290.066 4.312 289.431 4.312C287.956 4.312 287.014 4.2 286.603 3.976C286.211 3.752 286.015 3.22933 286.015 2.408ZM319.526 20.692C319.284 20.8973 318.929 21 318.462 21C317.996 21 317.641 20.8973 317.398 20.692C317.156 20.468 316.95 19.964 316.782 19.18C316.633 18.3773 316.53 17.36 316.474 16.128C316.437 14.8773 316.418 13.076 316.418 10.724C316.418 8.372 316.437 6.58 316.474 5.348C316.53 4.116 316.633 3.108 316.782 2.324C316.95 1.52133 317.156 1.01733 317.398 0.812C317.641 0.587999 317.996 0.475999 318.462 0.475999C318.929 0.475999 319.284 0.587999 319.526 0.812C319.769 1.01733 319.965 1.52133 320.114 2.324C320.282 3.108 320.385 4.116 320.422 5.348C320.478 6.58 320.506 8.372 320.506 10.724C320.506 13.076 320.478 14.8773 320.422 16.128C320.385 17.36 320.282 18.3773 320.114 19.18C319.965 19.964 319.769 20.468 319.526 20.692ZM328.737 13.776C328.737 15.96 328.681 17.528 328.569 18.48C328.476 19.432 328.289 20.0947 328.009 20.468C327.748 20.8227 327.309 21 326.693 21C326.227 21 325.863 20.8973 325.601 20.692C325.359 20.468 325.153 19.964 324.985 19.18C324.836 18.3773 324.733 17.36 324.677 16.128C324.64 14.896 324.621 13.104 324.621 10.752C324.621 8.4 324.64 6.608 324.677 5.376C324.733 4.144 324.836 3.136 324.985 2.352C325.153 1.54933 325.359 1.04533 325.601 0.839999C325.863 0.615999 326.227 0.503999 326.693 0.503999C327.571 0.503999 328.42 0.811998 329.241 1.428C330.081 2.044 331.603 3.5 333.805 5.796C334.571 6.61733 335.196 7.27067 335.681 7.756C336.185 8.22267 336.633 8.596 337.025 8.876C337.436 9.13733 337.744 9.268 337.949 9.268C338.173 9.268 338.351 9.13733 338.481 8.876C338.631 8.596 338.724 8.22267 338.761 7.756C338.817 7.27067 338.845 6.61733 338.845 5.796C338.845 4.19067 338.892 3.04267 338.985 2.352C339.097 1.64267 339.284 1.15733 339.545 0.895998C339.825 0.634665 340.273 0.503999 340.889 0.503999C341.356 0.503999 341.711 0.615999 341.953 0.839999C342.196 1.04533 342.392 1.54933 342.541 2.352C342.709 3.136 342.812 4.144 342.849 5.376C342.905 6.608 342.933 8.4 342.933 10.752C342.933 13.104 342.905 14.896 342.849 16.128C342.812 17.36 342.709 18.3773 342.541 19.18C342.392 19.964 342.187 20.468 341.925 20.692C341.683 20.8973 341.328 21 340.861 21C339.965 21 339.396 20.888 339.153 20.664C338.911 20.44 338.789 19.9267 338.789 19.124C338.789 18.3213 338.491 17.5 337.893 16.66C337.315 15.8013 335.943 14.224 333.777 11.928C333.124 11.2373 332.573 10.6867 332.125 10.276C331.677 9.84667 331.257 9.48267 330.865 9.184C330.492 8.88533 330.184 8.74533 329.941 8.764C329.717 8.764 329.521 8.83867 329.353 8.988C329.185 9.11867 329.055 9.41733 328.961 9.884C328.887 10.3507 328.831 10.8827 328.793 11.48C328.756 12.0773 328.737 12.8427 328.737 13.776ZM5.916 54.144C5.3 54.3307 4.86133 54.76 4.6 55.432C4.33867 56.104 4.04 56.5333 3.704 56.72C3.368 56.9067 2.73333 57 1.8 57C1.296 57 0.950667 56.8973 0.764 56.692C0.596 56.468 0.577333 55.964 0.708 55.18C0.857333 54.3773 1.156 53.36 1.604 52.128C2.07067 50.896 2.77067 49.104 3.704 46.752C4.936 43.672 5.86933 41.4507 6.504 40.088C7.15733 38.7067 7.71733 37.764 8.184 37.26C8.66933 36.756 9.22933 36.504 9.864 36.504C10.48 36.504 11.0213 36.756 11.488 37.26C11.9733 37.764 12.5333 38.7067 13.168 40.088C13.8213 41.4507 14.764 43.672 15.996 46.752C16.9293 49.1227 17.62 50.924 18.068 52.156C18.516 53.3693 18.8147 54.3773 18.964 55.18C19.1133 55.964 19.104 56.468 18.936 56.692C18.768 56.8973 18.432 57 17.928 57C16.976 57 16.332 56.9067 15.996 56.72C15.6787 56.5333 15.3893 56.104 15.128 55.432C14.8667 54.76 14.428 54.3307 13.812 54.144C13.196 53.9573 11.88 53.864 9.864 53.864C7.848 53.864 6.532 53.9573 5.916 54.144ZM7.652 49.076C7.83867 49.524 8.59467 49.748 9.92 49.748C11.2453 49.748 12.0013 49.524 12.188 49.076C12.3747 48.6093 12.1413 47.536 11.488 45.856C10.8347 44.176 10.3213 43.336 9.948 43.336C9.59333 43.336 9.08 44.176 8.408 45.856C7.736 47.536 7.484 48.6093 7.652 49.076ZM47.3709 50.14C46.4935 47.116 45.9335 45.2213 45.6909 44.456C45.4482 43.6907 45.2895 43.308 45.2149 43.308C45.1215 43.308 44.9535 43.7 44.7109 44.484C44.4682 45.2493 43.9175 47.1347 43.0589 50.14C42.4615 52.212 41.9762 53.7053 41.6029 54.62C41.2482 55.516 40.8842 56.1413 40.5109 56.496C40.1562 56.832 39.6709 57 39.0549 57C38.4202 57 37.8975 56.748 37.4869 56.244C37.0949 55.7213 36.6655 54.788 36.1989 53.444C35.7322 52.0813 35.0882 49.8507 34.2669 46.752C33.6322 44.4 33.1749 42.608 32.8949 41.376C32.6149 40.144 32.4469 39.136 32.3909 38.352C32.3535 37.5493 32.4375 37.0453 32.6429 36.84C32.8482 36.616 33.2029 36.504 33.7069 36.504C34.6589 36.504 35.3589 36.868 35.8069 37.596C36.2549 38.324 36.8429 40.0507 37.5709 42.776C38.2802 45.5013 38.7469 47.228 38.9709 47.956C39.1949 48.684 39.3629 49.048 39.4749 49.048C39.5682 49.048 39.7269 48.6933 39.9509 47.984C40.1749 47.2747 40.6695 45.5387 41.4349 42.776C41.9575 40.872 42.3775 39.5093 42.6949 38.688C43.0309 37.8667 43.3762 37.2973 43.7309 36.98C44.1042 36.6627 44.6175 36.504 45.2709 36.504C46.1855 36.504 46.8575 36.868 47.2869 37.596C47.7349 38.324 48.3229 40.0507 49.0509 42.776C49.7789 45.5013 50.2549 47.228 50.4789 47.956C50.7029 48.684 50.8615 49.048 50.9549 49.048C51.0855 49.048 51.7109 46.9573 52.8309 42.776C53.3349 40.8907 53.7455 39.528 54.0629 38.688C54.3989 37.848 54.7535 37.2787 55.1269 36.98C55.5002 36.6627 56.0229 36.504 56.6949 36.504C57.1989 36.504 57.5535 36.616 57.7589 36.84C57.9642 37.0453 58.0389 37.54 57.9829 38.324C57.9455 39.108 57.7869 40.1253 57.5069 41.376C57.2269 42.6267 56.7695 44.4187 56.1349 46.752C55.3135 49.8507 54.6695 52.0813 54.2029 53.444C53.7362 54.788 53.2975 55.7213 52.8869 56.244C52.4762 56.748 51.9629 57 51.3469 57C50.7309 57 50.2362 56.832 49.8629 56.496C49.5082 56.1413 49.1442 55.516 48.7709 54.62C48.4162 53.7053 47.9495 52.212 47.3709 50.14ZM63.8067 54.06C61.8467 52.0813 60.8667 49.6453 60.8667 46.752C60.8667 43.8587 61.8467 41.432 63.8067 39.472C65.7853 37.4933 68.2213 36.504 71.1147 36.504C74.008 36.504 76.4347 37.4933 78.3947 39.472C80.3733 41.432 81.3627 43.8587 81.3627 46.752C81.3627 49.6453 80.3733 52.0813 78.3947 54.06C76.4347 56.02 74.008 57 71.1147 57C68.2213 57 65.7853 56.02 63.8067 54.06ZM71.1427 53.164C72.9347 53.164 74.4 52.548 75.5387 51.316C76.696 50.084 77.2747 48.5627 77.2747 46.752C77.2747 44.9227 76.696 43.392 75.5387 42.16C74.4 40.928 72.9253 40.312 71.1147 40.312C69.304 40.312 67.82 40.928 66.6627 42.16C65.524 43.392 64.9547 44.9227 64.9547 46.752C64.9547 48.5813 65.524 50.112 66.6627 51.344C67.82 52.5573 69.3133 53.164 71.1427 53.164ZM91.4066 40.06C90.1559 40.06 89.3626 40.2093 89.0266 40.508C88.6906 40.788 88.5226 41.4507 88.5226 42.496C88.5226 43.56 88.6906 44.2413 89.0266 44.54C89.3626 44.82 90.1559 44.96 91.4066 44.96H94.2626C95.0652 44.9413 95.6812 44.708 96.1106 44.26C96.5399 43.812 96.7639 43.2053 96.7826 42.44C96.7639 41.7493 96.5399 41.1893 96.1106 40.76C95.6812 40.312 95.0746 40.0787 94.2906 40.06H91.4066ZM99.5826 46.024C99.4519 46.2293 99.2372 46.5373 98.9386 46.948C98.6399 47.3587 98.4532 47.6293 98.3786 47.76C98.3226 47.872 98.2199 48.0867 98.0706 48.404C97.9399 48.7213 97.8932 48.9733 97.9306 49.16C97.9866 49.3467 98.0519 49.6173 98.1266 49.972C98.2012 50.3267 98.3412 50.7 98.5466 51.092C98.7519 51.484 99.0132 51.96 99.3306 52.52C99.9092 53.5467 100.329 54.3307 100.591 54.872C100.852 55.4133 100.992 55.8613 101.011 56.216C101.029 56.552 100.917 56.7667 100.675 56.86C100.451 56.9533 100.068 57 99.5266 57C98.4999 57 97.7066 56.7573 97.1466 56.272C96.5866 55.768 95.7746 54.592 94.7106 52.744C93.6466 50.9147 92.8626 49.7573 92.3586 49.272C91.8546 48.768 91.2012 48.516 90.3986 48.516C89.5772 48.516 89.0546 48.768 88.8306 49.272C88.6252 49.7573 88.5226 50.9147 88.5226 52.744C88.5226 54.592 88.4012 55.768 88.1586 56.272C87.9159 56.7573 87.3559 57 86.4786 57C86.0119 57 85.6479 56.8973 85.3866 56.692C85.1439 56.468 84.9386 55.964 84.7706 55.18C84.6212 54.3773 84.5186 53.36 84.4626 52.128C84.4252 50.896 84.4066 49.104 84.4066 46.752C84.4066 44.8667 84.4346 43.3733 84.4906 42.272C84.5652 41.152 84.6866 40.172 84.8546 39.332C85.0226 38.492 85.2839 37.8947 85.6386 37.54C85.9932 37.1667 86.4132 36.9053 86.8986 36.756C87.4026 36.588 88.0652 36.504 88.8866 36.504H93.3386C98.1359 36.504 100.535 38.4733 100.535 42.412C100.535 43.9053 100.217 45.1093 99.5826 46.024ZM104.068 46.752C104.068 44.4 104.087 42.608 104.124 41.376C104.18 40.144 104.283 39.136 104.432 38.352C104.6 37.5493 104.805 37.0453 105.048 36.84C105.291 36.616 105.645 36.504 106.112 36.504C106.579 36.504 106.933 36.5973 107.176 36.784C107.419 36.952 107.615 37.3533 107.764 37.988C107.932 38.6227 108.035 39.444 108.072 40.452C108.128 41.46 108.156 42.916 108.156 44.82C108.156 46.0893 108.175 47.1347 108.212 47.956C108.268 48.7773 108.371 49.524 108.52 50.196C108.688 50.8493 108.884 51.3533 109.108 51.708C109.332 52.0627 109.659 52.3613 110.088 52.604C110.536 52.828 111.031 52.9773 111.572 53.052C112.113 53.1267 112.804 53.164 113.644 53.164C115.305 53.164 116.491 53.2107 117.2 53.304C117.928 53.3973 118.423 53.5747 118.684 53.836C118.964 54.0787 119.104 54.4893 119.104 55.068C119.104 55.516 119.02 55.8613 118.852 56.104C118.703 56.328 118.339 56.5147 117.76 56.664C117.181 56.8133 116.435 56.9067 115.52 56.944C114.624 56.9813 113.317 57 111.6 57C110.443 57 109.491 56.9627 108.744 56.888C108.016 56.7947 107.353 56.5987 106.756 56.3C106.159 56.0013 105.701 55.6373 105.384 55.208C105.067 54.7787 104.796 54.1533 104.572 53.332C104.367 52.5107 104.227 51.6053 104.152 50.616C104.096 49.608 104.068 48.32 104.068 46.752ZM126.725 42.552C126.632 43.4107 126.585 44.8107 126.585 46.752C126.585 48.6933 126.632 50.0933 126.725 50.952C126.818 51.8107 126.986 52.3987 127.229 52.716C127.49 53.0333 127.91 53.192 128.489 53.192H130.365C132.157 53.1733 133.51 52.6133 134.425 51.512C135.358 50.4107 135.834 48.824 135.853 46.752C135.834 44.6613 135.358 43.0653 134.425 41.964C133.51 40.8627 132.157 40.312 130.365 40.312H128.489C127.91 40.312 127.49 40.4707 127.229 40.788C126.986 41.1053 126.818 41.6933 126.725 42.552ZM130.365 57H126.417C125.689 57 125.11 56.9253 124.681 56.776C124.252 56.608 123.878 56.3373 123.561 55.964C123.244 55.5907 123.01 54.9933 122.861 54.172C122.73 53.332 122.628 52.352 122.553 51.232C122.497 50.112 122.469 48.6093 122.469 46.724C122.469 44.8387 122.497 43.3453 122.553 42.244C122.628 41.124 122.73 40.144 122.861 39.304C123.01 38.464 123.244 37.8667 123.561 37.512C123.878 37.1387 124.252 36.8773 124.681 36.728C125.11 36.56 125.689 36.476 126.417 36.476H130.365C136.749 36.476 139.941 39.9013 139.941 46.752C139.941 53.584 136.749 57 130.365 57ZM155.818 54.06C153.858 52.0813 152.878 49.6453 152.878 46.752C152.878 43.8587 153.858 41.432 155.818 39.472C157.797 37.4933 160.233 36.504 163.126 36.504C166.02 36.504 168.446 37.4933 170.406 39.472C172.385 41.432 173.374 43.8587 173.374 46.752C173.374 49.6453 172.385 52.0813 170.406 54.06C168.446 56.02 166.02 57 163.126 57C160.233 57 157.797 56.02 155.818 54.06ZM163.154 53.164C164.946 53.164 166.412 52.548 167.55 51.316C168.708 50.084 169.286 48.5627 169.286 46.752C169.286 44.9227 168.708 43.392 167.55 42.16C166.412 40.928 164.937 40.312 163.126 40.312C161.316 40.312 159.832 40.928 158.674 42.16C157.536 43.392 156.966 44.9227 156.966 46.752C156.966 48.5813 157.536 50.112 158.674 51.344C159.832 52.5573 161.325 53.164 163.154 53.164ZM180.506 52.744C180.506 54.592 180.385 55.768 180.142 56.272C179.9 56.7573 179.34 57 178.462 57C177.996 57 177.641 56.8973 177.398 56.692C177.156 56.468 176.95 55.964 176.782 55.18C176.633 54.3773 176.53 53.36 176.474 52.128C176.437 50.896 176.418 49.104 176.418 46.752C176.418 45.184 176.446 43.9053 176.502 42.916C176.577 41.908 176.717 40.9933 176.922 40.172C177.128 39.3507 177.38 38.7253 177.678 38.296C177.977 37.8667 178.416 37.5027 178.994 37.204C179.573 36.9053 180.217 36.7187 180.926 36.644C181.636 36.5507 182.541 36.504 183.642 36.504C185.285 36.504 186.536 36.5227 187.394 36.56C188.272 36.5973 188.99 36.6907 189.55 36.84C190.11 36.9893 190.465 37.1853 190.614 37.428C190.764 37.652 190.838 37.9787 190.838 38.408C190.838 38.9867 190.708 39.4067 190.446 39.668C190.185 39.9107 189.709 40.0787 189.018 40.172C188.346 40.2653 187.236 40.312 185.686 40.312C184.118 40.312 182.989 40.368 182.298 40.48C181.626 40.592 181.16 40.7973 180.898 41.096C180.637 41.376 180.506 41.8427 180.506 42.496C180.506 43.448 180.73 44.0547 181.178 44.316C181.626 44.5773 182.672 44.708 184.314 44.708C185.957 44.708 187.002 44.82 187.45 45.044C187.898 45.268 188.122 45.7907 188.122 46.612C188.122 47.4333 187.898 47.956 187.45 48.18C187.002 48.404 185.957 48.516 184.314 48.516C182.672 48.516 181.626 48.768 181.178 49.272C180.73 49.7573 180.506 50.9147 180.506 52.744ZM202.371 46.696C202.334 44.8293 202.773 43.112 203.687 41.544C204.621 39.9573 205.881 38.7253 207.467 37.848C209.054 36.952 210.771 36.504 212.619 36.504C214.094 36.504 215.447 36.728 216.679 37.176C217.743 37.5493 218.49 37.9413 218.919 38.352C219.367 38.744 219.563 39.1173 219.507 39.472C219.451 39.8267 219.209 40.2373 218.779 40.704C218.649 40.8533 218.527 40.984 218.415 41.096C218.322 41.1893 218.21 41.2733 218.079 41.348C217.949 41.4227 217.846 41.488 217.771 41.544C217.715 41.5813 217.613 41.6 217.463 41.6C217.314 41.6 217.211 41.6 217.155 41.6C217.099 41.6 216.969 41.572 216.763 41.516C216.558 41.46 216.418 41.4227 216.343 41.404C216.269 41.3667 216.082 41.3013 215.783 41.208C215.503 41.096 215.298 41.0213 215.167 40.984C214.327 40.7227 213.478 40.592 212.619 40.592C210.809 40.6107 209.325 41.18 208.167 42.3C207.029 43.42 206.459 44.876 206.459 46.668C206.478 48.5533 207.047 50.0653 208.167 51.204C209.287 52.3427 210.781 52.912 212.647 52.912C213.562 52.912 214.411 52.772 215.195 52.492C215.326 52.4547 215.531 52.3893 215.811 52.296C216.091 52.184 216.269 52.1187 216.343 52.1C216.437 52.0627 216.577 52.016 216.763 51.96C216.969 51.904 217.099 51.876 217.155 51.876C217.211 51.876 217.314 51.876 217.463 51.876C217.613 51.876 217.715 51.904 217.771 51.96C217.846 51.9973 217.949 52.0533 218.079 52.128C218.21 52.184 218.322 52.268 218.415 52.38C218.527 52.4733 218.649 52.5947 218.779 52.744C219.209 53.2107 219.451 53.6307 219.507 54.004C219.563 54.3587 219.367 54.7413 218.919 55.152C218.49 55.544 217.743 55.9267 216.679 56.3C215.466 56.7667 214.113 57 212.619 57C209.782 57.0747 207.346 56.0947 205.311 54.06C203.277 52.0067 202.297 49.552 202.371 46.696ZM228.659 52.744C228.659 54.592 228.538 55.768 228.295 56.272C228.053 56.7573 227.493 57 226.615 57C226.149 57 225.785 56.8973 225.523 56.692C225.281 56.468 225.075 55.964 224.907 55.18C224.758 54.3773 224.655 53.36 224.599 52.128C224.562 50.896 224.543 49.104 224.543 46.752C224.543 44.4 224.562 42.608 224.599 41.376C224.655 40.144 224.758 39.136 224.907 38.352C225.075 37.5493 225.281 37.0453 225.523 36.84C225.785 36.616 226.149 36.504 226.615 36.504C227.493 36.504 228.053 36.7467 228.295 37.232C228.538 37.7173 228.659 38.8373 228.659 40.592C228.659 42.3653 228.939 43.4947 229.499 43.98C230.059 44.4653 231.375 44.708 233.447 44.708C235.501 44.708 236.807 44.4653 237.367 43.98C237.927 43.4947 238.207 42.3653 238.207 40.592C238.207 38.8187 238.329 37.6893 238.571 37.204C238.814 36.7187 239.374 36.476 240.251 36.476C240.718 36.476 241.073 36.588 241.315 36.812C241.558 37.0173 241.754 37.5213 241.903 38.324C242.071 39.108 242.174 40.116 242.211 41.348C242.267 42.58 242.295 44.372 242.295 46.724C242.295 49.076 242.267 50.8773 242.211 52.128C242.174 53.36 242.071 54.3773 241.903 55.18C241.754 55.964 241.558 56.468 241.315 56.692C241.073 56.8973 240.718 57 240.251 57C239.374 57 238.814 56.7573 238.571 56.272C238.329 55.768 238.207 54.592 238.207 52.744C238.207 50.9147 237.927 49.7573 237.367 49.272C236.807 48.768 235.501 48.516 233.447 48.516C231.375 48.516 230.059 48.768 229.499 49.272C228.939 49.7573 228.659 50.9147 228.659 52.744ZM251.955 54.144C251.339 54.3307 250.9 54.76 250.639 55.432C250.378 56.104 250.079 56.5333 249.743 56.72C249.407 56.9067 248.772 57 247.839 57C247.335 57 246.99 56.8973 246.803 56.692C246.635 56.468 246.616 55.964 246.747 55.18C246.896 54.3773 247.195 53.36 247.643 52.128C248.11 50.896 248.81 49.104 249.743 46.752C250.975 43.672 251.908 41.4507 252.543 40.088C253.196 38.7067 253.756 37.764 254.223 37.26C254.708 36.756 255.268 36.504 255.903 36.504C256.519 36.504 257.06 36.756 257.527 37.26C258.012 37.764 258.572 38.7067 259.207 40.088C259.86 41.4507 260.803 43.672 262.035 46.752C262.968 49.1227 263.659 50.924 264.107 52.156C264.555 53.3693 264.854 54.3773 265.003 55.18C265.152 55.964 265.143 56.468 264.975 56.692C264.807 56.8973 264.471 57 263.967 57C263.015 57 262.371 56.9067 262.035 56.72C261.718 56.5333 261.428 56.104 261.167 55.432C260.906 54.76 260.467 54.3307 259.851 54.144C259.235 53.9573 257.919 53.864 255.903 53.864C253.887 53.864 252.571 53.9573 251.955 54.144ZM253.691 49.076C253.878 49.524 254.634 49.748 255.959 49.748C257.284 49.748 258.04 49.524 258.227 49.076C258.414 48.6093 258.18 47.536 257.527 45.856C256.874 44.176 256.36 43.336 255.987 43.336C255.632 43.336 255.119 44.176 254.447 45.856C253.775 47.536 253.523 48.6093 253.691 49.076ZM273.312 49.776C273.312 51.96 273.256 53.528 273.144 54.48C273.05 55.432 272.864 56.0947 272.584 56.468C272.322 56.8227 271.884 57 271.268 57C270.801 57 270.437 56.8973 270.176 56.692C269.933 56.468 269.728 55.964 269.56 55.18C269.41 54.3773 269.308 53.36 269.252 52.128C269.214 50.896 269.196 49.104 269.196 46.752C269.196 44.4 269.214 42.608 269.252 41.376C269.308 40.144 269.41 39.136 269.56 38.352C269.728 37.5493 269.933 37.0453 270.176 36.84C270.437 36.616 270.801 36.504 271.268 36.504C272.145 36.504 272.994 36.812 273.816 37.428C274.656 38.044 276.177 39.5 278.38 41.796C279.145 42.6173 279.77 43.2707 280.256 43.756C280.76 44.2227 281.208 44.596 281.6 44.876C282.01 45.1373 282.318 45.268 282.524 45.268C282.748 45.268 282.925 45.1373 283.056 44.876C283.205 44.596 283.298 44.2227 283.336 43.756C283.392 43.2707 283.42 42.6173 283.42 41.796C283.42 40.1907 283.466 39.0427 283.56 38.352C283.672 37.6427 283.858 37.1573 284.12 36.896C284.4 36.6347 284.848 36.504 285.464 36.504C285.93 36.504 286.285 36.616 286.528 36.84C286.77 37.0453 286.966 37.5493 287.116 38.352C287.284 39.136 287.386 40.144 287.424 41.376C287.48 42.608 287.508 44.4 287.508 46.752C287.508 49.104 287.48 50.896 287.424 52.128C287.386 53.36 287.284 54.3773 287.116 55.18C286.966 55.964 286.761 56.468 286.5 56.692C286.257 56.8973 285.902 57 285.436 57C284.54 57 283.97 56.888 283.728 56.664C283.485 56.44 283.364 55.9267 283.364 55.124C283.364 54.3213 283.065 53.5 282.468 52.66C281.889 51.8013 280.517 50.224 278.352 47.928C277.698 47.2373 277.148 46.6867 276.7 46.276C276.252 45.8467 275.832 45.4827 275.44 45.184C275.066 44.8853 274.758 44.7453 274.516 44.764C274.292 44.764 274.096 44.8387 273.928 44.988C273.76 45.1187 273.629 45.4173 273.536 45.884C273.461 46.3507 273.405 46.8827 273.368 47.48C273.33 48.0773 273.312 48.8427 273.312 49.776ZM290.662 46.696C290.625 44.8293 291.064 43.112 291.978 41.544C292.912 39.9573 294.162 38.7253 295.73 37.848C297.317 36.952 299.034 36.504 300.882 36.504C302.338 36.504 303.701 36.728 304.97 37.176C305.773 37.456 306.398 37.7453 306.846 38.044C307.294 38.324 307.574 38.6133 307.686 38.912C307.798 39.2107 307.798 39.5 307.686 39.78C307.574 40.0413 307.369 40.3493 307.07 40.704C306.94 40.8533 306.818 40.984 306.706 41.096C306.613 41.1893 306.501 41.2733 306.37 41.348C306.24 41.4227 306.137 41.488 306.062 41.544C306.006 41.5813 305.904 41.6 305.754 41.6C305.605 41.6 305.502 41.6 305.446 41.6C305.39 41.6 305.26 41.572 305.054 41.516C304.849 41.46 304.709 41.4227 304.634 41.404C304.56 41.3667 304.373 41.3013 304.074 41.208C303.794 41.096 303.589 41.0213 303.458 40.984C302.618 40.7227 301.76 40.592 300.882 40.592C299.072 40.6107 297.597 41.18 296.458 42.3C295.32 43.42 294.75 44.876 294.75 46.668C294.769 48.5533 295.338 50.0653 296.458 51.204C297.578 52.3427 299.062 52.912 300.91 52.912C301.62 52.912 302.273 52.8373 302.87 52.688C303.505 52.52 303.906 52.2867 304.074 51.988C304.242 51.6707 304.326 51.12 304.326 50.336C304.326 49.608 304.242 49.1507 304.074 48.964C303.925 48.7587 303.552 48.656 302.954 48.656C302.357 48.656 301.974 48.5533 301.806 48.348C301.657 48.124 301.582 47.6107 301.582 46.808C301.582 46.0053 301.778 45.5013 302.17 45.296C302.581 45.072 303.524 44.96 304.998 44.96C306.473 44.96 307.406 45.2307 307.798 45.772C308.209 46.3133 308.414 47.592 308.414 49.608C308.414 50.5413 308.396 51.26 308.358 51.764C308.34 52.268 308.265 52.8 308.134 53.36C308.022 53.9013 307.836 54.3307 307.574 54.648C307.332 54.9467 306.996 55.236 306.566 55.516C306.156 55.796 305.624 56.0573 304.97 56.3C303.738 56.7667 302.376 57 300.882 57C299.034 57.0373 297.308 56.5987 295.702 55.684C294.116 54.7693 292.865 53.5093 291.95 51.904C291.036 50.2987 290.606 48.5627 290.662 46.696ZM327.543 55.068C327.543 55.516 327.459 55.8613 327.291 56.104C327.141 56.328 326.777 56.5147 326.199 56.664C325.62 56.8133 324.873 56.9067 323.959 56.944C323.063 56.9813 321.756 57 320.039 57C318.881 57 317.929 56.9627 317.183 56.888C316.455 56.7947 315.792 56.5987 315.195 56.3C314.597 56.0013 314.14 55.6373 313.823 55.208C313.505 54.7787 313.235 54.1533 313.011 53.332C312.805 52.5107 312.665 51.6053 312.591 50.616C312.535 49.608 312.507 48.32 312.507 46.752C312.507 45.184 312.535 43.9053 312.591 42.916C312.665 41.908 312.805 40.9933 313.011 40.172C313.235 39.3507 313.505 38.7253 313.823 38.296C314.14 37.8667 314.597 37.5027 315.195 37.204C315.792 36.9053 316.455 36.7187 317.183 36.644C317.929 36.5507 318.881 36.504 320.039 36.504C321.775 36.504 323.091 36.5227 323.987 36.56C324.901 36.5973 325.648 36.6907 326.227 36.84C326.805 36.9893 327.169 37.1853 327.319 37.428C327.487 37.652 327.571 37.9787 327.571 38.408C327.571 38.9867 327.431 39.4067 327.151 39.668C326.889 39.9107 326.395 40.0787 325.667 40.172C324.957 40.2653 323.772 40.312 322.111 40.312C320.449 40.312 319.255 40.368 318.527 40.48C317.799 40.592 317.295 40.7973 317.015 41.096C316.753 41.376 316.623 41.8427 316.623 42.496C316.623 43.448 316.865 44.0547 317.351 44.316C317.836 44.5773 318.965 44.708 320.739 44.708C322.512 44.708 323.632 44.82 324.099 45.044C324.584 45.268 324.827 45.7907 324.827 46.612C324.827 47.4333 324.584 47.956 324.099 48.18C323.632 48.404 322.512 48.516 320.739 48.516C318.965 48.516 317.836 48.656 317.351 48.936C316.865 49.1973 316.623 49.832 316.623 50.84C316.623 51.848 316.94 52.492 317.575 52.772C318.209 53.0333 319.712 53.164 322.083 53.164C323.744 53.164 324.929 53.2107 325.639 53.304C326.367 53.3973 326.861 53.5747 327.123 53.836C327.403 54.0787 327.543 54.4893 327.543 55.068Z" fill="white"/>
</svg>
