<svg width="224" height="21" viewBox="0 0 224 21" fill="none" xmlns="http://www.w3.org/2000/svg">
<path d="M12.2837 15.2537C12.041 14.1076 11.9502 12.9345 12.0139 11.7646C12.0139 9.96616 11.879 8.90505 11.6182 8.66225C11.3575 8.41945 10.7189 8.77017 9.75676 9.71438C9.27915 10.2181 8.72726 10.6457 8.12018 10.9823C7.92698 11.0711 7.71679 11.1171 7.50415 11.1171C7.29151 11.1171 7.08143 11.0711 6.88823 10.9823C6.28592 10.6466 5.73975 10.2188 5.26955 9.71438C4.29837 8.77017 3.67794 8.41945 3.41716 8.66225C3.15638 8.90505 3.01244 9.93919 3.01244 11.7646C3.02856 12.6832 2.99253 13.6019 2.90454 14.5163C2.87827 14.9342 2.73495 15.3362 2.49092 15.6763C2.35881 15.7919 2.20463 15.8794 2.03768 15.9335C1.87072 15.9876 1.69443 16.0072 1.51967 15.9911C1.23677 16.0072 0.957056 15.9245 0.728329 15.7573C0.473444 15.4405 0.317111 15.056 0.278708 14.6512C0.14703 13.9147 0.0718737 13.1691 0.0538975 12.4211C0.0538975 11.5218 0 10.209 0 8.49141C0 5.21816 0.020934 3.1499 0.0628987 2.28663C0.0628987 1.38738 0.197846 0.982727 0.350718 0.982727C0.503589 0.982727 0.782301 1.18055 1.19595 1.56723C1.6096 1.9539 2.58077 2.90711 4.10049 4.42683C4.62205 4.94839 5.06276 5.36204 5.42246 5.66779C5.75631 5.95542 6.12484 6.20012 6.51951 6.39617C6.81765 6.57261 7.15771 6.6657 7.50415 6.6657C7.85059 6.6657 8.19065 6.57261 8.48879 6.39617C8.88511 6.19818 9.25651 5.95366 9.59495 5.66779C9.96364 5.36204 10.4043 4.94839 10.9258 4.42683C12.4425 2.90411 13.4107 1.95091 13.8304 1.56723C14.244 1.18055 14.5317 0.982727 14.6846 0.982727C14.8375 0.982727 14.9274 1.41436 14.9634 2.28663C14.9994 3.15889 15.0263 5.21816 15.0263 8.49141C15.0263 10.209 15.0263 11.5218 15.0263 12.4211C15.0059 13.1694 14.9277 13.915 14.7925 14.6512C14.7562 15.0549 14.6031 15.4392 14.3519 15.7573C14.1316 15.9276 13.8563 16.0108 13.5785 15.9911C13.3106 16.038 13.0348 15.99 12.7984 15.8554C12.562 15.7209 12.38 15.5081 12.2837 15.2537Z" fill="#8DC63F"/>
<path d="M24.1176 13.1405C23.2484 15.2987 22.586 16.8544 22.1303 17.8076C21.8274 18.509 21.4344 19.168 20.9613 19.7679C20.8246 19.9292 20.6555 20.0599 20.4649 20.1513C20.2743 20.2427 20.0666 20.2929 19.8552 20.2985C19.2527 20.2985 18.956 20.1726 18.8481 19.9208C18.8472 19.2955 18.9951 18.6791 19.2797 18.1223C19.6282 17.2686 19.752 16.3398 19.6394 15.4246C19.323 13.8921 18.8809 12.3883 18.3176 10.9284C17.9039 9.77735 17.6072 8.90509 17.4183 8.30259C17.2552 7.8217 17.1466 7.324 17.0946 6.81885C17.0946 6.42318 17.0945 6.18039 17.2564 6.07248C17.4702 5.95403 17.7141 5.90089 17.9578 5.91961C18.215 5.90188 18.4729 5.94194 18.7125 6.03686C18.9521 6.13178 19.1675 6.27915 19.3427 6.46815C19.8656 7.26571 20.2771 8.13099 20.5657 9.03998C20.7705 9.67272 21.0544 10.277 21.4109 10.8385C21.4426 10.8966 21.4895 10.9452 21.5465 10.979C21.6034 11.0129 21.6685 11.0307 21.7347 11.0307C21.801 11.0307 21.866 11.0129 21.923 10.979C21.9799 10.9452 22.0267 10.8966 22.0584 10.8385C22.4339 10.2799 22.7361 9.67547 22.9577 9.03998C23.2383 8.12788 23.6503 7.26151 24.1806 6.46815C24.3586 6.27772 24.577 6.1296 24.8197 6.03468C25.0625 5.93975 25.3234 5.90043 25.5834 5.91961C25.7027 5.90542 25.8237 5.91825 25.9373 5.95716C26.0509 5.99608 26.1543 6.06009 26.2398 6.14442C26.3477 6.29729 26.3477 6.64799 26.2398 7.20552C26.0715 7.92656 25.8553 8.63554 25.5924 9.32773C25.2627 10.233 24.7711 11.5039 24.1176 13.1405Z" fill="#8DC63F"/>
<path d="M29.2524 8.44641C29.2146 7.11718 29.5544 5.80447 30.2325 4.66059C30.8913 3.5309 31.8417 2.59913 32.9842 1.96287C34.1376 1.31726 35.4392 0.982589 36.761 0.991683C37.7718 0.978552 38.7766 1.14605 39.7285 1.48627C40.3277 1.66296 40.8888 1.94961 41.3832 2.33156C41.5167 2.42572 41.625 2.55121 41.6986 2.69703C41.7723 2.84284 41.8092 3.00451 41.8058 3.16785C41.7126 3.51176 41.5259 3.82307 41.2663 4.06709L41.0144 4.34587C40.9352 4.41874 40.8476 4.48211 40.7536 4.5347L40.5378 4.66959C40.4676 4.71192 40.3857 4.73081 40.304 4.72355H40.0792C39.9813 4.71292 39.8849 4.69181 39.7915 4.66059C39.6881 4.63605 39.586 4.60604 39.4858 4.57068L39.0901 4.4268L38.6224 4.27393C38.0199 4.08519 37.3924 3.98818 36.761 3.98616C36.1626 3.96725 35.5663 4.06808 35.0073 4.28272C34.4483 4.49736 33.9378 4.8215 33.5058 5.23611C33.0864 5.65394 32.758 6.15408 32.5413 6.70503C32.3247 7.25598 32.2244 7.84581 32.2468 8.43741C32.2234 9.04786 32.321 9.65692 32.534 10.2295C32.747 10.8021 33.0711 11.3268 33.4878 11.7736C33.9193 12.1967 34.4337 12.5262 34.9985 12.7413C35.5633 12.9563 36.1664 13.0525 36.77 13.0235C37.4066 13.0311 38.0395 12.9277 38.6404 12.7178L39.0901 12.5649L39.4858 12.4211L39.7915 12.3311C39.8817 12.2994 39.9751 12.2783 40.0702 12.2682H40.295C40.3718 12.2491 40.452 12.2491 40.5288 12.2682L40.7446 12.3941C40.8422 12.4408 40.9306 12.5048 41.0054 12.5829C41.0774 12.6549 41.1673 12.7448 41.2573 12.8527C41.5169 13.0967 41.7036 13.408 41.7968 13.7519C41.8018 13.9155 41.7657 14.0778 41.6918 14.2239C41.618 14.3699 41.5088 14.4952 41.3742 14.5882C40.8866 14.9931 40.3245 15.2986 39.7196 15.4875C38.7706 15.8404 37.7644 16.0142 36.752 16C35.7498 16.0474 34.7492 15.8783 33.8182 15.5043C32.8872 15.1304 32.0476 14.5603 31.3566 13.8329C30.6459 13.1341 30.091 12.293 29.7284 11.3647C29.3657 10.4364 29.2035 9.44185 29.2524 8.44641Z" fill="#8DC63F"/>
<path d="M48.0914 13.8959C47.8733 13.9628 47.6732 14.0786 47.5064 14.2344C47.3397 14.3902 47.2108 14.582 47.1293 14.7951C47.0197 15.1732 46.789 15.5049 46.4727 15.7393C46.0289 15.9095 45.5531 15.9801 45.079 15.9462C44.9437 15.9623 44.8066 15.9499 44.6764 15.9096C44.5463 15.8693 44.4261 15.8021 44.3236 15.7124C44.1906 15.3557 44.1906 14.963 44.3236 14.6063C44.4732 13.8443 44.6929 13.0977 44.9801 12.3762C45.3098 11.4769 45.8193 10.167 46.5087 8.44648C47.408 6.18938 48.0914 4.55276 48.568 3.5546C48.8764 2.81389 49.2882 2.12059 49.791 1.49534C49.9413 1.32048 50.1276 1.18014 50.3371 1.08394C50.5466 0.98773 50.7744 0.937927 51.005 0.937927C51.2355 0.937927 51.4634 0.98773 51.6729 1.08394C51.8824 1.18014 52.0686 1.32048 52.2189 1.49534C52.7217 2.12059 53.1335 2.81389 53.4419 3.5546C53.9185 4.55276 54.6019 6.18938 55.5012 8.44648C56.1846 10.182 56.6972 11.4949 57.0209 12.3852C57.3008 13.1061 57.5204 13.849 57.6774 14.6063C57.7853 15.1818 57.7853 15.5505 57.6774 15.7124C57.5796 15.8037 57.4627 15.8721 57.3351 15.9126C57.2075 15.953 57.0725 15.9645 56.9399 15.9462C56.4627 15.9836 55.9833 15.9129 55.5372 15.7393C55.2243 15.5035 54.9969 15.172 54.8897 14.7951C54.8082 14.582 54.6792 14.3902 54.5125 14.2344C54.3457 14.0786 54.1457 13.9628 53.9275 13.8959C52.9728 13.7211 52.0015 13.6547 51.032 13.6981C50.0474 13.65 49.0606 13.7164 48.0914 13.8959ZM49.3684 10.182C49.5033 10.5147 50.0518 10.6766 51.023 10.6766C51.9941 10.6766 52.5426 10.5147 52.6775 10.182C52.8124 9.84929 52.6776 9.05796 52.165 7.83499C51.6524 6.61202 51.3197 5.98255 51.05 5.98255C50.7802 5.98255 50.4025 6.60303 49.9169 7.83499C49.5204 8.55149 49.3305 9.36398 49.3684 10.182Z" fill="#8DC63F"/>
<path d="M70.8692 7.95187C70.7792 8.10474 70.6175 8.32955 70.4017 8.6263C70.1858 8.92305 70.0509 9.12987 70.0059 9.2108C69.961 9.29173 69.88 9.4626 69.7721 9.6964C69.68 9.86674 69.6453 10.0623 69.6732 10.2539C69.7092 10.3918 69.7542 10.5896 69.8081 10.8474C69.8705 11.1334 69.9734 11.409 70.1138 11.6657C70.2667 11.9535 70.4556 12.3042 70.6894 12.7089C71.112 13.4642 71.4178 14.0397 71.5886 14.4354C71.748 14.7382 71.8515 15.0671 71.8943 15.4066C71.9123 15.5029 71.8983 15.6025 71.8545 15.6902C71.8106 15.7778 71.7394 15.8488 71.6515 15.8922C71.3769 15.9706 71.0915 16.004 70.8063 15.9911C70.1782 16.0315 69.5573 15.8395 69.0618 15.4515C68.3515 14.674 67.7468 13.8063 67.2633 12.8707C66.7815 11.9625 66.2026 11.1092 65.5367 10.3259C65.3483 10.1419 65.1243 9.99833 64.8784 9.904C64.6326 9.80968 64.3701 9.76657 64.107 9.77733C63.5045 9.77733 63.1268 9.95718 62.9649 10.3259C62.7566 11.1571 62.6778 12.0155 62.7311 12.8707C62.7937 13.7402 62.7023 14.6138 62.4613 15.4515C62.2814 15.8112 61.8768 15.9911 61.2293 15.9911C60.949 16.0089 60.6715 15.926 60.447 15.7573C60.1884 15.4419 60.0288 15.0571 59.9884 14.6512C59.8612 13.914 59.786 13.1688 59.7635 12.4211C59.7635 11.5219 59.7635 10.209 59.7635 8.49142C59.7635 7.10659 59.7636 6.00951 59.8356 5.20019C59.8723 4.47905 59.9563 3.7611 60.0873 3.051C60.1556 2.56632 60.3546 2.10937 60.6628 1.72911C60.9126 1.46866 61.2209 1.27139 61.562 1.1536C62.0333 1.02425 62.5214 0.966651 63.0098 0.98274H66.2651C69.7841 0.98274 71.5407 2.42452 71.5347 5.30809C71.5919 6.23698 71.3592 7.16071 70.8692 7.95187ZM64.8893 3.59054C64.2894 3.51754 63.6813 3.62724 63.1447 3.90528C62.8371 4.3279 62.7049 4.85318 62.776 5.37105C62.776 6.15339 62.9019 6.64796 63.1447 6.85479C63.68 7.137 64.2884 7.2499 64.8893 7.17852H66.9755C67.2196 7.19081 67.4635 7.15087 67.6909 7.06138C67.9183 6.97188 68.1239 6.83489 68.2942 6.65955C68.4644 6.48421 68.5953 6.27456 68.678 6.0446C68.7608 5.81464 68.7935 5.56969 68.774 5.32608C68.777 4.86551 68.6031 4.42134 68.2883 4.08512C67.9275 3.7509 67.449 3.57309 66.9575 3.59054H64.8893Z" fill="#8DC63F"/>
<path d="M84.8886 14.5793C84.9059 14.8394 84.8465 15.099 84.7176 15.3256C84.5005 15.5501 84.2166 15.6984 83.9083 15.7483C83.3737 15.8685 82.8285 15.9348 82.2807 15.9461C81.6153 15.9461 80.6531 15.9911 79.3942 15.9911C78.7006 15.9996 78.0071 15.9696 77.3169 15.9012C76.8078 15.8448 76.3121 15.7019 75.8511 15.4785C75.4558 15.2969 75.1102 15.0223 74.844 14.6782C74.5674 14.2588 74.3693 13.7926 74.2594 13.3024C74.0953 12.6479 73.993 11.9796 73.9537 11.306C73.9537 10.5776 73.8818 9.63345 73.8818 8.49142C73.8818 7.34938 73.8818 6.39618 73.9537 5.6678C73.993 4.99426 74.0953 4.3259 74.2594 3.67148C74.3693 3.18123 74.5674 2.71504 74.844 2.29564C75.1102 1.95155 75.4558 1.67697 75.8511 1.49531C76.3121 1.27197 76.8078 1.12903 77.3169 1.07267C78.0071 1.00424 78.7006 0.974211 79.3942 0.982738C80.6711 0.982738 81.6333 0.98274 82.2987 1.0277C82.8466 1.03838 83.3919 1.10466 83.9263 1.22554C84.2346 1.27544 84.5185 1.4237 84.7356 1.64818C84.8672 1.86749 84.9298 2.12124 84.9154 2.37657C84.9282 2.53866 84.9087 2.70167 84.8577 2.85607C84.8068 3.01048 84.7255 3.15317 84.6187 3.27581C84.2982 3.50045 83.9214 3.63124 83.5307 3.65349C82.6608 3.73252 81.7873 3.76554 80.9139 3.75241C80.0368 3.73568 79.1595 3.77774 78.288 3.8783C77.8843 3.9027 77.4994 4.05731 77.191 4.31893C76.9662 4.61438 76.8603 4.98336 76.8943 5.35306C76.8943 6.04547 77.0741 6.49509 77.4338 6.68393C78.2319 6.93825 79.0716 7.03597 79.9067 6.97169C80.7388 6.91473 81.5745 6.99677 82.3796 7.21448C82.7303 7.38534 82.9012 7.76303 82.9012 8.36552C82.9012 8.96801 82.7303 9.35469 82.3796 9.51655C81.5745 9.73426 80.7388 9.81631 79.9067 9.75934C79.0709 9.69256 78.2301 9.79345 77.4338 10.0561C77.0741 10.2539 76.8943 10.7215 76.8943 11.4589C76.8943 12.1963 77.1281 12.6729 77.5957 12.8707C78.6742 13.1377 79.7871 13.2378 80.8959 13.1675C81.7693 13.1497 82.6431 13.1827 83.5127 13.2664C83.9008 13.2879 84.2749 13.4188 84.5917 13.6441C84.7031 13.771 84.787 13.9197 84.8381 14.0806C84.8891 14.2416 84.9063 14.4114 84.8886 14.5793Z" fill="#8DC63F"/>
<path d="M97.9994 14.5793C98.0168 14.8394 97.9574 15.099 97.8286 15.3256C97.6115 15.5501 97.3275 15.6984 97.0192 15.7483C96.4817 15.869 95.9334 15.9353 95.3826 15.9461C94.7261 15.9461 93.764 15.9911 92.505 15.9911C91.8115 15.9996 91.1179 15.9696 90.4277 15.9012C89.9183 15.8464 89.4223 15.7034 88.962 15.4785C88.5666 15.2969 88.2211 15.0223 87.9548 14.6782C87.6745 14.2608 87.4763 13.7939 87.3704 13.3024C87.2021 12.6488 87.0996 11.98 87.0646 11.306C87.0106 10.5776 86.9927 9.63345 86.9927 8.49142C86.9927 7.34938 86.9926 6.39618 87.0646 5.6678C87.0996 4.99382 87.2021 4.32504 87.3704 3.67148C87.4763 3.17996 87.6745 2.71305 87.9548 2.29564C88.2211 1.95155 88.5666 1.67697 88.962 1.49531C89.4223 1.27046 89.9183 1.12744 90.4277 1.07267C91.1179 1.00424 91.8115 0.974211 92.505 0.982738C93.773 0.982738 94.7441 0.98274 95.4096 1.0277C95.9574 1.03905 96.5027 1.10533 97.0373 1.22554C97.3455 1.27544 97.6294 1.4237 97.8465 1.64818C97.9744 1.86868 98.0339 2.1222 98.0174 2.37657C98.0302 2.53866 98.0105 2.70167 97.9595 2.85607C97.9086 3.01048 97.8274 3.15317 97.7207 3.27581C97.4011 3.50219 97.0237 3.63316 96.6325 3.65349C95.7656 3.73279 94.8951 3.76581 94.0247 3.75241C93.1476 3.73511 92.2704 3.77717 91.399 3.8783C90.9953 3.9027 90.6104 4.05731 90.3019 4.31893C90.0771 4.61438 89.9712 4.98336 90.0051 5.35306C90.0051 6.04547 90.1849 6.49509 90.5356 6.68393C91.337 6.9372 92.1795 7.03488 93.0176 6.97169C93.8496 6.9154 94.6853 6.99743 95.4905 7.21448C95.8412 7.38534 96.0121 7.76303 96.0121 8.36552C96.0121 8.96801 95.8412 9.35469 95.4905 9.51655C94.6853 9.7336 93.8496 9.81564 93.0176 9.75934C92.1788 9.69256 91.335 9.79344 90.5356 10.0561C90.1849 10.2539 90.0051 10.7215 90.0051 11.4589C90.0051 12.1963 90.2389 12.6729 90.6975 12.8707C91.7761 13.137 92.889 13.2371 93.9978 13.1675C94.8713 13.1492 95.7449 13.1823 96.6145 13.2664C97.0057 13.2867 97.3831 13.4177 97.7027 13.6441C97.814 13.771 97.8978 13.9197 97.9489 14.0806C98 14.2416 98.0172 14.4114 97.9994 14.5793Z" fill="#8DC63F"/>
<path d="M111.407 7.95185C111.317 8.10472 111.155 8.32953 110.94 8.62628L110.535 9.21078L110.31 9.69638C110.218 9.86672 110.183 10.0623 110.211 10.2539C110.247 10.3918 110.292 10.5896 110.346 10.8474C110.408 11.1334 110.511 11.4089 110.652 11.6657C110.805 11.9535 110.993 12.3042 111.227 12.7088C111.653 13.4642 111.953 14.0397 112.126 14.4354C112.292 14.7361 112.399 15.0658 112.441 15.4066C112.459 15.5029 112.445 15.6025 112.401 15.6901C112.358 15.7778 112.286 15.8487 112.199 15.8922C111.924 15.9706 111.638 16.004 111.353 15.9911C110.725 16.0315 110.104 15.8395 109.609 15.4515C108.896 14.6762 108.291 13.8081 107.81 12.8707C107.328 11.9625 106.749 11.1092 106.084 10.3258C105.895 10.1419 105.671 9.99831 105.425 9.90398C105.179 9.80966 104.917 9.76655 104.654 9.77731C104.051 9.77731 103.665 9.95716 103.512 10.3258C103.299 11.1562 103.22 12.0154 103.278 12.8707C103.341 13.7401 103.249 14.6138 103.008 15.4515C102.828 15.8112 102.424 15.9911 101.776 15.9911C101.496 16.0089 101.218 15.926 100.994 15.7573C100.735 15.4419 100.576 15.057 100.535 14.6512C100.404 13.9146 100.329 13.1691 100.311 12.4211C100.311 11.5218 100.311 10.209 100.311 8.4914C100.311 7.10656 100.311 6.00949 100.382 5.20017C100.415 4.47866 100.499 3.76041 100.634 3.05098C100.703 2.5663 100.902 2.10935 101.21 1.72909C101.46 1.46864 101.768 1.27137 102.109 1.15358C102.577 1.02472 103.062 0.967124 103.548 0.982719H106.812C110.331 0.982719 112.088 2.4245 112.082 5.30807C112.136 6.23791 111.9 7.16172 111.407 7.95185ZM105.427 3.59052C104.827 3.51752 104.219 3.62722 103.683 3.90526C103.431 4.12107 103.314 4.60667 103.314 5.37103C103.314 6.13538 103.431 6.64794 103.683 6.85477C104.218 7.13698 104.826 7.24987 105.427 7.1785H107.513C107.757 7.19079 108.001 7.15085 108.229 7.06136C108.456 6.97186 108.662 6.83487 108.832 6.65953C109.002 6.48419 109.133 6.27453 109.216 6.04458C109.299 5.81462 109.331 5.56967 109.312 5.32606C109.315 4.86549 109.141 4.42132 108.826 4.0851C108.647 3.91851 108.436 3.78907 108.206 3.7042C107.976 3.61932 107.731 3.58068 107.486 3.59052H105.427Z" fill="#8DC63F"/>
<path d="M123.412 13.8958C123.192 13.9622 122.991 14.0776 122.823 14.2334C122.654 14.3892 122.524 14.5813 122.441 14.7951C122.334 15.1719 122.106 15.5035 121.793 15.7393C121.346 15.9093 120.868 15.9799 120.391 15.9461C120.257 15.9616 120.121 15.9487 119.993 15.9085C119.864 15.8682 119.745 15.8014 119.644 15.7123C119.511 15.3556 119.511 14.9629 119.644 14.6062C119.794 13.8442 120.014 13.0976 120.301 12.3761C120.63 11.4769 121.14 10.167 121.829 8.44642C122.729 6.18932 123.412 4.5527 123.889 3.55454C124.197 2.81383 124.609 2.12053 125.112 1.49528C125.264 1.32108 125.452 1.18129 125.663 1.08518C125.874 0.989068 126.103 0.93881 126.335 0.937744C126.562 0.940328 126.786 0.991401 126.993 1.08754C127.199 1.18368 127.382 1.32268 127.53 1.49528C128.04 2.11744 128.455 2.81131 128.762 3.55454C129.239 4.5527 129.922 6.18932 130.822 8.44642C131.505 10.182 132.018 11.4948 132.341 12.3851C132.621 13.106 132.841 13.849 132.998 14.6062C133.106 15.1817 133.106 15.5504 132.998 15.7123C132.9 15.8037 132.783 15.8721 132.656 15.9125C132.528 15.953 132.393 15.9645 132.26 15.9461C131.783 15.9835 131.304 15.9128 130.858 15.7393C130.545 15.5035 130.318 15.1719 130.21 14.7951C130.128 14.5826 129.998 14.3915 129.832 14.2358C129.665 14.0801 129.466 13.964 129.248 13.8958C128.293 13.7211 127.322 13.6547 126.353 13.698C125.368 13.6499 124.381 13.7163 123.412 13.8958ZM124.689 10.182C124.824 10.5147 125.372 10.6765 126.344 10.6765C127.315 10.6765 127.863 10.5147 127.998 10.182C128.133 9.84923 127.998 9.0579 127.486 7.83493C126.973 6.61196 126.64 5.98249 126.371 5.98249C126.101 5.98249 125.723 6.60297 125.237 7.83493C124.832 8.54871 124.632 9.36136 124.662 10.182H124.689Z" fill="#8DC63F"/>
<path d="M138.07 10.7035C138.089 11.8528 138.05 13.0023 137.953 14.1476C137.937 14.6559 137.798 15.1527 137.548 15.5954C137.428 15.7343 137.276 15.8426 137.106 15.9114C136.935 15.9802 136.751 16.0075 136.568 15.9911C136.288 16.0089 136.01 15.926 135.786 15.7573C135.527 15.4419 135.367 15.0571 135.327 14.6512C135.195 13.9147 135.12 13.1691 135.102 12.4211C135.102 11.5219 135.102 10.209 135.102 8.49141C135.102 6.77386 135.102 5.45197 135.102 4.55273C135.12 3.80471 135.195 3.05916 135.327 2.32261C135.367 1.91677 135.527 1.53194 135.786 1.21653C136.01 1.04782 136.288 0.964906 136.568 0.982733C137.251 0.996282 137.911 1.23316 138.447 1.65716C139.628 2.6476 140.739 3.71717 141.775 4.85847C142.341 5.46096 142.8 5.93756 143.159 6.27927C143.465 6.58206 143.796 6.85879 144.149 7.10657C144.343 7.26419 144.576 7.36669 144.823 7.40332C144.909 7.39627 144.991 7.36453 145.06 7.3119C145.129 7.25927 145.181 7.18797 145.21 7.10657C145.331 6.84645 145.401 6.56567 145.416 6.27927C145.416 5.93756 145.47 5.46096 145.47 4.85847C145.454 4.01177 145.491 3.16489 145.578 2.32261C145.604 1.9375 145.748 1.56984 145.992 1.2705C146.267 1.05457 146.615 0.95166 146.963 0.982733C147.243 0.964906 147.521 1.04782 147.746 1.21653C147.993 1.53661 148.146 1.9199 148.186 2.32261C148.318 3.05916 148.393 3.80471 148.411 4.55273C148.447 5.45197 148.465 6.76487 148.465 8.49141C148.465 10.209 148.465 11.5219 148.411 12.4211C148.393 13.1691 148.318 13.9147 148.186 14.6512C148.144 15.055 147.988 15.4385 147.737 15.7573C147.508 15.9245 147.228 16.0072 146.945 15.9911C146.513 16.043 146.076 15.9581 145.695 15.7483C145.468 15.4172 145.372 15.0133 145.425 14.6152C145.397 13.964 145.171 13.3369 144.778 12.8168C143.842 11.6054 142.833 10.4523 141.757 9.36368C141.28 8.8601 140.857 8.46443 140.552 8.1497C140.246 7.83496 139.913 7.57418 139.652 7.35836C139.466 7.18364 139.231 7.07059 138.978 7.03463C138.816 7.03963 138.66 7.09992 138.537 7.20549C138.374 7.39064 138.276 7.62451 138.259 7.87093C138.19 8.25754 138.145 8.64792 138.124 9.03995C138.079 9.4536 138.07 10.0201 138.07 10.7035Z" fill="#8DC63F"/>
<path d="M150.722 8.44645C150.681 7.11804 151.018 5.80525 151.693 4.66063C152.352 3.53094 153.302 2.59917 154.445 1.9629C155.599 1.31922 156.9 0.984676 158.222 0.991719C159.235 0.979434 160.243 1.14689 161.198 1.4863C161.794 1.6646 162.352 1.95115 162.844 2.33159C162.977 2.42576 163.086 2.55125 163.159 2.69706C163.233 2.84288 163.27 3.00454 163.266 3.16788C163.177 3.51135 162.993 3.82289 162.736 4.06713L162.475 4.3459C162.399 4.41872 162.315 4.48211 162.223 4.53474L162.008 4.66963C161.934 4.71156 161.849 4.73036 161.765 4.72358H161.54C161.442 4.71296 161.346 4.69185 161.252 4.66063L160.946 4.57071L160.551 4.42683L160.083 4.27396C159.481 4.08523 158.853 3.98822 158.222 3.9862C157.625 3.96849 157.03 4.0699 156.473 4.28451C155.916 4.49912 155.406 4.82263 154.975 5.23614C154.553 5.65222 154.222 6.15184 154.004 6.70307C153.786 7.25429 153.685 7.845 153.708 8.43744C153.688 9.04553 153.788 9.65157 154.002 10.2209C154.217 10.7903 154.541 11.3118 154.957 11.7557C155.389 12.1783 155.904 12.5075 156.468 12.7226C157.033 12.9376 157.636 13.034 158.24 13.0056C158.876 13.0132 159.509 12.9097 160.11 12.6999L160.56 12.547L160.955 12.4031L161.27 12.3132C161.357 12.2819 161.448 12.2608 161.54 12.2502H161.765C161.845 12.2315 161.928 12.2315 162.008 12.2502C162.074 12.3006 162.147 12.3429 162.223 12.3761C162.318 12.4228 162.404 12.4868 162.475 12.565L162.736 12.8347C162.993 13.079 163.177 13.3905 163.266 13.734C163.271 13.8976 163.235 14.0598 163.162 14.2059C163.088 14.352 162.979 14.4773 162.844 14.5703C162.359 14.9735 161.8 15.2789 161.198 15.4695C160.246 15.8224 159.237 15.9961 158.222 15.9821C157.228 15.9993 156.242 15.8156 155.321 15.442C154.4 15.0684 153.565 14.5125 152.864 13.8079C152.164 13.1032 151.613 12.2642 151.245 11.3414C150.877 10.4185 150.699 9.43075 150.722 8.43744V8.44645Z" fill="#8DC63F"/>
<path d="M168.959 12.8707C169.021 13.7401 168.93 14.6138 168.689 15.4515C168.509 15.8112 168.104 15.9911 167.457 15.9911C167.176 16.0089 166.899 15.926 166.674 15.7573C166.416 15.4419 166.256 15.057 166.216 14.6512C166.084 13.9146 166.009 13.1691 165.991 12.4211C165.991 11.5218 165.991 10.2089 165.991 8.4914C165.991 6.77384 165.991 5.45195 165.991 4.55271C166.009 3.80469 166.084 3.05915 166.216 2.32259C166.256 1.91675 166.416 1.53192 166.674 1.21652C166.899 1.0478 167.176 0.96489 167.457 0.982717C168.104 0.982717 168.509 1.16256 168.689 1.51327C168.928 2.31131 169.019 3.14631 168.959 3.9772C168.959 5.2721 169.165 6.0994 169.57 6.4591C169.975 6.8188 170.946 6.98965 172.466 6.98965C173.985 6.98965 174.92 6.8098 175.334 6.4591C175.748 6.1084 175.946 5.2721 175.946 3.9772C175.885 3.14038 175.976 2.29946 176.215 1.49529C176.395 1.14459 176.8 0.964728 177.447 0.964728C177.726 0.940524 178.002 1.02424 178.221 1.19854C178.47 1.51763 178.623 1.90142 178.661 2.3046C178.797 3.03756 178.872 3.78044 178.886 4.52573C178.922 5.43097 178.94 6.74387 178.94 8.46442C178.94 10.191 178.94 11.5039 178.886 12.4121C178.873 13.1634 178.797 13.9122 178.661 14.6512C178.621 15.0539 178.468 15.4372 178.221 15.7573C178 15.9276 177.725 16.0108 177.447 15.9911C176.8 15.9911 176.395 15.8112 176.215 15.4515C175.974 14.6138 175.883 13.7401 175.946 12.8707C175.946 11.5308 175.748 10.6855 175.334 10.3258C174.92 9.96615 173.967 9.77731 172.466 9.77731C170.964 9.77731 169.984 9.95715 169.57 10.3258C169.156 10.6945 168.959 11.5308 168.959 12.8707Z" fill="#8DC63F"/>
<path d="M183.409 13.8239C182.133 12.5843 181.327 10.9393 181.129 9.17072C180.932 7.40213 181.356 5.61999 182.328 4.12954C183.301 2.63909 184.761 1.5331 186.459 1.00098C188.157 0.468854 189.987 0.543727 191.636 1.21277C193.285 1.8818 194.651 3.10338 195.498 4.66825C196.345 6.23313 196.622 8.04393 196.281 9.7905C195.94 11.5371 195.002 13.1107 193.628 14.2419C192.255 15.3731 190.53 15.9915 188.751 15.9911C187.76 16.0144 186.774 15.8341 185.855 15.4614C184.937 15.0886 184.104 14.5313 183.409 13.8239ZM188.805 13.1855C189.409 13.2024 190.009 13.09 190.566 12.8558C191.123 12.6216 191.623 12.271 192.033 11.8276C192.844 10.9 193.291 9.7099 193.291 8.47793C193.291 7.24596 192.844 6.0558 192.033 5.12825C191.608 4.69785 191.102 4.35612 190.544 4.12288C189.986 3.88965 189.387 3.76955 188.782 3.76955C188.177 3.76955 187.579 3.88965 187.021 4.12288C186.463 4.35612 185.956 4.69785 185.532 5.12825C184.72 6.05725 184.273 7.24892 184.273 8.48242C184.273 9.71591 184.72 10.9076 185.532 11.8366C185.947 12.278 186.451 12.6264 187.01 12.8589C187.57 13.0914 188.172 13.2027 188.778 13.1855H188.805Z" fill="#8DC63F"/>
<path d="M209.523 7.95183C209.425 8.1047 209.272 8.32951 209.056 8.62626C208.84 8.92301 208.696 9.12983 208.651 9.21077C208.606 9.2917 208.525 9.46256 208.426 9.69636C208.334 9.86671 208.3 10.0622 208.328 10.2539L208.453 10.8474C208.523 11.1324 208.629 11.4074 208.768 11.6657C208.912 11.9535 209.11 12.3042 209.335 12.7088C209.766 13.4642 210.072 14.0397 210.234 14.4354C210.397 14.7368 210.5 15.0663 210.54 15.4065C210.562 15.502 210.55 15.6021 210.508 15.6903C210.465 15.7786 210.394 15.8497 210.306 15.8921C210.014 15.9755 209.71 16.0089 209.407 15.9911C208.781 16.0318 208.163 15.8396 207.671 15.4515C206.96 14.6745 206.355 13.8067 205.872 12.8707C205.396 11.9614 204.82 11.1078 204.155 10.3258C203.965 10.1416 203.739 9.99794 203.492 9.90364C203.245 9.80934 202.981 9.76635 202.716 9.77729C202.114 9.77729 201.736 9.95714 201.583 10.3258C201.365 11.1554 201.283 12.0149 201.34 12.8707C201.404 13.7396 201.316 14.6129 201.08 15.4515C200.9 15.8112 200.486 15.9911 199.848 15.9911C199.565 16.0072 199.285 15.9245 199.056 15.7572C198.805 15.4384 198.649 15.0549 198.607 14.6512C198.475 13.9146 198.4 13.1691 198.382 12.4211C198.382 11.5218 198.328 10.2089 198.328 8.49138C198.328 7.10655 198.328 6.00947 198.4 5.20015C198.439 4.47878 198.526 3.76081 198.661 3.05096C198.724 2.56474 198.923 2.10635 199.236 1.72908C199.485 1.46781 199.794 1.27041 200.135 1.15356C200.607 1.02475 201.095 0.96716 201.583 0.982705H204.847C208.354 0.982705 210.117 2.42149 210.117 5.30806C210.196 6.22938 209.988 7.15257 209.523 7.95183ZM203.534 3.5905C202.935 3.51863 202.327 3.62827 201.79 3.90524C201.482 4.32786 201.35 4.85314 201.421 5.37101C201.421 6.15335 201.547 6.64793 201.79 6.85476C202.326 7.13589 202.934 7.24872 203.534 7.17848H205.63C205.877 7.18612 206.124 7.14478 206.355 7.05682C206.587 6.96885 206.799 6.83601 206.979 6.66592C207.307 6.29785 207.484 5.81912 207.473 5.32605C207.474 4.86424 207.297 4.4199 206.979 4.08509C206.802 3.91665 206.593 3.78593 206.364 3.7009C206.135 3.61588 205.891 3.57831 205.648 3.5905H203.534Z" fill="#8DC63F"/>
<path d="M220.53 1.39639C221.107 1.57068 221.643 1.86141 222.104 2.25067C222.24 2.35371 222.346 2.49155 222.411 2.64977C222.476 2.80798 222.497 2.98073 222.472 3.14991C222.383 3.49768 222.192 3.81087 221.924 4.04915L221.6 4.35489C221.517 4.43519 221.415 4.49385 221.303 4.52575C221.223 4.54878 221.145 4.57887 221.07 4.61567C220.981 4.63932 220.888 4.63932 220.8 4.61567C220.711 4.59647 220.623 4.56939 220.539 4.53474L220.161 4.37288L219.703 4.17505C219.198 3.96871 218.657 3.86479 218.111 3.86931C217.566 3.85486 217.025 3.95281 216.519 4.15706C216.344 4.21632 216.183 4.3096 216.044 4.43151C215.905 4.55342 215.792 4.70158 215.71 4.86747C215.595 5.15616 215.595 5.47801 215.71 5.76671C215.869 6.12937 216.153 6.42291 216.51 6.59401C217.009 6.86816 217.555 7.04515 218.12 7.11557C221.447 7.61016 223.12 9.13885 223.12 11.7107C223.113 12.5704 222.793 13.3982 222.221 14.0397C221.652 14.7208 220.927 15.2545 220.107 15.5954C219.306 15.9385 218.443 16.1159 217.572 16.117C216.468 16.1376 215.369 15.9641 214.325 15.6044C213.7 15.4118 213.115 15.1071 212.599 14.7052C212.248 14.3904 212.095 14.1027 212.149 13.8059C212.232 13.4577 212.42 13.1436 212.689 12.9067L213.003 12.6009C213.089 12.5239 213.19 12.4657 213.3 12.4301L213.552 12.3581C213.646 12.3342 213.745 12.3342 213.84 12.3581L214.136 12.4391L214.541 12.6189C214.757 12.7089 214.919 12.7808 215.045 12.8168C215.693 13.0774 216.379 13.2323 217.077 13.2754C217.783 13.336 218.492 13.1924 219.118 12.8617C219.33 12.7578 219.51 12.5983 219.638 12.4004C219.766 12.2024 219.838 11.9734 219.847 11.7377C219.868 11.4533 219.821 11.168 219.71 10.9053C219.599 10.6426 219.427 10.4101 219.208 10.2269C218.786 9.90258 218.274 9.7144 217.742 9.68739C217.067 9.62451 216.397 9.51332 215.737 9.35468C215.036 9.21451 214.37 8.93635 213.777 8.53636C213.286 8.19349 212.89 7.73123 212.628 7.19315C212.365 6.65508 212.243 6.05893 212.275 5.46096C212.279 4.84472 212.431 4.23849 212.719 3.6937C213.007 3.14892 213.423 2.68166 213.93 2.3316C214.939 1.52521 216.19 1.08179 217.482 1.07266C218.509 1.00014 219.541 1.10974 220.53 1.39639Z" fill="#8DC63F"/>
</svg>
