<svg width="24" height="14" viewBox="0 0 24 14" fill="none" xmlns="http://www.w3.org/2000/svg">
<path d="M1 13C1 10.75 4 10.75 5.5 9.25C6.25 8.5 4 8.5 4 4.75C4 2.25025 4.99975 1 7 1C9.00025 1 10 2.25025 10 4.75C10 8.5 7.75 8.5 8.5 9.25C10 10.75 13 10.75 13 13" stroke="#00AEEF" stroke-width="1.5" stroke-linecap="round"/>
<path d="M12 11C12.567 10.6092 12.803 10.571 13.5074 10.2318C14.058 9.96655 14.5893 9.66594 15.0053 9.25C15.7553 8.5 13.5053 8.5 13.5053 4.75C13.5053 2.25025 14.505 1 16.5053 1C18.5055 1 19.5053 2.25025 19.5053 4.75C19.5053 8.5 17.2553 8.5 18.0053 9.25C19.5053 10.75 22.5053 10.75 22.5053 13" stroke="#00AEEF" stroke-width="1.5" stroke-linecap="round"/>
</svg>
