<svg width="26" height="26" viewBox="0 0 26 26" fill="none" xmlns="http://www.w3.org/2000/svg">
<path d="M23.6064 9.79063H23.0544C22.8751 9.22949 22.6489 8.68441 22.3779 8.1607L22.7688 7.76979C23.7166 6.82297 23.6912 5.30562 22.7691 4.38445L21.6158 3.23121C20.6952 2.30938 19.1776 2.28267 18.2305 3.23086L17.8393 3.62207C17.3156 3.35111 16.7704 3.12482 16.2093 2.94552V2.39347C16.2093 1.07372 15.1356 0 13.8158 0H12.1841C10.8643 0 9.79061 1.07372 9.79061 2.39347V2.94552C9.22953 3.12477 8.68439 3.35105 8.16068 3.62207L7.76982 3.23121C6.82463 2.2849 5.30704 2.30709 4.38455 3.23091L3.23115 4.3842C2.30937 5.30497 2.28271 6.82241 3.23085 7.76953L3.62207 8.16075C3.35105 8.68446 3.12482 9.22949 2.94551 9.79068H2.39352C1.07377 9.79062 0 10.8643 0 12.1841V13.8159C0 15.1357 1.07377 16.2094 2.39352 16.2094H2.94551C3.12482 16.7705 3.35105 17.3156 3.62207 17.8393L3.23115 18.2302C2.28332 19.177 2.30871 20.6944 3.23085 21.6155L4.38414 22.7688C5.30475 23.6906 6.8224 23.7173 7.76947 22.7691L8.16068 22.3779C8.68439 22.6489 9.22953 22.8752 9.79061 23.0545V23.6065C9.79061 24.9263 10.8644 26 12.1841 26H13.8159C15.1356 26 16.2094 24.9263 16.2094 23.6065V23.0545C16.7705 22.8752 17.3156 22.6489 17.8393 22.3779L18.2302 22.7688C19.1754 23.7151 20.6929 23.6929 21.6155 22.7691L22.7688 21.6157C23.6906 20.695 23.7173 19.1775 22.7692 18.2304L22.3779 17.8392C22.649 17.3155 22.8752 16.7705 23.0545 16.2093H23.6065C24.9262 16.2093 26 15.1356 26 13.8158V12.184C25.9999 10.8643 24.9262 9.79063 23.6064 9.79063ZM13 18.657C9.88064 18.657 7.34296 16.1193 7.34296 13C7.34296 9.88071 9.88064 7.34297 13 7.34297C16.1193 7.34297 18.657 9.88071 18.657 13C18.657 16.1193 16.1193 18.657 13 18.657Z" fill="#5448A9"/>
</svg>
