<svg width="22" height="20" viewBox="0 0 22 20" fill="none" xmlns="http://www.w3.org/2000/svg">
<path d="M9.20653 1.5805C9.94016 0.094012 12.0598 0.0940137 12.7935 1.58051L14.3553 4.74504C14.6466 5.33533 15.2097 5.74446 15.8611 5.83912L19.3534 6.34658C20.9939 6.58495 21.6489 8.60089 20.4618 9.75797L17.9348 12.2212C17.4634 12.6807 17.2483 13.3427 17.3596 13.9915L17.9562 17.4696C18.2364 19.1034 16.5215 20.3494 15.0543 19.578L11.9307 17.9358C11.348 17.6295 10.652 17.6295 10.0693 17.9358L6.94573 19.578C5.47848 20.3494 3.76362 19.1034 4.04384 17.4696L4.64039 13.9915C4.75166 13.3427 4.53657 12.6807 4.0652 12.2212L1.53816 9.75796C0.35113 8.60089 1.00615 6.58495 2.64659 6.34658L6.13886 5.83912C6.79028 5.74446 7.35341 5.33533 7.64474 4.74504L9.20653 1.5805Z" fill="#00AEEF"/>
</svg>
