<svg width="22" height="20" viewBox="0 0 22 20" fill="none" xmlns="http://www.w3.org/2000/svg">
<path d="M9.21148 1.32282C9.96362 -0.0923232 11.9915 -0.0923254 12.7436 1.32281L14.6104 4.83522C14.9128 5.40408 15.4706 5.79247 16.109 5.87861L20.0257 6.40708C21.712 6.63461 22.3619 8.73005 21.1004 9.87192L18.4622 12.2598C17.948 12.7252 17.7116 13.4239 17.8376 14.1059L18.486 17.6165C18.7843 19.2311 17.1174 20.4974 15.6419 19.7771L11.8549 17.9283C11.3012 17.658 10.6538 17.658 10.1001 17.9283L6.31315 19.7771C4.83767 20.4974 3.1708 19.2311 3.46903 17.6165L4.11747 14.1059C4.24345 13.4239 4.00708 12.7252 3.49287 12.2598L0.854697 9.87192C-0.406848 8.73005 0.243099 6.63461 1.92939 6.40708L5.84605 5.87861C6.48448 5.79247 7.04232 5.40408 7.34467 4.83522L9.21148 1.32282Z" fill="#F664C5"/>
</svg>
