<svg width="21" height="20" viewBox="0 0 21 20" fill="none" xmlns="http://www.w3.org/2000/svg">
<path d="M8.72014 1.47282C9.46349 0.0224142 11.5365 0.022414 12.2799 1.47282L13.9937 4.81685C14.2908 5.39644 14.8514 5.7951 15.4964 5.88536L19.2009 6.40371C20.8647 6.63652 21.5175 8.69283 20.2925 9.84264L17.7099 12.2668C17.2169 12.7295 16.9911 13.4101 17.1097 14.0757L17.7325 17.5723C18.0217 19.1961 16.3317 20.4523 14.8601 19.7073L11.4034 17.9573C10.8354 17.6698 10.1646 17.6698 9.59665 17.9573L6.13989 19.7073C4.66834 20.4523 2.97831 19.1961 3.26753 17.5723L3.8903 14.0757C4.00887 13.4101 3.78306 12.7295 3.29007 12.2668L0.7075 9.84264C-0.517452 8.69283 0.135284 6.63652 1.79913 6.40371L5.50358 5.88536C6.14858 5.7951 6.70924 5.39644 7.00629 4.81685L8.72014 1.47282Z" fill="#EF60A2"/>
</svg>
