<svg width="22" height="20" viewBox="0 0 22 20" fill="none" xmlns="http://www.w3.org/2000/svg">
<path d="M9.20653 1.63397C9.94016 0.147479 12.0598 0.14748 12.7935 1.63397L14.3553 4.7985C14.6466 5.38879 15.2097 5.79793 15.8611 5.89259L19.3534 6.40004C20.9939 6.63841 21.6489 8.65436 20.4618 9.81143L17.9348 12.2747C17.4634 12.7342 17.2483 13.3962 17.3596 14.0449L17.9562 17.5231C18.2364 19.1569 16.5215 20.4028 15.0543 19.6315L11.9307 17.9893C11.348 17.683 10.652 17.683 10.0693 17.9893L6.94573 19.6315C5.47848 20.4028 3.76362 19.1569 4.04384 17.5231L4.64039 14.0449C4.75166 13.3962 4.53657 12.7342 4.0652 12.2747L1.53816 9.81143C0.35113 8.65436 1.00615 6.63841 2.64659 6.40004L6.13886 5.89259C6.79028 5.79793 7.35341 5.38879 7.64474 4.79851L9.20653 1.63397Z" fill="#5448A9"/>
</svg>
