<svg width="23" height="21" viewBox="0 0 23 21" fill="none" xmlns="http://www.w3.org/2000/svg">
<path d="M9.74792 1.18285C10.508 -0.197846 12.492 -0.197848 13.2521 1.18285L15.2727 4.85355C15.5799 5.41166 16.1347 5.79001 16.7664 5.87231L20.8952 6.4102C22.6031 6.63269 23.2498 8.76606 21.9529 9.8994L19.259 12.2537C18.724 12.7212 18.4772 13.4375 18.6107 14.1354L19.2843 17.6564C19.5915 19.2624 17.9463 20.5384 16.4672 19.8413L12.3527 17.9019C11.8127 17.6474 11.1873 17.6474 10.6473 17.9019L6.5328 19.8413C5.05367 20.5384 3.40846 19.2624 3.71571 17.6564L4.38928 14.1354C4.52278 13.4375 4.276 12.7212 3.74099 12.2537L1.04707 9.8994C-0.249771 8.76606 0.396939 6.63269 2.10479 6.4102L6.23358 5.87231C6.86533 5.79001 7.42006 5.41166 7.72729 4.85355L9.74792 1.18285Z" fill="#10D83C"/>
</svg>
