<svg width="25" height="22" viewBox="0 0 25 22" fill="none" xmlns="http://www.w3.org/2000/svg">
<path d="M10.7538 1.9293C11.5272 0.615038 13.4279 0.615036 14.2013 1.9293L16.5318 5.8899C16.8476 6.4266 17.3954 6.78558 18.0136 6.86091L22.5662 7.41574C24.3147 7.62884 24.9538 9.83458 23.5901 10.9495L20.7839 13.2436C20.2086 13.714 19.9415 14.4646 20.0904 15.1927L20.8127 18.7248C21.138 20.3156 19.5321 21.6106 18.0463 20.9555L13.2845 18.8558C12.7704 18.6291 12.1847 18.6291 11.6706 18.8558L6.90877 20.9555C5.42301 21.6106 3.81709 20.3156 4.14241 18.7248L4.8647 15.1927C5.0136 14.4646 4.7465 13.714 4.17113 13.2436L1.36495 10.9495C0.00125813 9.83458 0.640395 7.62883 2.38888 7.41574L6.94149 6.86091C7.55964 6.78558 8.10744 6.4266 8.42325 5.8899L10.7538 1.9293Z" fill="#FBB040"/>
</svg>
