<svg width="11" height="15" viewBox="0 0 11 15" fill="none" xmlns="http://www.w3.org/2000/svg">
<path d="M9.77778 3.19292V5.12123C9.58153 5.04855 9.37486 5.0114 9.16667 5.01136H8.55556V3.19292C8.55556 3.0235 8.61994 2.86102 8.73455 2.74122C8.84915 2.62143 9.00459 2.55413 9.16667 2.55413C9.32874 2.55413 9.48418 2.62143 9.59879 2.74122C9.71339 2.86102 9.77778 3.0235 9.77778 3.19292ZM7.33333 1.91533V5.01136H6.11111V1.91533C6.11111 1.74591 6.1755 1.58343 6.2901 1.46363C6.40471 1.34383 6.56015 1.27653 6.72222 1.27653C6.8843 1.27653 7.03974 1.34383 7.15434 1.46363C7.26895 1.58343 7.33333 1.74591 7.33333 1.91533ZM4.88889 1.91533V4.56676C4.88889 4.73618 4.8245 4.89866 4.7099 5.01846C4.59529 5.13825 4.43985 5.20555 4.27778 5.20555C4.1157 5.20555 3.96026 5.13825 3.84566 5.01846C3.73105 4.89866 3.66667 4.73618 3.66667 4.56676V1.91533C3.66667 1.74591 3.73105 1.58343 3.84566 1.46363C3.96026 1.34383 4.1157 1.27653 4.27778 1.27653C4.43985 1.27653 4.59529 1.34383 4.7099 1.46363C4.8245 1.58343 4.88889 1.74591 4.88889 1.91533ZM1.83333 2.55413C1.99541 2.55413 2.15085 2.62143 2.26545 2.74122C2.38006 2.86102 2.44444 3.0235 2.44444 3.19292V5.84435C2.44444 6.01377 2.38006 6.17625 2.26545 6.29605C2.15085 6.41584 1.99541 6.48315 1.83333 6.48315C1.67126 6.48315 1.51582 6.41584 1.40121 6.29605C1.28661 6.17625 1.22222 6.01377 1.22222 5.84435V3.19292C1.22222 3.02358 1.28655 2.86116 1.40107 2.74137C1.51559 2.62159 1.67092 2.55424 1.83293 2.55413H1.83333ZM3.66667 13.2114C3.6667 13.1275 3.65093 13.0444 3.62024 12.9669C3.58955 12.8893 3.54455 12.8189 3.48782 12.7595L1.40148 10.5787C1.28684 10.459 1.22237 10.2966 1.22222 10.1273V7.65087C1.46 7.73873 1.71255 7.77438 1.9641 7.75557C2.21566 7.73676 2.46079 7.6639 2.68418 7.54155C2.90756 7.4192 3.1044 7.24999 3.26238 7.0445C3.42035 6.83901 3.53607 6.60166 3.6023 6.3473C4.02753 6.52467 4.50102 6.52847 4.92881 6.35794C5.05796 7.18923 5.4947 8.01881 6.11315 8.50472C5.73583 8.79975 5.42897 9.18207 5.21657 9.62174C5.00418 10.0614 4.89202 10.5465 4.88889 11.039C4.88658 11.2077 4.94702 11.3707 5.05745 11.4937C5.16788 11.6167 5.31968 11.69 5.48085 11.6983C5.5627 11.701 5.64423 11.6864 5.7206 11.6555C5.79697 11.6246 5.86661 11.578 5.92541 11.5184C5.9842 11.4588 6.03093 11.3875 6.06283 11.3087C6.09473 11.2298 6.11115 11.1451 6.11111 11.0595C6.11165 10.5524 6.30419 10.0662 6.64666 9.70711C6.98913 9.34801 7.45367 9.14523 7.93874 9.14309C8.01899 9.14348 8.09853 9.12735 8.17282 9.09561C8.24711 9.06387 8.31469 9.01714 8.3717 8.9581C8.42871 8.89906 8.47404 8.82886 8.50509 8.75151C8.53615 8.67415 8.55233 8.59116 8.5527 8.50728C8.55308 8.42339 8.53764 8.34025 8.50728 8.26259C8.47691 8.18494 8.43221 8.1143 8.37573 8.05471C8.31925 7.99511 8.25209 7.94773 8.17809 7.91527C8.10409 7.8828 8.0247 7.86589 7.94444 7.8655C7.14796 7.8655 6.22681 7.0883 6.21582 6.21315H9.16667C9.32874 6.21315 9.48418 6.28045 9.59879 6.40025C9.71339 6.52004 9.77778 6.68252 9.77778 6.85194V10.1264C9.77802 10.2103 9.76233 10.2935 9.73163 10.3711C9.70093 10.4486 9.65583 10.519 9.59893 10.5783L7.51259 12.7591C7.45578 12.8184 7.41071 12.8889 7.37995 12.9664C7.34919 13.0439 7.33335 13.127 7.33333 13.2109V13.567C7.33333 13.608 7.31777 13.6474 7.29004 13.6764C7.26232 13.7055 7.22471 13.7219 7.18545 13.722H3.81456C3.77522 13.722 3.7375 13.7057 3.70969 13.6766C3.68188 13.6475 3.66626 13.6081 3.66626 13.567L3.66667 13.2114ZM8.55556 14.3612V13.4758L10.463 11.4819C10.8068 11.1226 10.9999 10.6354 11 10.1273V3.22571C11 2.20619 10.2508 1.34084 9.27748 1.27994C9.00928 1.26283 8.74077 1.30791 8.49119 1.41196C8.40893 1.09683 8.25098 0.808905 8.03234 0.575528C7.81369 0.342152 7.54161 0.171068 7.24192 0.0785225C6.94223 -0.0140234 6.62489 -0.0249596 6.32002 0.046752C6.01515 0.118464 5.73288 0.270443 5.5 0.488259C5.26712 0.270545 4.98488 0.118653 4.68006 0.0469999C4.37525 -0.0246532 4.05797 -0.0136898 3.75834 0.078849C3.45872 0.171388 3.18669 0.342432 2.96807 0.575746C2.74946 0.809061 2.59151 1.09691 2.50922 1.41196C2.25963 1.30793 1.99113 1.26285 1.72293 1.27994C0.749222 1.34084 0 2.20619 0 3.22571V10.1247C-2.08485e-06 10.3764 0.047417 10.6256 0.139549 10.8581C0.231682 11.0906 0.366723 11.3019 0.536963 11.4798L2.44444 13.4737V14.3612L2.44648 14.5277C2.44777 14.6532 2.49628 14.7731 2.58153 14.8615C2.66677 14.9499 2.78189 14.9997 2.90196 15H8.09926C8.15951 14.9999 8.21916 14.9874 8.27479 14.9632C8.33041 14.939 8.3809 14.9035 8.42338 14.8589C8.46585 14.8142 8.49946 14.7612 8.52229 14.7029C8.54511 14.6446 8.55669 14.5822 8.55637 14.5192L8.55556 14.3612Z" fill="#333333"/>
</svg>
